G04 #@! TF.GenerationSoftware,KiCad,Pcbnew,(6.0.2-0)*
G04 #@! TF.CreationDate,2022-06-21T16:47:28+02:00*
G04 #@! TF.ProjectId,ATMEL-ICE-Octopus-Back,41544d45-4c2d-4494-9345-2d4f63746f70,A1*
G04 #@! TF.SameCoordinates,Original*
G04 #@! TF.FileFunction,Legend,Bot*
G04 #@! TF.FilePolarity,Positive*
%FSLAX46Y46*%
G04 Gerber Fmt 4.6, Leading zero omitted, Abs format (unit mm)*
G04 Created by KiCad (PCBNEW (6.0.2-0)) date 2022-06-21 16:47:28*
%MOMM*%
%LPD*%
G01*
G04 APERTURE LIST*
%ADD10C,0.154000*%
%ADD11C,0.150000*%
%ADD12R,1.000000X1.000000*%
%ADD13O,1.000000X1.000000*%
%ADD14R,1.700000X1.700000*%
%ADD15O,1.700000X1.700000*%
G04 APERTURE END LIST*
D10*
X108057619Y-111907142D02*
X108057619Y-112383333D01*
X109057619Y-112383333D01*
X108057619Y-111573809D02*
X108724285Y-111573809D01*
X109057619Y-111573809D02*
X109010000Y-111621428D01*
X108962380Y-111573809D01*
X109010000Y-111526190D01*
X109057619Y-111573809D01*
X108962380Y-111573809D01*
X108105238Y-110669047D02*
X108057619Y-110764285D01*
X108057619Y-110954761D01*
X108105238Y-111050000D01*
X108152857Y-111097619D01*
X108248095Y-111145238D01*
X108533809Y-111145238D01*
X108629047Y-111097619D01*
X108676666Y-111050000D01*
X108724285Y-110954761D01*
X108724285Y-110764285D01*
X108676666Y-110669047D01*
X108105238Y-109859523D02*
X108057619Y-109954761D01*
X108057619Y-110145238D01*
X108105238Y-110240476D01*
X108200476Y-110288095D01*
X108581428Y-110288095D01*
X108676666Y-110240476D01*
X108724285Y-110145238D01*
X108724285Y-109954761D01*
X108676666Y-109859523D01*
X108581428Y-109811904D01*
X108486190Y-109811904D01*
X108390952Y-110288095D01*
X108724285Y-109383333D02*
X108057619Y-109383333D01*
X108629047Y-109383333D02*
X108676666Y-109335714D01*
X108724285Y-109240476D01*
X108724285Y-109097619D01*
X108676666Y-109002380D01*
X108581428Y-108954761D01*
X108057619Y-108954761D01*
X108105238Y-108526190D02*
X108057619Y-108430952D01*
X108057619Y-108240476D01*
X108105238Y-108145238D01*
X108200476Y-108097619D01*
X108248095Y-108097619D01*
X108343333Y-108145238D01*
X108390952Y-108240476D01*
X108390952Y-108383333D01*
X108438571Y-108478571D01*
X108533809Y-108526190D01*
X108581428Y-108526190D01*
X108676666Y-108478571D01*
X108724285Y-108383333D01*
X108724285Y-108240476D01*
X108676666Y-108145238D01*
X108105238Y-107288095D02*
X108057619Y-107383333D01*
X108057619Y-107573809D01*
X108105238Y-107669047D01*
X108200476Y-107716666D01*
X108581428Y-107716666D01*
X108676666Y-107669047D01*
X108724285Y-107573809D01*
X108724285Y-107383333D01*
X108676666Y-107288095D01*
X108581428Y-107240476D01*
X108486190Y-107240476D01*
X108390952Y-107716666D01*
X108057619Y-106383333D02*
X109057619Y-106383333D01*
X108105238Y-106383333D02*
X108057619Y-106478571D01*
X108057619Y-106669047D01*
X108105238Y-106764285D01*
X108152857Y-106811904D01*
X108248095Y-106859523D01*
X108533809Y-106859523D01*
X108629047Y-106811904D01*
X108676666Y-106764285D01*
X108724285Y-106669047D01*
X108724285Y-106478571D01*
X108676666Y-106383333D01*
X108724285Y-104716666D02*
X108057619Y-104716666D01*
X108724285Y-105145238D02*
X108200476Y-105145238D01*
X108105238Y-105097619D01*
X108057619Y-105002380D01*
X108057619Y-104859523D01*
X108105238Y-104764285D01*
X108152857Y-104716666D01*
X108724285Y-104240476D02*
X108057619Y-104240476D01*
X108629047Y-104240476D02*
X108676666Y-104192857D01*
X108724285Y-104097619D01*
X108724285Y-103954761D01*
X108676666Y-103859523D01*
X108581428Y-103811904D01*
X108057619Y-103811904D01*
X108057619Y-102907142D02*
X109057619Y-102907142D01*
X108105238Y-102907142D02*
X108057619Y-103002380D01*
X108057619Y-103192857D01*
X108105238Y-103288095D01*
X108152857Y-103335714D01*
X108248095Y-103383333D01*
X108533809Y-103383333D01*
X108629047Y-103335714D01*
X108676666Y-103288095D01*
X108724285Y-103192857D01*
X108724285Y-103002380D01*
X108676666Y-102907142D01*
X108105238Y-102050000D02*
X108057619Y-102145238D01*
X108057619Y-102335714D01*
X108105238Y-102430952D01*
X108200476Y-102478571D01*
X108581428Y-102478571D01*
X108676666Y-102430952D01*
X108724285Y-102335714D01*
X108724285Y-102145238D01*
X108676666Y-102050000D01*
X108581428Y-102002380D01*
X108486190Y-102002380D01*
X108390952Y-102478571D01*
X108057619Y-101573809D02*
X108724285Y-101573809D01*
X108533809Y-101573809D02*
X108629047Y-101526190D01*
X108676666Y-101478571D01*
X108724285Y-101383333D01*
X108724285Y-101288095D01*
X108152857Y-99621428D02*
X108105238Y-99669047D01*
X108057619Y-99811904D01*
X108057619Y-99907142D01*
X108105238Y-100050000D01*
X108200476Y-100145238D01*
X108295714Y-100192857D01*
X108486190Y-100240476D01*
X108629047Y-100240476D01*
X108819523Y-100192857D01*
X108914761Y-100145238D01*
X109010000Y-100050000D01*
X109057619Y-99907142D01*
X109057619Y-99811904D01*
X109010000Y-99669047D01*
X108962380Y-99621428D01*
X108581428Y-99192857D02*
X108581428Y-98859523D01*
X108057619Y-98716666D02*
X108057619Y-99192857D01*
X109057619Y-99192857D01*
X109057619Y-98716666D01*
X108057619Y-97716666D02*
X108533809Y-98050000D01*
X108057619Y-98288095D02*
X109057619Y-98288095D01*
X109057619Y-97907142D01*
X109010000Y-97811904D01*
X108962380Y-97764285D01*
X108867142Y-97716666D01*
X108724285Y-97716666D01*
X108629047Y-97764285D01*
X108581428Y-97811904D01*
X108533809Y-97907142D01*
X108533809Y-98288095D01*
X108057619Y-97288095D02*
X109057619Y-97288095D01*
X108057619Y-96716666D01*
X109057619Y-96716666D01*
X108438571Y-96240476D02*
X108438571Y-95478571D01*
X109057619Y-94811904D02*
X109057619Y-94621428D01*
X109010000Y-94526190D01*
X108914761Y-94430952D01*
X108724285Y-94383333D01*
X108390952Y-94383333D01*
X108200476Y-94430952D01*
X108105238Y-94526190D01*
X108057619Y-94621428D01*
X108057619Y-94811904D01*
X108105238Y-94907142D01*
X108200476Y-95002380D01*
X108390952Y-95050000D01*
X108724285Y-95050000D01*
X108914761Y-95002380D01*
X109010000Y-94907142D01*
X109057619Y-94811904D01*
X108057619Y-93954761D02*
X109057619Y-93954761D01*
X108581428Y-93954761D02*
X108581428Y-93383333D01*
X108057619Y-93383333D02*
X109057619Y-93383333D01*
X108057619Y-92430952D02*
X108057619Y-92907142D01*
X109057619Y-92907142D01*
X108438571Y-92097619D02*
X108438571Y-91335714D01*
X109057619Y-90954761D02*
X108057619Y-90716666D01*
X108771904Y-90526190D01*
X108057619Y-90335714D01*
X109057619Y-90097619D01*
X108724285Y-89050000D02*
X108057619Y-88811904D01*
X108724285Y-88573809D01*
X108962380Y-88240476D02*
X109010000Y-88192857D01*
X109057619Y-88097619D01*
X109057619Y-87859523D01*
X109010000Y-87764285D01*
X108962380Y-87716666D01*
X108867142Y-87669047D01*
X108771904Y-87669047D01*
X108629047Y-87716666D01*
X108057619Y-88288095D01*
X108057619Y-87669047D01*
D11*
G04 #@! TO.C,J1*
X101633333Y-103552380D02*
X101633333Y-104266666D01*
X101680952Y-104409523D01*
X101776190Y-104504761D01*
X101919047Y-104552380D01*
X102014285Y-104552380D01*
X100633333Y-104552380D02*
X101204761Y-104552380D01*
X100919047Y-104552380D02*
X100919047Y-103552380D01*
X101014285Y-103695238D01*
X101109523Y-103790476D01*
X101204761Y-103838095D01*
G04 #@! TO.C,J2*
X101733333Y-86552380D02*
X101733333Y-87266666D01*
X101780952Y-87409523D01*
X101876190Y-87504761D01*
X102019047Y-87552380D01*
X102114285Y-87552380D01*
X101304761Y-86647619D02*
X101257142Y-86600000D01*
X101161904Y-86552380D01*
X100923809Y-86552380D01*
X100828571Y-86600000D01*
X100780952Y-86647619D01*
X100733333Y-86742857D01*
X100733333Y-86838095D01*
X100780952Y-86980952D01*
X101352380Y-87552380D01*
X100733333Y-87552380D01*
G04 #@! TD*
%LPC*%
D12*
G04 #@! TO.C,J1*
X101500000Y-111040000D03*
D13*
X102770000Y-111040000D03*
X101500000Y-109770000D03*
X102770000Y-109770000D03*
X101500000Y-108500000D03*
X102770000Y-108500000D03*
X101500000Y-107230000D03*
X102770000Y-107230000D03*
X101500000Y-105960000D03*
X102770000Y-105960000D03*
G04 #@! TD*
D14*
G04 #@! TO.C,J3*
X106825000Y-101270000D03*
D15*
X104285000Y-101270000D03*
X106825000Y-98730000D03*
X104285000Y-98730000D03*
G04 #@! TD*
D12*
G04 #@! TO.C,J2*
X101500000Y-94040000D03*
D13*
X102770000Y-94040000D03*
X101500000Y-92770000D03*
X102770000Y-92770000D03*
X101500000Y-91500000D03*
X102770000Y-91500000D03*
X101500000Y-90230000D03*
X102770000Y-90230000D03*
X101500000Y-88960000D03*
X102770000Y-88960000D03*
G04 #@! TD*
D14*
G04 #@! TO.C,J5*
X106825000Y-84760000D03*
D15*
X104285000Y-84760000D03*
X106825000Y-82220000D03*
X104285000Y-82220000D03*
G04 #@! TD*
D14*
G04 #@! TO.C,J4*
X106825000Y-117780000D03*
D15*
X104285000Y-117780000D03*
X106825000Y-115240000D03*
X104285000Y-115240000D03*
G04 #@! TD*
M02*
