G04 #@! TF.GenerationSoftware,KiCad,Pcbnew,(6.0.2-0)*
G04 #@! TF.CreationDate,2022-06-21T16:47:28+02:00*
G04 #@! TF.ProjectId,ATMEL-ICE-Octopus-Back,41544d45-4c2d-4494-9345-2d4f63746f70,A1*
G04 #@! TF.SameCoordinates,Original*
G04 #@! TF.FileFunction,Legend,Top*
G04 #@! TF.FilePolarity,Positive*
%FSLAX46Y46*%
G04 Gerber Fmt 4.6, Leading zero omitted, Abs format (unit mm)*
G04 Created by KiCad (PCBNEW (6.0.2-0)) date 2022-06-21 16:47:28*
%MOMM*%
%LPD*%
G01*
G04 APERTURE LIST*
%ADD10C,0.154000*%
%ADD11C,0.180000*%
%ADD12C,0.120000*%
%ADD13R,1.000000X1.000000*%
%ADD14O,1.000000X1.000000*%
%ADD15R,1.700000X1.700000*%
%ADD16O,1.700000X1.700000*%
G04 APERTURE END LIST*
D10*
X108097619Y-97180952D02*
X108883333Y-97180952D01*
X109040476Y-97233333D01*
X109145238Y-97338095D01*
X109197619Y-97495238D01*
X109197619Y-97600000D01*
X109197619Y-96133333D02*
X109197619Y-96657142D01*
X108097619Y-96657142D01*
X109092857Y-95138095D02*
X109145238Y-95190476D01*
X109197619Y-95347619D01*
X109197619Y-95452380D01*
X109145238Y-95609523D01*
X109040476Y-95714285D01*
X108935714Y-95766666D01*
X108726190Y-95819047D01*
X108569047Y-95819047D01*
X108359523Y-95766666D01*
X108254761Y-95714285D01*
X108150000Y-95609523D01*
X108097619Y-95452380D01*
X108097619Y-95347619D01*
X108150000Y-95190476D01*
X108202380Y-95138095D01*
X108097619Y-94352380D02*
X108883333Y-94352380D01*
X109040476Y-94404761D01*
X109145238Y-94509523D01*
X109197619Y-94666666D01*
X109197619Y-94771428D01*
X109197619Y-93304761D02*
X109197619Y-93828571D01*
X108097619Y-93828571D01*
X109092857Y-92309523D02*
X109145238Y-92361904D01*
X109197619Y-92519047D01*
X109197619Y-92623809D01*
X109145238Y-92780952D01*
X109040476Y-92885714D01*
X108935714Y-92938095D01*
X108726190Y-92990476D01*
X108569047Y-92990476D01*
X108359523Y-92938095D01*
X108254761Y-92885714D01*
X108150000Y-92780952D01*
X108097619Y-92623809D01*
X108097619Y-92519047D01*
X108150000Y-92361904D01*
X108202380Y-92309523D01*
X108097619Y-91523809D02*
X108883333Y-91523809D01*
X109040476Y-91576190D01*
X109145238Y-91680952D01*
X109197619Y-91838095D01*
X109197619Y-91942857D01*
X109197619Y-90476190D02*
X109197619Y-91000000D01*
X108097619Y-91000000D01*
X109092857Y-89480952D02*
X109145238Y-89533333D01*
X109197619Y-89690476D01*
X109197619Y-89795238D01*
X109145238Y-89952380D01*
X109040476Y-90057142D01*
X108935714Y-90109523D01*
X108726190Y-90161904D01*
X108569047Y-90161904D01*
X108359523Y-90109523D01*
X108254761Y-90057142D01*
X108150000Y-89952380D01*
X108097619Y-89795238D01*
X108097619Y-89690476D01*
X108150000Y-89533333D01*
X108202380Y-89480952D01*
X108097619Y-88695238D02*
X108883333Y-88695238D01*
X109040476Y-88747619D01*
X109145238Y-88852380D01*
X109197619Y-89009523D01*
X109197619Y-89114285D01*
X109197619Y-87647619D02*
X109197619Y-88171428D01*
X108097619Y-88171428D01*
X109092857Y-86652380D02*
X109145238Y-86704761D01*
X109197619Y-86861904D01*
X109197619Y-86966666D01*
X109145238Y-87123809D01*
X109040476Y-87228571D01*
X108935714Y-87280952D01*
X108726190Y-87333333D01*
X108569047Y-87333333D01*
X108359523Y-87280952D01*
X108254761Y-87228571D01*
X108150000Y-87123809D01*
X108097619Y-86966666D01*
X108097619Y-86861904D01*
X108150000Y-86704761D01*
X108202380Y-86652380D01*
D11*
X109188095Y-111459857D02*
X108321428Y-111459857D01*
X108569047Y-111459857D02*
X108445238Y-111397952D01*
X108383333Y-111336047D01*
X108321428Y-111212238D01*
X108321428Y-111088428D01*
X109126190Y-110159857D02*
X109188095Y-110283666D01*
X109188095Y-110531285D01*
X109126190Y-110655095D01*
X109002380Y-110717000D01*
X108507142Y-110717000D01*
X108383333Y-110655095D01*
X108321428Y-110531285D01*
X108321428Y-110283666D01*
X108383333Y-110159857D01*
X108507142Y-110097952D01*
X108630952Y-110097952D01*
X108754761Y-110717000D01*
X108321428Y-109664619D02*
X109188095Y-109355095D01*
X108321428Y-109045571D01*
X108816666Y-107621761D02*
X108816666Y-107002714D01*
X109188095Y-107745571D02*
X107888095Y-107312238D01*
X109188095Y-106878904D01*
X109188095Y-105764619D02*
X109188095Y-106507476D01*
X109188095Y-106136047D02*
X107888095Y-106136047D01*
X108073809Y-106259857D01*
X108197619Y-106383666D01*
X108259523Y-106507476D01*
D12*
G04 #@! TO.C,J1*
X102462470Y-111735000D02*
X102260000Y-111735000D01*
X102462470Y-105265000D02*
X101807530Y-105265000D01*
X100550000Y-110405000D02*
X100550000Y-105265000D01*
X101500000Y-111800000D02*
X100550000Y-111800000D01*
X100550000Y-111800000D02*
X100550000Y-111040000D01*
X100740000Y-110405000D02*
X100550000Y-110405000D01*
X103720000Y-105265000D02*
X103077530Y-105265000D01*
X103720000Y-111735000D02*
X103720000Y-105265000D01*
X103720000Y-111735000D02*
X103077530Y-111735000D01*
X101192470Y-105265000D02*
X100550000Y-105265000D01*
X104300000Y-109770000D02*
X104300000Y-107230000D01*
G04 #@! TO.C,J2*
X100550000Y-94800000D02*
X100550000Y-94040000D01*
X100740000Y-93405000D02*
X100550000Y-93405000D01*
X100550000Y-93405000D02*
X100550000Y-88265000D01*
X103720000Y-88265000D02*
X103077530Y-88265000D01*
X102462470Y-88265000D02*
X101807530Y-88265000D01*
X101192470Y-88265000D02*
X100550000Y-88265000D01*
X101500000Y-94800000D02*
X100550000Y-94800000D01*
X102462470Y-94735000D02*
X102260000Y-94735000D01*
X103720000Y-94735000D02*
X103077530Y-94735000D01*
X104300000Y-92770000D02*
X104300000Y-90230000D01*
X103720000Y-94735000D02*
X103720000Y-88265000D01*
G04 #@! TD*
%LPC*%
D13*
G04 #@! TO.C,J1*
X101500000Y-111040000D03*
D14*
X102770000Y-111040000D03*
X101500000Y-109770000D03*
X102770000Y-109770000D03*
X101500000Y-108500000D03*
X102770000Y-108500000D03*
X101500000Y-107230000D03*
X102770000Y-107230000D03*
X101500000Y-105960000D03*
X102770000Y-105960000D03*
G04 #@! TD*
D15*
G04 #@! TO.C,J3*
X106825000Y-101270000D03*
D16*
X104285000Y-101270000D03*
X106825000Y-98730000D03*
X104285000Y-98730000D03*
G04 #@! TD*
D13*
G04 #@! TO.C,J2*
X101500000Y-94040000D03*
D14*
X102770000Y-94040000D03*
X101500000Y-92770000D03*
X102770000Y-92770000D03*
X101500000Y-91500000D03*
X102770000Y-91500000D03*
X101500000Y-90230000D03*
X102770000Y-90230000D03*
X101500000Y-88960000D03*
X102770000Y-88960000D03*
G04 #@! TD*
D15*
G04 #@! TO.C,J5*
X106825000Y-84760000D03*
D16*
X104285000Y-84760000D03*
X106825000Y-82220000D03*
X104285000Y-82220000D03*
G04 #@! TD*
D15*
G04 #@! TO.C,J4*
X106825000Y-117780000D03*
D16*
X104285000Y-117780000D03*
X106825000Y-115240000D03*
X104285000Y-115240000D03*
G04 #@! TD*
M02*
