G04 #@! TF.GenerationSoftware,KiCad,Pcbnew,(6.0.0-0)*
G04 #@! TF.CreationDate,2022-01-14T21:33:19+01:00*
G04 #@! TF.ProjectId,ATMEL-ICE-Octopus-Back,41544d45-4c2d-4494-9345-2d4f63746f70,rev?*
G04 #@! TF.SameCoordinates,Original*
G04 #@! TF.FileFunction,Copper,L2,Bot*
G04 #@! TF.FilePolarity,Positive*
%FSLAX46Y46*%
G04 Gerber Fmt 4.6, Leading zero omitted, Abs format (unit mm)*
G04 Created by KiCad (PCBNEW (6.0.0-0)) date 2022-01-14 21:33:19*
%MOMM*%
%LPD*%
G01*
G04 APERTURE LIST*
G04 #@! TA.AperFunction,ComponentPad*
%ADD10R,1.000000X1.000000*%
G04 #@! TD*
G04 #@! TA.AperFunction,ComponentPad*
%ADD11O,1.000000X1.000000*%
G04 #@! TD*
G04 #@! TA.AperFunction,ComponentPad*
%ADD12R,1.700000X1.700000*%
G04 #@! TD*
G04 #@! TA.AperFunction,ComponentPad*
%ADD13O,1.700000X1.700000*%
G04 #@! TD*
G04 #@! TA.AperFunction,ViaPad*
%ADD14C,0.800000*%
G04 #@! TD*
G04 #@! TA.AperFunction,Conductor*
%ADD15C,0.490000*%
G04 #@! TD*
G04 #@! TA.AperFunction,Conductor*
%ADD16C,0.250000*%
G04 #@! TD*
G04 APERTURE END LIST*
D10*
G04 #@! TO.P,J1,1,Pin_1*
G04 #@! TO.N,/VTG*
X101500000Y-111040000D03*
D11*
G04 #@! TO.P,J1,2,Pin_2*
G04 #@! TO.N,/TMS*
X102770000Y-111040000D03*
G04 #@! TO.P,J1,3,Pin_3*
G04 #@! TO.N,/GND*
X101500000Y-109770000D03*
G04 #@! TO.P,J1,4,Pin_4*
G04 #@! TO.N,/TCK*
X102770000Y-109770000D03*
G04 #@! TO.P,J1,5,Pin_5*
G04 #@! TO.N,/GND*
X101500000Y-108500000D03*
G04 #@! TO.P,J1,6,Pin_6*
G04 #@! TO.N,/TDO*
X102770000Y-108500000D03*
G04 #@! TO.P,J1,7,Pin_7*
G04 #@! TO.N,unconnected-(J1-Pad7)*
X101500000Y-107230000D03*
G04 #@! TO.P,J1,8,Pin_8*
G04 #@! TO.N,/TDI*
X102770000Y-107230000D03*
G04 #@! TO.P,J1,9,Pin_9*
G04 #@! TO.N,/GND*
X101500000Y-105960000D03*
G04 #@! TO.P,J1,10,Pin_10*
G04 #@! TO.N,/nSRST*
X102770000Y-105960000D03*
G04 #@! TD*
D12*
G04 #@! TO.P,J3,1,Pin_1*
G04 #@! TO.N,/GND*
X106825000Y-101270000D03*
D13*
G04 #@! TO.P,J3,2,Pin_2*
G04 #@! TO.N,/TMS*
X104285000Y-101270000D03*
G04 #@! TO.P,J3,3,Pin_3*
G04 #@! TO.N,/TCK*
X106825000Y-98730000D03*
G04 #@! TO.P,J3,4,Pin_4*
G04 #@! TO.N,/VTG*
X104285000Y-98730000D03*
G04 #@! TD*
D10*
G04 #@! TO.P,J2,1,Pin_1*
G04 #@! TO.N,/TCK*
X101500000Y-94040000D03*
D11*
G04 #@! TO.P,J2,2,Pin_2*
G04 #@! TO.N,/GND*
X102770000Y-94040000D03*
G04 #@! TO.P,J2,3,Pin_3*
G04 #@! TO.N,/TDO*
X101500000Y-92770000D03*
G04 #@! TO.P,J2,4,Pin_4*
G04 #@! TO.N,/VTG*
X102770000Y-92770000D03*
G04 #@! TO.P,J2,5,Pin_5*
G04 #@! TO.N,/TMS*
X101500000Y-91500000D03*
G04 #@! TO.P,J2,6,Pin_6*
G04 #@! TO.N,/nSRST*
X102770000Y-91500000D03*
G04 #@! TO.P,J2,7,Pin_7*
G04 #@! TO.N,unconnected-(J2-Pad7)*
X101500000Y-90230000D03*
G04 #@! TO.P,J2,8,Pin_8*
G04 #@! TO.N,/nTRST*
X102770000Y-90230000D03*
G04 #@! TO.P,J2,9,Pin_9*
G04 #@! TO.N,/TDI*
X101500000Y-88960000D03*
G04 #@! TO.P,J2,10,Pin_10*
G04 #@! TO.N,/GND*
X102770000Y-88960000D03*
G04 #@! TD*
D12*
G04 #@! TO.P,J5,1,Pin_1*
G04 #@! TO.N,/GND*
X106825000Y-84760000D03*
D13*
G04 #@! TO.P,J5,2,Pin_2*
G04 #@! TO.N,/nSRST*
X104285000Y-84760000D03*
G04 #@! TO.P,J5,3,Pin_3*
G04 #@! TO.N,/nTRST*
X106825000Y-82220000D03*
G04 #@! TO.P,J5,4,Pin_4*
G04 #@! TO.N,/VTG*
X104285000Y-82220000D03*
G04 #@! TD*
D12*
G04 #@! TO.P,J4,1,Pin_1*
G04 #@! TO.N,/GND*
X106825000Y-117780000D03*
D13*
G04 #@! TO.P,J4,2,Pin_2*
G04 #@! TO.N,/TDO*
X104285000Y-117780000D03*
G04 #@! TO.P,J4,3,Pin_3*
G04 #@! TO.N,/TDI*
X106825000Y-115240000D03*
G04 #@! TO.P,J4,4,Pin_4*
G04 #@! TO.N,/VTG*
X104285000Y-115240000D03*
G04 #@! TD*
D14*
G04 #@! TO.N,/VTG*
X107300000Y-95400000D03*
X106550008Y-103950008D03*
X107124500Y-106400000D03*
G04 #@! TO.N,/TMS*
X104400000Y-108900000D03*
X102257500Y-99242500D03*
G04 #@! TO.N,/GND*
X105500000Y-96300000D03*
X105600008Y-104900008D03*
X102700000Y-104500000D03*
X105100000Y-90400000D03*
G04 #@! TO.N,/TCK*
X105100000Y-108000000D03*
G04 #@! TO.N,/nTRST*
X104100000Y-91300000D03*
G04 #@! TD*
D15*
G04 #@! TO.N,/VTG*
X102970000Y-92770000D02*
X104285000Y-94085000D01*
X105985000Y-94085000D02*
X104285000Y-94085000D01*
X104285000Y-94085000D02*
X104285000Y-98730000D01*
X107300000Y-95400000D02*
X105985000Y-94085000D01*
X107124500Y-106400000D02*
X107124500Y-104524500D01*
X102770000Y-92770000D02*
X102970000Y-92770000D01*
X107124500Y-104524500D02*
X106550008Y-103950008D01*
D16*
G04 #@! TO.N,/TMS*
X104285000Y-108785000D02*
X104285000Y-101270000D01*
X104400000Y-108900000D02*
X104285000Y-108785000D01*
X104285000Y-101270000D02*
X102257500Y-99242500D01*
G04 #@! TO.N,/GND*
X101500000Y-108500000D02*
X100600000Y-107600000D01*
X100600000Y-107600000D02*
X100600000Y-106860000D01*
D15*
X105600008Y-103299992D02*
X105900000Y-103000000D01*
X105600008Y-104900008D02*
X105600008Y-103299992D01*
D16*
X100600000Y-106860000D02*
X101500000Y-105960000D01*
X101500000Y-105960000D02*
X101500000Y-105700000D01*
D15*
X105900000Y-103000000D02*
X106700000Y-103000000D01*
X106700000Y-103000000D02*
X106825000Y-102875000D01*
X106825000Y-102875000D02*
X106825000Y-101270000D01*
D16*
G04 #@! TO.N,/TCK*
X105459511Y-100095489D02*
X106825000Y-98730000D01*
X105459511Y-101756499D02*
X105459511Y-100095489D01*
X105100000Y-108000000D02*
X104800000Y-107700000D01*
X104800000Y-102416010D02*
X105459511Y-101756499D01*
X104800000Y-107700000D02*
X104800000Y-102416010D01*
G04 #@! TO.N,/TDO*
X102770000Y-108500000D02*
X105459511Y-111189511D01*
X105459511Y-116605489D02*
X104285000Y-117780000D01*
X103835480Y-102635480D02*
X103835480Y-107434520D01*
X102600000Y-101100000D02*
X102600000Y-101400000D01*
X100675489Y-93215489D02*
X100675489Y-99175489D01*
X100675489Y-99175489D02*
X102600000Y-101100000D01*
X101500000Y-92770000D02*
X101120978Y-92770000D01*
X102600000Y-101400000D02*
X103835480Y-102635480D01*
X105459511Y-111189511D02*
X105459511Y-116605489D01*
X103835480Y-107434520D02*
X102770000Y-108500000D01*
X101120978Y-92770000D02*
X100675489Y-93215489D01*
G04 #@! TO.N,/nSRST*
X103700000Y-85345000D02*
X104285000Y-84760000D01*
X102770000Y-91500000D02*
X103700000Y-90570000D01*
X103700000Y-90570000D02*
X103700000Y-85345000D01*
G04 #@! TO.N,/nTRST*
X104100000Y-91300000D02*
X104149520Y-91250480D01*
X104149520Y-86556490D02*
X105459511Y-85246499D01*
X105459511Y-83585489D02*
X106825000Y-82220000D01*
X105459511Y-85246499D02*
X105459511Y-83585489D01*
X104149520Y-91250480D02*
X104149520Y-86556490D01*
G04 #@! TD*
G04 #@! TA.AperFunction,Conductor*
G04 #@! TO.N,/GND*
G36*
X108970055Y-80509500D02*
G01*
X108984856Y-80511805D01*
X108984859Y-80511805D01*
X108993728Y-80513186D01*
X109002630Y-80512022D01*
X109002632Y-80512022D01*
X109002690Y-80512014D01*
X109002729Y-80512009D01*
X109033167Y-80511738D01*
X109095374Y-80518747D01*
X109122882Y-80525026D01*
X109200069Y-80552035D01*
X109225490Y-80564277D01*
X109294737Y-80607788D01*
X109316796Y-80625380D01*
X109374620Y-80683204D01*
X109392212Y-80705263D01*
X109435723Y-80774510D01*
X109447965Y-80799931D01*
X109474974Y-80877119D01*
X109481253Y-80904624D01*
X109487452Y-80959630D01*
X109487522Y-80960255D01*
X109488305Y-80975903D01*
X109488196Y-80984858D01*
X109486814Y-80993732D01*
X109489273Y-81012537D01*
X109490936Y-81025253D01*
X109492000Y-81041591D01*
X109492000Y-118950670D01*
X109490500Y-118970055D01*
X109488548Y-118982593D01*
X109486814Y-118993728D01*
X109487978Y-119002630D01*
X109487978Y-119002632D01*
X109487991Y-119002728D01*
X109488262Y-119033167D01*
X109481253Y-119095374D01*
X109474974Y-119122882D01*
X109447965Y-119200069D01*
X109435723Y-119225490D01*
X109392212Y-119294737D01*
X109374620Y-119316796D01*
X109316796Y-119374620D01*
X109294737Y-119392212D01*
X109225490Y-119435723D01*
X109200069Y-119447965D01*
X109122881Y-119474974D01*
X109095376Y-119481253D01*
X109083762Y-119482562D01*
X109039738Y-119487522D01*
X109024097Y-119488305D01*
X109015142Y-119488196D01*
X109006268Y-119486814D01*
X108974747Y-119490936D01*
X108958409Y-119492000D01*
X101049330Y-119492000D01*
X101029948Y-119490500D01*
X101023854Y-119489552D01*
X100959623Y-119459307D01*
X100954147Y-119454147D01*
X100544905Y-119044905D01*
X100510879Y-118982593D01*
X100508000Y-118955810D01*
X100508000Y-112058667D01*
X100528002Y-111990546D01*
X100581658Y-111944053D01*
X100651932Y-111933949D01*
X100709565Y-111957841D01*
X100753295Y-111990615D01*
X100889684Y-112041745D01*
X100951866Y-112048500D01*
X102048134Y-112048500D01*
X102110316Y-112041745D01*
X102246705Y-111990615D01*
X102253892Y-111985229D01*
X102261760Y-111980921D01*
X102262975Y-111983141D01*
X102316928Y-111962986D01*
X102364916Y-111968827D01*
X102542776Y-112026616D01*
X102552392Y-112029740D01*
X102748777Y-112053158D01*
X102754912Y-112052686D01*
X102754914Y-112052686D01*
X102939830Y-112038457D01*
X102939834Y-112038456D01*
X102945972Y-112037984D01*
X103136463Y-111984798D01*
X103141967Y-111982018D01*
X103141969Y-111982017D01*
X103307495Y-111898404D01*
X103307497Y-111898403D01*
X103312996Y-111895625D01*
X103468847Y-111773861D01*
X103598078Y-111624145D01*
X103695769Y-111452179D01*
X103758197Y-111264513D01*
X103782985Y-111068295D01*
X103783380Y-111040000D01*
X103764080Y-110843167D01*
X103752550Y-110804976D01*
X103713066Y-110674201D01*
X103712525Y-110603207D01*
X103750453Y-110543190D01*
X103814807Y-110513206D01*
X103885156Y-110522774D01*
X103922783Y-110548688D01*
X104789106Y-111415011D01*
X104823132Y-111477323D01*
X104826011Y-111504106D01*
X104826011Y-113812057D01*
X104806009Y-113880178D01*
X104752353Y-113926671D01*
X104682079Y-113936775D01*
X104657956Y-113930831D01*
X104633212Y-113922069D01*
X104628123Y-113921162D01*
X104628121Y-113921162D01*
X104418373Y-113883800D01*
X104418367Y-113883799D01*
X104413284Y-113882894D01*
X104339452Y-113881992D01*
X104195081Y-113880228D01*
X104195079Y-113880228D01*
X104189911Y-113880165D01*
X103969091Y-113913955D01*
X103756756Y-113983357D01*
X103558607Y-114086507D01*
X103554474Y-114089610D01*
X103554471Y-114089612D01*
X103530247Y-114107800D01*
X103379965Y-114220635D01*
X103225629Y-114382138D01*
X103099743Y-114566680D01*
X103005688Y-114769305D01*
X102945989Y-114984570D01*
X102922251Y-115206695D01*
X102922548Y-115211848D01*
X102922548Y-115211851D01*
X102928011Y-115306590D01*
X102935110Y-115429715D01*
X102936247Y-115434761D01*
X102936248Y-115434767D01*
X102956119Y-115522939D01*
X102984222Y-115647639D01*
X103068266Y-115854616D01*
X103184987Y-116045088D01*
X103331250Y-116213938D01*
X103503126Y-116356632D01*
X103564860Y-116392706D01*
X103576445Y-116399476D01*
X103625169Y-116451114D01*
X103638240Y-116520897D01*
X103611509Y-116586669D01*
X103571055Y-116620027D01*
X103558607Y-116626507D01*
X103554474Y-116629610D01*
X103554471Y-116629612D01*
X103480010Y-116685519D01*
X103379965Y-116760635D01*
X103225629Y-116922138D01*
X103099743Y-117106680D01*
X103005688Y-117309305D01*
X102945989Y-117524570D01*
X102922251Y-117746695D01*
X102935110Y-117969715D01*
X102936247Y-117974761D01*
X102936248Y-117974767D01*
X102950606Y-118038475D01*
X102984222Y-118187639D01*
X103068266Y-118394616D01*
X103184987Y-118585088D01*
X103331250Y-118753938D01*
X103503126Y-118896632D01*
X103696000Y-119009338D01*
X103700825Y-119011180D01*
X103700826Y-119011181D01*
X103718508Y-119017933D01*
X103904692Y-119089030D01*
X103909760Y-119090061D01*
X103909763Y-119090062D01*
X104005201Y-119109479D01*
X104123597Y-119133567D01*
X104128772Y-119133757D01*
X104128774Y-119133757D01*
X104341673Y-119141564D01*
X104341677Y-119141564D01*
X104346837Y-119141753D01*
X104351957Y-119141097D01*
X104351959Y-119141097D01*
X104563288Y-119114025D01*
X104563289Y-119114025D01*
X104568416Y-119113368D01*
X104628393Y-119095374D01*
X104777429Y-119050661D01*
X104777434Y-119050659D01*
X104782384Y-119049174D01*
X104982994Y-118950896D01*
X105164860Y-118821173D01*
X105232331Y-118753938D01*
X105273479Y-118712933D01*
X105335851Y-118679017D01*
X105406658Y-118684205D01*
X105463419Y-118726851D01*
X105480401Y-118757954D01*
X105521676Y-118868054D01*
X105530214Y-118883649D01*
X105606715Y-118985724D01*
X105619276Y-118998285D01*
X105721351Y-119074786D01*
X105736946Y-119083324D01*
X105857394Y-119128478D01*
X105872649Y-119132105D01*
X105923514Y-119137631D01*
X105930328Y-119138000D01*
X106552885Y-119138000D01*
X106568124Y-119133525D01*
X106569329Y-119132135D01*
X106571000Y-119124452D01*
X106571000Y-119119884D01*
X107079000Y-119119884D01*
X107083475Y-119135123D01*
X107084865Y-119136328D01*
X107092548Y-119137999D01*
X107719669Y-119137999D01*
X107726490Y-119137629D01*
X107777352Y-119132105D01*
X107792604Y-119128479D01*
X107913054Y-119083324D01*
X107928649Y-119074786D01*
X108030724Y-118998285D01*
X108043285Y-118985724D01*
X108119786Y-118883649D01*
X108128324Y-118868054D01*
X108173478Y-118747606D01*
X108177105Y-118732351D01*
X108182631Y-118681486D01*
X108183000Y-118674672D01*
X108183000Y-118052115D01*
X108178525Y-118036876D01*
X108177135Y-118035671D01*
X108169452Y-118034000D01*
X107097115Y-118034000D01*
X107081876Y-118038475D01*
X107080671Y-118039865D01*
X107079000Y-118047548D01*
X107079000Y-119119884D01*
X106571000Y-119119884D01*
X106571000Y-117652000D01*
X106591002Y-117583879D01*
X106644658Y-117537386D01*
X106697000Y-117526000D01*
X108164884Y-117526000D01*
X108180123Y-117521525D01*
X108181328Y-117520135D01*
X108182999Y-117512452D01*
X108182999Y-116885331D01*
X108182629Y-116878510D01*
X108177105Y-116827648D01*
X108173479Y-116812396D01*
X108128324Y-116691946D01*
X108119786Y-116676351D01*
X108043285Y-116574276D01*
X108030724Y-116561715D01*
X107928649Y-116485214D01*
X107913054Y-116476676D01*
X107802813Y-116435348D01*
X107746049Y-116392706D01*
X107721349Y-116326145D01*
X107736557Y-116256796D01*
X107758104Y-116228115D01*
X107859430Y-116127144D01*
X107859440Y-116127132D01*
X107863096Y-116123489D01*
X107922594Y-116040689D01*
X107990435Y-115946277D01*
X107993453Y-115942077D01*
X108092430Y-115741811D01*
X108157370Y-115528069D01*
X108186529Y-115306590D01*
X108188156Y-115240000D01*
X108169852Y-115017361D01*
X108115431Y-114800702D01*
X108026354Y-114595840D01*
X107905014Y-114408277D01*
X107754670Y-114243051D01*
X107750619Y-114239852D01*
X107750615Y-114239848D01*
X107583414Y-114107800D01*
X107583410Y-114107798D01*
X107579359Y-114104598D01*
X107383789Y-113996638D01*
X107378920Y-113994914D01*
X107378916Y-113994912D01*
X107178087Y-113923795D01*
X107178083Y-113923794D01*
X107173212Y-113922069D01*
X107168119Y-113921162D01*
X107168116Y-113921161D01*
X106958373Y-113883800D01*
X106958367Y-113883799D01*
X106953284Y-113882894D01*
X106879452Y-113881992D01*
X106735081Y-113880228D01*
X106735079Y-113880228D01*
X106729911Y-113880165D01*
X106509091Y-113913955D01*
X106296756Y-113983357D01*
X106277190Y-113993542D01*
X106207532Y-114007255D01*
X106141517Y-113981130D01*
X106100105Y-113923462D01*
X106093011Y-113881779D01*
X106093011Y-111268278D01*
X106093538Y-111257095D01*
X106095213Y-111249602D01*
X106093073Y-111181511D01*
X106093011Y-111177554D01*
X106093011Y-111149655D01*
X106092507Y-111145664D01*
X106091574Y-111133822D01*
X106090434Y-111097547D01*
X106090185Y-111089622D01*
X106087973Y-111082008D01*
X106087972Y-111082003D01*
X106084534Y-111070170D01*
X106080523Y-111050806D01*
X106078978Y-111038575D01*
X106077985Y-111030714D01*
X106075068Y-111023347D01*
X106075067Y-111023342D01*
X106061709Y-110989603D01*
X106057865Y-110978376D01*
X106047741Y-110943533D01*
X106045529Y-110935918D01*
X106035218Y-110918483D01*
X106026523Y-110900735D01*
X106019063Y-110881894D01*
X105993075Y-110846124D01*
X105986559Y-110836204D01*
X105968091Y-110804976D01*
X105968089Y-110804973D01*
X105964053Y-110798149D01*
X105949732Y-110783828D01*
X105936891Y-110768794D01*
X105929642Y-110758817D01*
X105924983Y-110752404D01*
X105890906Y-110724213D01*
X105882137Y-110716233D01*
X104961224Y-109795319D01*
X104927200Y-109733009D01*
X104932265Y-109662193D01*
X104976260Y-109604290D01*
X105011253Y-109578866D01*
X105139040Y-109436944D01*
X105234527Y-109271556D01*
X105293542Y-109089928D01*
X105305994Y-108971456D01*
X105333007Y-108905799D01*
X105383295Y-108871055D01*
X105382288Y-108868794D01*
X105550722Y-108793803D01*
X105550724Y-108793802D01*
X105556752Y-108791118D01*
X105711253Y-108678866D01*
X105839040Y-108536944D01*
X105934527Y-108371556D01*
X105993542Y-108189928D01*
X106013504Y-108000000D01*
X105993542Y-107810072D01*
X105934527Y-107628444D01*
X105839040Y-107463056D01*
X105808769Y-107429436D01*
X105715675Y-107326045D01*
X105715674Y-107326044D01*
X105711253Y-107321134D01*
X105556752Y-107208882D01*
X105550724Y-107206198D01*
X105550722Y-107206197D01*
X105508251Y-107187288D01*
X105454155Y-107141308D01*
X105433500Y-107072181D01*
X105433500Y-104249249D01*
X105453502Y-104181128D01*
X105507158Y-104134635D01*
X105577432Y-104124531D01*
X105642012Y-104154025D01*
X105679333Y-104210313D01*
X105715481Y-104321564D01*
X105810968Y-104486952D01*
X105938755Y-104628874D01*
X106093256Y-104741126D01*
X106099284Y-104743810D01*
X106099286Y-104743811D01*
X106261689Y-104816117D01*
X106267720Y-104818802D01*
X106274176Y-104820174D01*
X106280460Y-104822216D01*
X106279817Y-104824196D01*
X106333669Y-104853268D01*
X106367991Y-104915417D01*
X106371000Y-104942788D01*
X106371000Y-105854340D01*
X106354119Y-105917340D01*
X106289973Y-106028444D01*
X106230958Y-106210072D01*
X106210996Y-106400000D01*
X106211686Y-106406565D01*
X106222134Y-106505968D01*
X106230958Y-106589928D01*
X106289973Y-106771556D01*
X106385460Y-106936944D01*
X106513247Y-107078866D01*
X106667748Y-107191118D01*
X106673776Y-107193802D01*
X106673778Y-107193803D01*
X106836181Y-107266109D01*
X106842212Y-107268794D01*
X106935613Y-107288647D01*
X107022556Y-107307128D01*
X107022561Y-107307128D01*
X107029013Y-107308500D01*
X107219987Y-107308500D01*
X107226439Y-107307128D01*
X107226444Y-107307128D01*
X107313387Y-107288647D01*
X107406788Y-107268794D01*
X107412819Y-107266109D01*
X107575222Y-107193803D01*
X107575224Y-107193802D01*
X107581252Y-107191118D01*
X107735753Y-107078866D01*
X107863540Y-106936944D01*
X107959027Y-106771556D01*
X108018042Y-106589928D01*
X108026867Y-106505968D01*
X108037314Y-106406565D01*
X108038004Y-106400000D01*
X108018042Y-106210072D01*
X107959027Y-106028444D01*
X107894881Y-105917340D01*
X107878000Y-105854340D01*
X107878000Y-104591185D01*
X107879433Y-104572235D01*
X107881567Y-104558210D01*
X107881567Y-104558206D01*
X107882667Y-104550976D01*
X107878415Y-104498699D01*
X107878000Y-104488484D01*
X107878000Y-104480498D01*
X107874730Y-104452450D01*
X107874297Y-104448075D01*
X107869016Y-104383147D01*
X107868423Y-104375850D01*
X107866167Y-104368886D01*
X107864994Y-104363016D01*
X107863630Y-104357248D01*
X107862783Y-104349977D01*
X107838032Y-104281789D01*
X107836609Y-104277644D01*
X107816529Y-104215660D01*
X107816528Y-104215658D01*
X107814273Y-104208697D01*
X107810477Y-104202441D01*
X107807996Y-104197023D01*
X107805330Y-104191698D01*
X107802832Y-104184817D01*
X107763071Y-104124171D01*
X107760734Y-104120467D01*
X107726036Y-104063286D01*
X107723123Y-104058485D01*
X107715778Y-104050168D01*
X107715803Y-104050146D01*
X107713084Y-104047081D01*
X107710510Y-104044003D01*
X107706494Y-104037877D01*
X107650639Y-103984965D01*
X107648198Y-103982588D01*
X107473537Y-103807927D01*
X107442799Y-103757769D01*
X107386576Y-103584734D01*
X107384535Y-103578452D01*
X107289048Y-103413064D01*
X107161261Y-103271142D01*
X107006760Y-103158890D01*
X107000732Y-103156206D01*
X107000730Y-103156205D01*
X106838327Y-103083899D01*
X106838326Y-103083899D01*
X106832296Y-103081214D01*
X106738895Y-103061361D01*
X106651952Y-103042880D01*
X106651947Y-103042880D01*
X106645495Y-103041508D01*
X106454521Y-103041508D01*
X106448069Y-103042880D01*
X106448064Y-103042880D01*
X106361121Y-103061361D01*
X106267720Y-103081214D01*
X106261690Y-103083899D01*
X106261689Y-103083899D01*
X106099286Y-103156205D01*
X106099284Y-103156206D01*
X106093256Y-103158890D01*
X105938755Y-103271142D01*
X105810968Y-103413064D01*
X105715481Y-103578452D01*
X105713440Y-103584734D01*
X105713439Y-103584737D01*
X105679333Y-103689703D01*
X105639259Y-103748309D01*
X105573863Y-103775946D01*
X105503906Y-103763839D01*
X105451600Y-103715833D01*
X105433500Y-103650767D01*
X105433500Y-102730604D01*
X105453502Y-102662483D01*
X105470405Y-102641509D01*
X105544519Y-102567395D01*
X105606831Y-102533369D01*
X105677646Y-102538434D01*
X105709180Y-102555664D01*
X105721358Y-102564791D01*
X105736941Y-102573322D01*
X105857394Y-102618478D01*
X105872649Y-102622105D01*
X105923514Y-102627631D01*
X105930328Y-102628000D01*
X106552885Y-102628000D01*
X106568124Y-102623525D01*
X106569329Y-102622135D01*
X106571000Y-102614452D01*
X106571000Y-102609884D01*
X107079000Y-102609884D01*
X107083475Y-102625123D01*
X107084865Y-102626328D01*
X107092548Y-102627999D01*
X107719669Y-102627999D01*
X107726490Y-102627629D01*
X107777352Y-102622105D01*
X107792604Y-102618479D01*
X107913054Y-102573324D01*
X107928649Y-102564786D01*
X108030724Y-102488285D01*
X108043285Y-102475724D01*
X108119786Y-102373649D01*
X108128324Y-102358054D01*
X108173478Y-102237606D01*
X108177105Y-102222351D01*
X108182631Y-102171486D01*
X108183000Y-102164672D01*
X108183000Y-101542115D01*
X108178525Y-101526876D01*
X108177135Y-101525671D01*
X108169452Y-101524000D01*
X107097115Y-101524000D01*
X107081876Y-101528475D01*
X107080671Y-101529865D01*
X107079000Y-101537548D01*
X107079000Y-102609884D01*
X106571000Y-102609884D01*
X106571000Y-101142000D01*
X106591002Y-101073879D01*
X106644658Y-101027386D01*
X106697000Y-101016000D01*
X108164884Y-101016000D01*
X108180123Y-101011525D01*
X108181328Y-101010135D01*
X108182999Y-101002452D01*
X108182999Y-100375331D01*
X108182629Y-100368510D01*
X108177105Y-100317648D01*
X108173479Y-100302396D01*
X108128324Y-100181946D01*
X108119786Y-100166351D01*
X108043285Y-100064276D01*
X108030724Y-100051715D01*
X107928649Y-99975214D01*
X107913054Y-99966676D01*
X107802813Y-99925348D01*
X107746049Y-99882706D01*
X107721349Y-99816145D01*
X107736557Y-99746796D01*
X107758104Y-99718115D01*
X107859430Y-99617144D01*
X107859440Y-99617132D01*
X107863096Y-99613489D01*
X107993453Y-99432077D01*
X108092430Y-99231811D01*
X108157370Y-99018069D01*
X108186529Y-98796590D01*
X108188156Y-98730000D01*
X108169852Y-98507361D01*
X108115431Y-98290702D01*
X108026354Y-98085840D01*
X107905014Y-97898277D01*
X107754670Y-97733051D01*
X107750619Y-97729852D01*
X107750615Y-97729848D01*
X107583414Y-97597800D01*
X107583410Y-97597798D01*
X107579359Y-97594598D01*
X107383789Y-97486638D01*
X107378920Y-97484914D01*
X107378916Y-97484912D01*
X107178087Y-97413795D01*
X107178083Y-97413794D01*
X107173212Y-97412069D01*
X107168119Y-97411162D01*
X107168116Y-97411161D01*
X106958373Y-97373800D01*
X106958367Y-97373799D01*
X106953284Y-97372894D01*
X106879452Y-97371992D01*
X106735081Y-97370228D01*
X106735079Y-97370228D01*
X106729911Y-97370165D01*
X106509091Y-97403955D01*
X106296756Y-97473357D01*
X106098607Y-97576507D01*
X106094474Y-97579610D01*
X106094471Y-97579612D01*
X106070247Y-97597800D01*
X105919965Y-97710635D01*
X105765629Y-97872138D01*
X105658201Y-98029621D01*
X105603293Y-98074621D01*
X105532768Y-98082792D01*
X105469021Y-98051538D01*
X105448324Y-98027054D01*
X105367822Y-97902617D01*
X105367820Y-97902614D01*
X105365014Y-97898277D01*
X105214670Y-97733051D01*
X105086406Y-97631754D01*
X105045345Y-97573837D01*
X105038500Y-97532873D01*
X105038500Y-94964500D01*
X105058502Y-94896379D01*
X105112158Y-94849886D01*
X105164500Y-94838500D01*
X105620700Y-94838500D01*
X105688821Y-94858502D01*
X105709796Y-94875405D01*
X106376473Y-95542083D01*
X106407210Y-95592242D01*
X106465473Y-95771556D01*
X106560960Y-95936944D01*
X106688747Y-96078866D01*
X106843248Y-96191118D01*
X106849276Y-96193802D01*
X106849278Y-96193803D01*
X107011681Y-96266109D01*
X107017712Y-96268794D01*
X107111113Y-96288647D01*
X107198056Y-96307128D01*
X107198061Y-96307128D01*
X107204513Y-96308500D01*
X107395487Y-96308500D01*
X107401939Y-96307128D01*
X107401944Y-96307128D01*
X107488888Y-96288647D01*
X107582288Y-96268794D01*
X107588319Y-96266109D01*
X107750722Y-96193803D01*
X107750724Y-96193802D01*
X107756752Y-96191118D01*
X107911253Y-96078866D01*
X108039040Y-95936944D01*
X108134527Y-95771556D01*
X108193542Y-95589928D01*
X108213504Y-95400000D01*
X108193542Y-95210072D01*
X108134527Y-95028444D01*
X108125193Y-95012276D01*
X108050742Y-94883325D01*
X108039040Y-94863056D01*
X107911253Y-94721134D01*
X107756752Y-94608882D01*
X107750724Y-94606198D01*
X107750722Y-94606197D01*
X107588319Y-94533891D01*
X107588318Y-94533891D01*
X107582288Y-94531206D01*
X107510249Y-94515893D01*
X107447352Y-94481742D01*
X106564963Y-93599353D01*
X106552576Y-93584940D01*
X106544168Y-93573515D01*
X106539827Y-93567616D01*
X106499843Y-93533647D01*
X106492327Y-93526717D01*
X106486691Y-93521081D01*
X106483815Y-93518806D01*
X106483811Y-93518802D01*
X106464564Y-93503574D01*
X106461165Y-93500787D01*
X106436433Y-93479776D01*
X106405922Y-93453855D01*
X106399403Y-93450526D01*
X106394438Y-93447215D01*
X106389378Y-93444090D01*
X106383639Y-93439549D01*
X106377012Y-93436452D01*
X106377009Y-93436450D01*
X106317949Y-93408848D01*
X106313997Y-93406916D01*
X106255955Y-93377278D01*
X106255953Y-93377277D01*
X106249437Y-93373950D01*
X106242329Y-93372211D01*
X106236767Y-93370142D01*
X106231093Y-93368254D01*
X106224461Y-93365155D01*
X106153492Y-93350394D01*
X106149233Y-93349430D01*
X106101787Y-93337820D01*
X106084216Y-93333520D01*
X106084214Y-93333520D01*
X106078768Y-93332187D01*
X106073171Y-93331840D01*
X106073166Y-93331839D01*
X106067694Y-93331500D01*
X106067696Y-93331467D01*
X106063609Y-93331222D01*
X106059602Y-93330864D01*
X106052437Y-93329374D01*
X105984132Y-93331222D01*
X105975557Y-93331454D01*
X105972149Y-93331500D01*
X104649300Y-93331500D01*
X104581179Y-93311498D01*
X104560205Y-93294595D01*
X103754154Y-92488544D01*
X103722627Y-92435868D01*
X103706916Y-92383831D01*
X103690748Y-92353423D01*
X103676429Y-92283885D01*
X103701977Y-92217645D01*
X103759282Y-92175732D01*
X103828197Y-92171023D01*
X103998056Y-92207128D01*
X103998061Y-92207128D01*
X104004513Y-92208500D01*
X104195487Y-92208500D01*
X104201939Y-92207128D01*
X104201944Y-92207128D01*
X104288888Y-92188647D01*
X104382288Y-92168794D01*
X104457342Y-92135378D01*
X104550722Y-92093803D01*
X104550724Y-92093802D01*
X104556752Y-92091118D01*
X104566350Y-92084145D01*
X104614783Y-92048956D01*
X104711253Y-91978866D01*
X104839040Y-91836944D01*
X104897314Y-91736010D01*
X104931223Y-91677279D01*
X104931224Y-91677278D01*
X104934527Y-91671556D01*
X104993542Y-91489928D01*
X105013504Y-91300000D01*
X104993542Y-91110072D01*
X104934527Y-90928444D01*
X104839040Y-90763056D01*
X104815383Y-90736782D01*
X104784666Y-90672774D01*
X104783020Y-90652472D01*
X104783020Y-86871085D01*
X104803022Y-86802964D01*
X104819925Y-86781989D01*
X105544521Y-86057394D01*
X105606833Y-86023369D01*
X105677649Y-86028434D01*
X105709183Y-86045666D01*
X105721350Y-86054785D01*
X105736946Y-86063324D01*
X105857394Y-86108478D01*
X105872649Y-86112105D01*
X105923514Y-86117631D01*
X105930328Y-86118000D01*
X106552885Y-86118000D01*
X106568124Y-86113525D01*
X106569329Y-86112135D01*
X106571000Y-86104452D01*
X106571000Y-86099884D01*
X107079000Y-86099884D01*
X107083475Y-86115123D01*
X107084865Y-86116328D01*
X107092548Y-86117999D01*
X107719669Y-86117999D01*
X107726490Y-86117629D01*
X107777352Y-86112105D01*
X107792604Y-86108479D01*
X107913054Y-86063324D01*
X107928649Y-86054786D01*
X108030724Y-85978285D01*
X108043285Y-85965724D01*
X108119786Y-85863649D01*
X108128324Y-85848054D01*
X108173478Y-85727606D01*
X108177105Y-85712351D01*
X108182631Y-85661486D01*
X108183000Y-85654672D01*
X108183000Y-85032115D01*
X108178525Y-85016876D01*
X108177135Y-85015671D01*
X108169452Y-85014000D01*
X107097115Y-85014000D01*
X107081876Y-85018475D01*
X107080671Y-85019865D01*
X107079000Y-85027548D01*
X107079000Y-86099884D01*
X106571000Y-86099884D01*
X106571000Y-84632000D01*
X106591002Y-84563879D01*
X106644658Y-84517386D01*
X106697000Y-84506000D01*
X108164884Y-84506000D01*
X108180123Y-84501525D01*
X108181328Y-84500135D01*
X108182999Y-84492452D01*
X108182999Y-83865331D01*
X108182629Y-83858510D01*
X108177105Y-83807648D01*
X108173479Y-83792396D01*
X108128324Y-83671946D01*
X108119786Y-83656351D01*
X108043285Y-83554276D01*
X108030724Y-83541715D01*
X107928649Y-83465214D01*
X107913054Y-83456676D01*
X107802813Y-83415348D01*
X107746049Y-83372706D01*
X107721349Y-83306145D01*
X107736557Y-83236796D01*
X107758104Y-83208115D01*
X107859430Y-83107144D01*
X107859440Y-83107132D01*
X107863096Y-83103489D01*
X107922594Y-83020689D01*
X107990435Y-82926277D01*
X107993453Y-82922077D01*
X108092430Y-82721811D01*
X108157370Y-82508069D01*
X108186529Y-82286590D01*
X108188156Y-82220000D01*
X108169852Y-81997361D01*
X108115431Y-81780702D01*
X108026354Y-81575840D01*
X107905014Y-81388277D01*
X107754670Y-81223051D01*
X107750619Y-81219852D01*
X107750615Y-81219848D01*
X107583414Y-81087800D01*
X107583410Y-81087798D01*
X107579359Y-81084598D01*
X107383789Y-80976638D01*
X107378920Y-80974914D01*
X107378916Y-80974912D01*
X107178087Y-80903795D01*
X107178083Y-80903794D01*
X107173212Y-80902069D01*
X107168119Y-80901162D01*
X107168116Y-80901161D01*
X106958373Y-80863800D01*
X106958367Y-80863799D01*
X106953284Y-80862894D01*
X106879452Y-80861992D01*
X106735081Y-80860228D01*
X106735079Y-80860228D01*
X106729911Y-80860165D01*
X106509091Y-80893955D01*
X106296756Y-80963357D01*
X106098607Y-81066507D01*
X106094474Y-81069610D01*
X106094471Y-81069612D01*
X106070247Y-81087800D01*
X105919965Y-81200635D01*
X105765629Y-81362138D01*
X105658201Y-81519621D01*
X105603293Y-81564621D01*
X105532768Y-81572792D01*
X105469021Y-81541538D01*
X105448324Y-81517054D01*
X105367822Y-81392617D01*
X105367820Y-81392614D01*
X105365014Y-81388277D01*
X105214670Y-81223051D01*
X105210619Y-81219852D01*
X105210615Y-81219848D01*
X105043414Y-81087800D01*
X105043410Y-81087798D01*
X105039359Y-81084598D01*
X104843789Y-80976638D01*
X104838920Y-80974914D01*
X104838916Y-80974912D01*
X104638087Y-80903795D01*
X104638083Y-80903794D01*
X104633212Y-80902069D01*
X104628119Y-80901162D01*
X104628116Y-80901161D01*
X104418373Y-80863800D01*
X104418367Y-80863799D01*
X104413284Y-80862894D01*
X104339452Y-80861992D01*
X104195081Y-80860228D01*
X104195079Y-80860228D01*
X104189911Y-80860165D01*
X103969091Y-80893955D01*
X103756756Y-80963357D01*
X103558607Y-81066507D01*
X103554474Y-81069610D01*
X103554471Y-81069612D01*
X103530247Y-81087800D01*
X103379965Y-81200635D01*
X103225629Y-81362138D01*
X103099743Y-81546680D01*
X103005688Y-81749305D01*
X102945989Y-81964570D01*
X102922251Y-82186695D01*
X102922548Y-82191848D01*
X102922548Y-82191851D01*
X102928011Y-82286590D01*
X102935110Y-82409715D01*
X102936247Y-82414761D01*
X102936248Y-82414767D01*
X102956119Y-82502939D01*
X102984222Y-82627639D01*
X103068266Y-82834616D01*
X103184987Y-83025088D01*
X103331250Y-83193938D01*
X103503126Y-83336632D01*
X103564860Y-83372706D01*
X103576445Y-83379476D01*
X103625169Y-83431114D01*
X103638240Y-83500897D01*
X103611509Y-83566669D01*
X103571055Y-83600027D01*
X103558607Y-83606507D01*
X103554474Y-83609610D01*
X103554471Y-83609612D01*
X103471450Y-83671946D01*
X103379965Y-83740635D01*
X103225629Y-83902138D01*
X103099743Y-84086680D01*
X103005688Y-84289305D01*
X102945989Y-84504570D01*
X102922251Y-84726695D01*
X102935110Y-84949715D01*
X102936247Y-84954761D01*
X102936248Y-84954767D01*
X102950606Y-85018475D01*
X102984222Y-85167639D01*
X103048740Y-85326529D01*
X103057243Y-85347470D01*
X103066500Y-85394874D01*
X103066500Y-87892959D01*
X103046498Y-87961080D01*
X103034734Y-87972674D01*
X103024000Y-87995299D01*
X103024000Y-89088000D01*
X103003998Y-89156121D01*
X102950342Y-89202614D01*
X102898000Y-89214000D01*
X102642000Y-89214000D01*
X102573879Y-89193998D01*
X102527386Y-89140342D01*
X102516000Y-89088000D01*
X102516000Y-88002076D01*
X102512027Y-87988545D01*
X102504232Y-87987425D01*
X102396479Y-88019138D01*
X102385111Y-88023731D01*
X102220846Y-88109607D01*
X102205426Y-88119697D01*
X102204003Y-88117522D01*
X102148864Y-88140314D01*
X102079005Y-88127657D01*
X102069055Y-88121839D01*
X102066675Y-88119870D01*
X101892701Y-88025802D01*
X101703768Y-87967318D01*
X101697643Y-87966674D01*
X101697642Y-87966674D01*
X101513204Y-87947289D01*
X101513202Y-87947289D01*
X101507075Y-87946645D01*
X101424576Y-87954153D01*
X101316251Y-87964011D01*
X101316248Y-87964012D01*
X101310112Y-87964570D01*
X101304206Y-87966308D01*
X101304202Y-87966309D01*
X101205702Y-87995299D01*
X101120381Y-88020410D01*
X101114923Y-88023263D01*
X101114919Y-88023265D01*
X101024147Y-88070720D01*
X100945110Y-88112040D01*
X100790975Y-88235968D01*
X100787011Y-88240692D01*
X100730521Y-88308014D01*
X100671412Y-88347341D01*
X100600424Y-88348467D01*
X100540097Y-88311036D01*
X100509583Y-88246931D01*
X100508000Y-88227023D01*
X100508000Y-81049327D01*
X100509499Y-81029948D01*
X100510446Y-81023864D01*
X100540687Y-80959630D01*
X100545852Y-80954148D01*
X100955095Y-80544905D01*
X101017407Y-80510879D01*
X101044190Y-80508000D01*
X108950670Y-80508000D01*
X108970055Y-80509500D01*
G37*
G04 #@! TD.AperFunction*
G04 #@! TA.AperFunction,Conductor*
G36*
X101696121Y-108266002D02*
G01*
X101742614Y-108319658D01*
X101754000Y-108372000D01*
X101754000Y-109898000D01*
X101733998Y-109966121D01*
X101680342Y-110012614D01*
X101628000Y-110024000D01*
X101372000Y-110024000D01*
X101303879Y-110003998D01*
X101257386Y-109950342D01*
X101246000Y-109898000D01*
X101246000Y-108372000D01*
X101266002Y-108303879D01*
X101319658Y-108257386D01*
X101372000Y-108246000D01*
X101628000Y-108246000D01*
X101696121Y-108266002D01*
G37*
G04 #@! TD.AperFunction*
G04 #@! TA.AperFunction,Conductor*
G36*
X100716512Y-100112870D02*
G01*
X100723095Y-100118999D01*
X101929595Y-101325499D01*
X101963621Y-101387811D01*
X101966500Y-101414594D01*
X101966500Y-101439856D01*
X101966997Y-101443790D01*
X101966997Y-101443791D01*
X101967005Y-101443856D01*
X101967938Y-101455693D01*
X101969327Y-101499889D01*
X101974978Y-101519339D01*
X101978987Y-101538700D01*
X101981526Y-101558797D01*
X101984445Y-101566168D01*
X101984445Y-101566170D01*
X101997804Y-101599912D01*
X102001649Y-101611142D01*
X102013982Y-101653593D01*
X102018015Y-101660412D01*
X102018017Y-101660417D01*
X102024293Y-101671028D01*
X102032988Y-101688776D01*
X102040448Y-101707617D01*
X102045110Y-101714033D01*
X102045110Y-101714034D01*
X102066436Y-101743387D01*
X102072952Y-101753307D01*
X102086702Y-101776556D01*
X102095458Y-101791362D01*
X102109779Y-101805683D01*
X102122619Y-101820716D01*
X102134528Y-101837107D01*
X102140634Y-101842158D01*
X102168605Y-101865298D01*
X102177384Y-101873288D01*
X103165075Y-102860979D01*
X103199101Y-102923291D01*
X103201980Y-102950074D01*
X103201980Y-104867059D01*
X103181978Y-104935180D01*
X103128322Y-104981673D01*
X103058048Y-104991777D01*
X103038721Y-104987424D01*
X103020142Y-104981673D01*
X102973768Y-104967318D01*
X102967643Y-104966674D01*
X102967642Y-104966674D01*
X102783204Y-104947289D01*
X102783202Y-104947289D01*
X102777075Y-104946645D01*
X102694576Y-104954153D01*
X102586251Y-104964011D01*
X102586248Y-104964012D01*
X102580112Y-104964570D01*
X102574206Y-104966308D01*
X102574202Y-104966309D01*
X102497954Y-104988750D01*
X102390381Y-105020410D01*
X102384923Y-105023263D01*
X102384919Y-105023265D01*
X102289135Y-105073340D01*
X102215110Y-105112040D01*
X102210310Y-105115900D01*
X102205153Y-105119274D01*
X102203849Y-105117281D01*
X102147977Y-105140354D01*
X102078122Y-105127674D01*
X102064186Y-105119522D01*
X102060980Y-105117360D01*
X101897924Y-105029196D01*
X101886619Y-105024444D01*
X101771308Y-104988750D01*
X101757205Y-104988544D01*
X101754000Y-104995299D01*
X101754000Y-106088000D01*
X101733998Y-106156121D01*
X101680342Y-106202614D01*
X101628000Y-106214000D01*
X101372000Y-106214000D01*
X101303879Y-106193998D01*
X101257386Y-106140342D01*
X101246000Y-106088000D01*
X101246000Y-105002076D01*
X101242027Y-104988545D01*
X101234232Y-104987425D01*
X101126479Y-105019138D01*
X101115111Y-105023731D01*
X100950846Y-105109607D01*
X100940585Y-105116321D01*
X100796127Y-105232468D01*
X100787368Y-105241046D01*
X100730522Y-105308792D01*
X100671412Y-105348119D01*
X100600425Y-105349245D01*
X100540097Y-105311814D01*
X100509583Y-105247710D01*
X100508000Y-105227801D01*
X100508000Y-100208094D01*
X100528002Y-100139973D01*
X100581658Y-100093480D01*
X100651932Y-100083376D01*
X100716512Y-100112870D01*
G37*
G04 #@! TD.AperFunction*
G04 #@! TA.AperFunction,Conductor*
G36*
X102936322Y-93806002D02*
G01*
X102957296Y-93822905D01*
X102987095Y-93852704D01*
X103021121Y-93915016D01*
X103024000Y-93941799D01*
X103024000Y-94997564D01*
X103027973Y-95011095D01*
X103036188Y-95012276D01*
X103130337Y-94985989D01*
X103141787Y-94981548D01*
X103307226Y-94897979D01*
X103317580Y-94891407D01*
X103327925Y-94883325D01*
X103393919Y-94857146D01*
X103463590Y-94870802D01*
X103514817Y-94919958D01*
X103531500Y-94982613D01*
X103531500Y-97533901D01*
X103511498Y-97602022D01*
X103481154Y-97634660D01*
X103379965Y-97710635D01*
X103225629Y-97872138D01*
X103099743Y-98056680D01*
X103005688Y-98259305D01*
X102973217Y-98376391D01*
X102961017Y-98420382D01*
X102923538Y-98480679D01*
X102859409Y-98511142D01*
X102788991Y-98502098D01*
X102765541Y-98488645D01*
X102714252Y-98451382D01*
X102708224Y-98448698D01*
X102708222Y-98448697D01*
X102545819Y-98376391D01*
X102545818Y-98376391D01*
X102539788Y-98373706D01*
X102446387Y-98353853D01*
X102359444Y-98335372D01*
X102359439Y-98335372D01*
X102352987Y-98334000D01*
X102162013Y-98334000D01*
X102155561Y-98335372D01*
X102155556Y-98335372D01*
X102068612Y-98353853D01*
X101975212Y-98373706D01*
X101969182Y-98376391D01*
X101969181Y-98376391D01*
X101806778Y-98448697D01*
X101806776Y-98448698D01*
X101800748Y-98451382D01*
X101795407Y-98455262D01*
X101795406Y-98455263D01*
X101760424Y-98480679D01*
X101646247Y-98563634D01*
X101641826Y-98568544D01*
X101641825Y-98568545D01*
X101528625Y-98694267D01*
X101468179Y-98731507D01*
X101397196Y-98730155D01*
X101338211Y-98690642D01*
X101309953Y-98625511D01*
X101308989Y-98609957D01*
X101308989Y-95174500D01*
X101328991Y-95106379D01*
X101382647Y-95059886D01*
X101434989Y-95048500D01*
X102048134Y-95048500D01*
X102110316Y-95041745D01*
X102246705Y-94990615D01*
X102253892Y-94985229D01*
X102261760Y-94980921D01*
X102262891Y-94982987D01*
X102317418Y-94962618D01*
X102365408Y-94968459D01*
X102498769Y-95011790D01*
X102512867Y-95012193D01*
X102516000Y-95005821D01*
X102516000Y-93912000D01*
X102536002Y-93843879D01*
X102589658Y-93797386D01*
X102642000Y-93786000D01*
X102868201Y-93786000D01*
X102936322Y-93806002D01*
G37*
G04 #@! TD.AperFunction*
G04 #@! TD*
M02*
