M48
; DRILL file {KiCad (6.0.0-0)} date 2022 January 14, Friday 21:33:23
; FORMAT={-:-/ absolute / metric / decimal}
; #@! TF.CreationDate,2022-01-14T21:33:23+01:00
; #@! TF.GenerationSoftware,Kicad,Pcbnew,(6.0.0-0)
; #@! TF.FileFunction,MixedPlating,1,2
FMAT,2
METRIC
; #@! TA.AperFunction,Plated,PTH,ViaDrill
T1C0.400
; #@! TA.AperFunction,Plated,PTH,ComponentDrill
T2C0.700
; #@! TA.AperFunction,Plated,PTH,ComponentDrill
T3C1.000
%
G90
G05
T1
X102.257Y-99.242
X102.7Y-104.5
X104.1Y-91.3
X104.4Y-108.9
X105.1Y-90.4
X105.1Y-108.0
X105.5Y-96.3
X105.6Y-104.9
X106.55Y-103.95
X107.124Y-106.4
X107.3Y-95.4
T2
X101.5Y-88.96
X101.5Y-90.23
X101.5Y-91.5
X101.5Y-92.77
X101.5Y-94.04
X101.5Y-105.96
X101.5Y-107.23
X101.5Y-108.5
X101.5Y-109.77
X101.5Y-111.04
X102.77Y-88.96
X102.77Y-90.23
X102.77Y-91.5
X102.77Y-92.77
X102.77Y-94.04
X102.77Y-105.96
X102.77Y-107.23
X102.77Y-108.5
X102.77Y-109.77
X102.77Y-111.04
T3
X104.285Y-82.22
X104.285Y-84.76
X104.285Y-98.73
X104.285Y-101.27
X104.285Y-115.24
X104.285Y-117.78
X106.825Y-82.22
X106.825Y-84.76
X106.825Y-98.73
X106.825Y-101.27
X106.825Y-115.24
X106.825Y-117.78
T0
M30
