M48
; DRILL file {KiCad (6.0.2-0)} date Tuesday, 21 June 2022 at 16:35:04
; FORMAT={-:-/ absolute / metric / decimal}
; #@! TF.CreationDate,2022-06-21T16:35:04+02:00
; #@! TF.GenerationSoftware,Kicad,Pcbnew,(6.0.2-0)
; #@! TF.FileFunction,MixedPlating,1,2
FMAT,2
METRIC
; #@! TA.AperFunction,Plated,PTH,ViaDrill
T1C0.400
; #@! TA.AperFunction,Plated,PTH,ComponentDrill
T2C0.700
; #@! TA.AperFunction,Plated,PTH,ComponentDrill
T3C1.000
%
G90
G05
T1
X93.6Y-88.0
X94.1Y-95.8
X96.7Y-96.9
X96.829Y-91.325
X96.895Y-100.82
X96.9Y-113.8
X96.9Y-117.3
X96.903Y-94.103
X97.1Y-82.6
X97.1Y-86.3
X97.74Y-102.56
X98.127Y-94.927
X98.4Y-110.8
X98.7Y-98.2
X99.4Y-99.2
X100.359Y-86.341
X101.6Y-99.2
X102.075Y-114.882
X103.075Y-114.907
X103.4Y-107.775
X104.2Y-114.9
X104.3Y-105.9
X104.5Y-112.4
X104.849Y-108.5
X104.875Y-99.371
X105.5Y-96.58
X105.5Y-109.3
X105.548Y-106.552
X107.5Y-116.3
X113.6Y-88.2
X114.1Y-118.9
X115.0Y-111.3
X115.08Y-116.191
X116.9Y-106.2
X118.295Y-82.705
X118.4Y-103.556
X118.6Y-94.3
X119.6Y-93.59
X119.9Y-98.0
X120.1Y-99.9
X120.2Y-118.5
X120.3Y-91.8
X120.3Y-105.0
X120.5Y-92.8
X123.7Y-105.1
X124.2Y-109.5
X124.4Y-116.4
X124.5Y-112.761
X124.555Y-114.9
X126.4Y-101.3
X126.4Y-115.6
X126.6Y-109.7
X126.6Y-113.1
X127.274Y-97.0
X127.9Y-96.124
X128.0Y-118.255
X129.7Y-100.7
X129.7Y-102.9
X129.7Y-104.8
X130.3Y-87.2
X134.3Y-107.7
X135.2Y-105.956
X135.6Y-108.6
X136.2Y-109.6
X137.8Y-111.0
X139.0Y-105.7
X139.2Y-87.7
X139.374Y-102.964
X139.9Y-114.1
X141.1Y-100.2
X141.4Y-93.7
X141.4Y-98.3
X142.8Y-87.7
X144.2Y-97.8
X144.5Y-95.024
X148.1Y-98.675
X148.5Y-104.0
X148.5Y-111.0
X149.6Y-108.6
X149.9Y-113.5
X150.1Y-107.5
X150.5Y-104.7
X150.7Y-87.5
X155.8Y-87.3
X157.4Y-81.7
X157.7Y-103.4
T2
X101.0Y-88.96
X101.0Y-90.23
X101.0Y-91.5
X101.0Y-92.77
X101.0Y-94.04
X101.0Y-105.96
X101.0Y-107.23
X101.0Y-108.5
X101.0Y-109.77
X101.0Y-111.04
X102.27Y-88.96
X102.27Y-90.23
X102.27Y-91.5
X102.27Y-92.77
X102.27Y-94.04
X102.27Y-105.96
X102.27Y-107.23
X102.27Y-108.5
X102.27Y-109.77
X102.27Y-111.04
T3
X91.785Y-82.22
X91.785Y-84.76
X91.785Y-98.73
X91.785Y-101.27
X91.785Y-115.24
X91.785Y-117.78
X92.3Y-105.6
X92.3Y-109.4
X94.3Y-90.1
X94.3Y-92.64
X94.325Y-82.22
X94.325Y-84.76
X94.325Y-98.73
X94.325Y-101.27
X94.325Y-115.24
X94.325Y-117.78
X94.84Y-105.6
X94.84Y-109.4
X108.73Y-84.0
X110.0Y-91.5
X110.0Y-94.04
X110.0Y-96.58
X110.0Y-99.12
X110.0Y-101.66
X110.0Y-104.2
X110.0Y-106.74
X110.0Y-109.28
X110.0Y-111.82
X110.0Y-114.36
X111.27Y-84.0
X112.54Y-91.5
X112.54Y-94.04
X112.54Y-96.58
X112.54Y-99.12
X112.54Y-101.66
X112.54Y-104.2
X112.54Y-106.74
X112.54Y-109.28
X112.54Y-111.82
X112.54Y-114.36
X113.81Y-84.0
X120.73Y-84.0
X122.0Y-91.5
X122.0Y-94.04
X122.0Y-96.58
X122.0Y-101.66
X123.27Y-84.0
X124.54Y-91.5
X124.54Y-94.04
X124.54Y-96.58
X124.54Y-99.12
X124.54Y-101.66
X125.81Y-84.0
X132.73Y-84.0
X134.0Y-91.5
X134.0Y-94.04
X134.0Y-96.58
X134.0Y-101.66
X135.27Y-84.0
X136.54Y-91.5
X136.54Y-94.04
X136.54Y-96.58
X136.54Y-99.12
X136.54Y-101.66
X137.81Y-84.0
X138.0Y-112.72
X138.0Y-115.26
X138.0Y-117.8
X144.73Y-84.0
X146.0Y-91.5
X146.0Y-94.04
X146.0Y-96.58
X147.27Y-84.0
X148.54Y-91.5
X148.54Y-94.04
X148.54Y-96.58
X149.81Y-84.0
X158.0Y-91.5
X158.0Y-94.04
X158.0Y-96.58
X158.0Y-99.12
X158.0Y-115.26
X158.0Y-117.8
T0
M30
