G04 #@! TF.GenerationSoftware,KiCad,Pcbnew,(6.0.2-0)*
G04 #@! TF.CreationDate,2022-06-21T16:35:03+02:00*
G04 #@! TF.ProjectId,ATMEL-ICE-Octopus,41544d45-4c2d-4494-9345-2d4f63746f70,A1*
G04 #@! TF.SameCoordinates,Original*
G04 #@! TF.FileFunction,Legend,Bot*
G04 #@! TF.FilePolarity,Positive*
%FSLAX46Y46*%
G04 Gerber Fmt 4.6, Leading zero omitted, Abs format (unit mm)*
G04 Created by KiCad (PCBNEW (6.0.2-0)) date 2022-06-21 16:35:03*
%MOMM*%
%LPD*%
G01*
G04 APERTURE LIST*
G04 Aperture macros list*
%AMRoundRect*
0 Rectangle with rounded corners*
0 $1 Rounding radius*
0 $2 $3 $4 $5 $6 $7 $8 $9 X,Y pos of 4 corners*
0 Add a 4 corners polygon primitive as box body*
4,1,4,$2,$3,$4,$5,$6,$7,$8,$9,$2,$3,0*
0 Add four circle primitives for the rounded corners*
1,1,$1+$1,$2,$3*
1,1,$1+$1,$4,$5*
1,1,$1+$1,$6,$7*
1,1,$1+$1,$8,$9*
0 Add four rect primitives between the rounded corners*
20,1,$1+$1,$2,$3,$4,$5,0*
20,1,$1+$1,$4,$5,$6,$7,0*
20,1,$1+$1,$6,$7,$8,$9,0*
20,1,$1+$1,$8,$9,$2,$3,0*%
G04 Aperture macros list end*
%ADD10C,0.200000*%
%ADD11C,0.180000*%
%ADD12C,0.150000*%
%ADD13C,0.120000*%
%ADD14R,1.700000X1.700000*%
%ADD15O,1.700000X1.700000*%
%ADD16R,1.000000X1.000000*%
%ADD17O,1.000000X1.000000*%
%ADD18RoundRect,0.250000X-0.600000X-0.600000X0.600000X-0.600000X0.600000X0.600000X-0.600000X0.600000X0*%
%ADD19C,1.700000*%
%ADD20RoundRect,0.250000X-0.350000X-0.450000X0.350000X-0.450000X0.350000X0.450000X-0.350000X0.450000X0*%
%ADD21RoundRect,0.150000X-0.975000X-0.150000X0.975000X-0.150000X0.975000X0.150000X-0.975000X0.150000X0*%
%ADD22RoundRect,0.150000X-0.587500X-0.150000X0.587500X-0.150000X0.587500X0.150000X-0.587500X0.150000X0*%
%ADD23RoundRect,0.250000X-0.450000X0.350000X-0.450000X-0.350000X0.450000X-0.350000X0.450000X0.350000X0*%
%ADD24R,2.300000X1.700000*%
%ADD25RoundRect,0.250000X0.350000X0.450000X-0.350000X0.450000X-0.350000X-0.450000X0.350000X-0.450000X0*%
G04 APERTURE END LIST*
D10*
X98238571Y-87108571D02*
X98238571Y-86489523D01*
X96738571Y-86489523D01*
X98238571Y-87541904D02*
X97238571Y-87541904D01*
X96738571Y-87541904D02*
X96810000Y-87480000D01*
X96881428Y-87541904D01*
X96810000Y-87603809D01*
X96738571Y-87541904D01*
X96881428Y-87541904D01*
X98167142Y-88718095D02*
X98238571Y-88594285D01*
X98238571Y-88346666D01*
X98167142Y-88222857D01*
X98095714Y-88160952D01*
X97952857Y-88099047D01*
X97524285Y-88099047D01*
X97381428Y-88160952D01*
X97310000Y-88222857D01*
X97238571Y-88346666D01*
X97238571Y-88594285D01*
X97310000Y-88718095D01*
X98167142Y-89770476D02*
X98238571Y-89646666D01*
X98238571Y-89399047D01*
X98167142Y-89275238D01*
X98024285Y-89213333D01*
X97452857Y-89213333D01*
X97310000Y-89275238D01*
X97238571Y-89399047D01*
X97238571Y-89646666D01*
X97310000Y-89770476D01*
X97452857Y-89832380D01*
X97595714Y-89832380D01*
X97738571Y-89213333D01*
X97238571Y-90389523D02*
X98238571Y-90389523D01*
X97381428Y-90389523D02*
X97310000Y-90451428D01*
X97238571Y-90575238D01*
X97238571Y-90760952D01*
X97310000Y-90884761D01*
X97452857Y-90946666D01*
X98238571Y-90946666D01*
X98167142Y-91503809D02*
X98238571Y-91627619D01*
X98238571Y-91875238D01*
X98167142Y-91999047D01*
X98024285Y-92060952D01*
X97952857Y-92060952D01*
X97810000Y-91999047D01*
X97738571Y-91875238D01*
X97738571Y-91689523D01*
X97667142Y-91565714D01*
X97524285Y-91503809D01*
X97452857Y-91503809D01*
X97310000Y-91565714D01*
X97238571Y-91689523D01*
X97238571Y-91875238D01*
X97310000Y-91999047D01*
X98167142Y-93113333D02*
X98238571Y-92989523D01*
X98238571Y-92741904D01*
X98167142Y-92618095D01*
X98024285Y-92556190D01*
X97452857Y-92556190D01*
X97310000Y-92618095D01*
X97238571Y-92741904D01*
X97238571Y-92989523D01*
X97310000Y-93113333D01*
X97452857Y-93175238D01*
X97595714Y-93175238D01*
X97738571Y-92556190D01*
X98238571Y-94289523D02*
X96738571Y-94289523D01*
X98167142Y-94289523D02*
X98238571Y-94165714D01*
X98238571Y-93918095D01*
X98167142Y-93794285D01*
X98095714Y-93732380D01*
X97952857Y-93670476D01*
X97524285Y-93670476D01*
X97381428Y-93732380D01*
X97310000Y-93794285D01*
X97238571Y-93918095D01*
X97238571Y-94165714D01*
X97310000Y-94289523D01*
X97238571Y-96456190D02*
X98238571Y-96456190D01*
X97238571Y-95899047D02*
X98024285Y-95899047D01*
X98167142Y-95960952D01*
X98238571Y-96084761D01*
X98238571Y-96270476D01*
X98167142Y-96394285D01*
X98095714Y-96456190D01*
X97238571Y-97075238D02*
X98238571Y-97075238D01*
X97381428Y-97075238D02*
X97310000Y-97137142D01*
X97238571Y-97260952D01*
X97238571Y-97446666D01*
X97310000Y-97570476D01*
X97452857Y-97632380D01*
X98238571Y-97632380D01*
X98238571Y-98808571D02*
X96738571Y-98808571D01*
X98167142Y-98808571D02*
X98238571Y-98684761D01*
X98238571Y-98437142D01*
X98167142Y-98313333D01*
X98095714Y-98251428D01*
X97952857Y-98189523D01*
X97524285Y-98189523D01*
X97381428Y-98251428D01*
X97310000Y-98313333D01*
X97238571Y-98437142D01*
X97238571Y-98684761D01*
X97310000Y-98808571D01*
X98167142Y-99922857D02*
X98238571Y-99799047D01*
X98238571Y-99551428D01*
X98167142Y-99427619D01*
X98024285Y-99365714D01*
X97452857Y-99365714D01*
X97310000Y-99427619D01*
X97238571Y-99551428D01*
X97238571Y-99799047D01*
X97310000Y-99922857D01*
X97452857Y-99984761D01*
X97595714Y-99984761D01*
X97738571Y-99365714D01*
X98238571Y-100541904D02*
X97238571Y-100541904D01*
X97524285Y-100541904D02*
X97381428Y-100603809D01*
X97310000Y-100665714D01*
X97238571Y-100789523D01*
X97238571Y-100913333D01*
X98095714Y-103080000D02*
X98167142Y-103018095D01*
X98238571Y-102832380D01*
X98238571Y-102708571D01*
X98167142Y-102522857D01*
X98024285Y-102399047D01*
X97881428Y-102337142D01*
X97595714Y-102275238D01*
X97381428Y-102275238D01*
X97095714Y-102337142D01*
X96952857Y-102399047D01*
X96810000Y-102522857D01*
X96738571Y-102708571D01*
X96738571Y-102832380D01*
X96810000Y-103018095D01*
X96881428Y-103080000D01*
X97452857Y-103637142D02*
X97452857Y-104070476D01*
X98238571Y-104256190D02*
X98238571Y-103637142D01*
X96738571Y-103637142D01*
X96738571Y-104256190D01*
X98238571Y-105556190D02*
X97524285Y-105122857D01*
X98238571Y-104813333D02*
X96738571Y-104813333D01*
X96738571Y-105308571D01*
X96810000Y-105432380D01*
X96881428Y-105494285D01*
X97024285Y-105556190D01*
X97238571Y-105556190D01*
X97381428Y-105494285D01*
X97452857Y-105432380D01*
X97524285Y-105308571D01*
X97524285Y-104813333D01*
X98238571Y-106113333D02*
X96738571Y-106113333D01*
X98238571Y-106856190D01*
X96738571Y-106856190D01*
X97667142Y-107475238D02*
X97667142Y-108465714D01*
X96738571Y-109332380D02*
X96738571Y-109580000D01*
X96810000Y-109703809D01*
X96952857Y-109827619D01*
X97238571Y-109889523D01*
X97738571Y-109889523D01*
X98024285Y-109827619D01*
X98167142Y-109703809D01*
X98238571Y-109580000D01*
X98238571Y-109332380D01*
X98167142Y-109208571D01*
X98024285Y-109084761D01*
X97738571Y-109022857D01*
X97238571Y-109022857D01*
X96952857Y-109084761D01*
X96810000Y-109208571D01*
X96738571Y-109332380D01*
X98238571Y-110446666D02*
X96738571Y-110446666D01*
X97452857Y-110446666D02*
X97452857Y-111189523D01*
X98238571Y-111189523D02*
X96738571Y-111189523D01*
X98238571Y-112427619D02*
X98238571Y-111808571D01*
X96738571Y-111808571D01*
X97667142Y-112860952D02*
X97667142Y-113851428D01*
X96738571Y-114346666D02*
X98238571Y-114656190D01*
X97167142Y-114903809D01*
X98238571Y-115151428D01*
X96738571Y-115460952D01*
X97238571Y-116822857D02*
X98238571Y-117132380D01*
X97238571Y-117441904D01*
X96881428Y-117875238D02*
X96810000Y-117937142D01*
X96738571Y-118060952D01*
X96738571Y-118370476D01*
X96810000Y-118494285D01*
X96881428Y-118556190D01*
X97024285Y-118618095D01*
X97167142Y-118618095D01*
X97381428Y-118556190D01*
X98238571Y-117813333D01*
X98238571Y-118618095D01*
D11*
X103759857Y-84588095D02*
X103759857Y-83721428D01*
X103759857Y-83969047D02*
X103697952Y-83845238D01*
X103636047Y-83783333D01*
X103512238Y-83721428D01*
X103388428Y-83721428D01*
X102459857Y-84526190D02*
X102583666Y-84588095D01*
X102831285Y-84588095D01*
X102955095Y-84526190D01*
X103017000Y-84402380D01*
X103017000Y-83907142D01*
X102955095Y-83783333D01*
X102831285Y-83721428D01*
X102583666Y-83721428D01*
X102459857Y-83783333D01*
X102397952Y-83907142D01*
X102397952Y-84030952D01*
X103017000Y-84154761D01*
X101964619Y-83721428D02*
X101655095Y-84588095D01*
X101345571Y-83721428D01*
X99921761Y-84216666D02*
X99302714Y-84216666D01*
X100045571Y-84588095D02*
X99612238Y-83288095D01*
X99178904Y-84588095D01*
X98064619Y-84588095D02*
X98807476Y-84588095D01*
X98436047Y-84588095D02*
X98436047Y-83288095D01*
X98559857Y-83473809D01*
X98683666Y-83597619D01*
X98807476Y-83659523D01*
D10*
X117222380Y-81950000D02*
X116603333Y-81950000D01*
X117346190Y-82378571D02*
X116912857Y-80878571D01*
X116479523Y-82378571D01*
X116231904Y-80878571D02*
X115489047Y-80878571D01*
X115860476Y-82378571D02*
X115860476Y-80878571D01*
X115055714Y-82378571D02*
X115055714Y-80878571D01*
X114622380Y-81950000D01*
X114189047Y-80878571D01*
X114189047Y-82378571D01*
X113570000Y-81592857D02*
X113136666Y-81592857D01*
X112950952Y-82378571D02*
X113570000Y-82378571D01*
X113570000Y-80878571D01*
X112950952Y-80878571D01*
X111774761Y-82378571D02*
X112393809Y-82378571D01*
X112393809Y-80878571D01*
X111341428Y-81807142D02*
X110350952Y-81807142D01*
X109731904Y-82378571D02*
X109731904Y-80878571D01*
X108370000Y-82235714D02*
X108431904Y-82307142D01*
X108617619Y-82378571D01*
X108741428Y-82378571D01*
X108927142Y-82307142D01*
X109050952Y-82164285D01*
X109112857Y-82021428D01*
X109174761Y-81735714D01*
X109174761Y-81521428D01*
X109112857Y-81235714D01*
X109050952Y-81092857D01*
X108927142Y-80950000D01*
X108741428Y-80878571D01*
X108617619Y-80878571D01*
X108431904Y-80950000D01*
X108370000Y-81021428D01*
X107812857Y-81592857D02*
X107379523Y-81592857D01*
X107193809Y-82378571D02*
X107812857Y-82378571D01*
X107812857Y-80878571D01*
X107193809Y-80878571D01*
X106636666Y-81807142D02*
X105646190Y-81807142D01*
X104779523Y-80878571D02*
X104531904Y-80878571D01*
X104408095Y-80950000D01*
X104284285Y-81092857D01*
X104222380Y-81378571D01*
X104222380Y-81878571D01*
X104284285Y-82164285D01*
X104408095Y-82307142D01*
X104531904Y-82378571D01*
X104779523Y-82378571D01*
X104903333Y-82307142D01*
X105027142Y-82164285D01*
X105089047Y-81878571D01*
X105089047Y-81378571D01*
X105027142Y-81092857D01*
X104903333Y-80950000D01*
X104779523Y-80878571D01*
X103108095Y-82307142D02*
X103231904Y-82378571D01*
X103479523Y-82378571D01*
X103603333Y-82307142D01*
X103665238Y-82235714D01*
X103727142Y-82092857D01*
X103727142Y-81664285D01*
X103665238Y-81521428D01*
X103603333Y-81450000D01*
X103479523Y-81378571D01*
X103231904Y-81378571D01*
X103108095Y-81450000D01*
X102736666Y-81378571D02*
X102241428Y-81378571D01*
X102550952Y-80878571D02*
X102550952Y-82164285D01*
X102489047Y-82307142D01*
X102365238Y-82378571D01*
X102241428Y-82378571D01*
X101622380Y-82378571D02*
X101746190Y-82307142D01*
X101808095Y-82235714D01*
X101870000Y-82092857D01*
X101870000Y-81664285D01*
X101808095Y-81521428D01*
X101746190Y-81450000D01*
X101622380Y-81378571D01*
X101436666Y-81378571D01*
X101312857Y-81450000D01*
X101250952Y-81521428D01*
X101189047Y-81664285D01*
X101189047Y-82092857D01*
X101250952Y-82235714D01*
X101312857Y-82307142D01*
X101436666Y-82378571D01*
X101622380Y-82378571D01*
X100631904Y-81378571D02*
X100631904Y-82878571D01*
X100631904Y-81450000D02*
X100508095Y-81378571D01*
X100260476Y-81378571D01*
X100136666Y-81450000D01*
X100074761Y-81521428D01*
X100012857Y-81664285D01*
X100012857Y-82092857D01*
X100074761Y-82235714D01*
X100136666Y-82307142D01*
X100260476Y-82378571D01*
X100508095Y-82378571D01*
X100631904Y-82307142D01*
X98898571Y-81378571D02*
X98898571Y-82378571D01*
X99455714Y-81378571D02*
X99455714Y-82164285D01*
X99393809Y-82307142D01*
X99270000Y-82378571D01*
X99084285Y-82378571D01*
X98960476Y-82307142D01*
X98898571Y-82235714D01*
X98341428Y-82307142D02*
X98217619Y-82378571D01*
X97970000Y-82378571D01*
X97846190Y-82307142D01*
X97784285Y-82164285D01*
X97784285Y-82092857D01*
X97846190Y-81950000D01*
X97970000Y-81878571D01*
X98155714Y-81878571D01*
X98279523Y-81807142D01*
X98341428Y-81664285D01*
X98341428Y-81592857D01*
X98279523Y-81450000D01*
X98155714Y-81378571D01*
X97970000Y-81378571D01*
X97846190Y-81450000D01*
D12*
G04 #@! TO.C,J1*
X102033333Y-103652380D02*
X102033333Y-104366666D01*
X102080952Y-104509523D01*
X102176190Y-104604761D01*
X102319047Y-104652380D01*
X102414285Y-104652380D01*
X101033333Y-104652380D02*
X101604761Y-104652380D01*
X101319047Y-104652380D02*
X101319047Y-103652380D01*
X101414285Y-103795238D01*
X101509523Y-103890476D01*
X101604761Y-103938095D01*
G04 #@! TO.C,J12*
X124109523Y-102852380D02*
X124109523Y-103566666D01*
X124157142Y-103709523D01*
X124252380Y-103804761D01*
X124395238Y-103852380D01*
X124490476Y-103852380D01*
X123109523Y-103852380D02*
X123680952Y-103852380D01*
X123395238Y-103852380D02*
X123395238Y-102852380D01*
X123490476Y-102995238D01*
X123585714Y-103090476D01*
X123680952Y-103138095D01*
X122728571Y-102947619D02*
X122680952Y-102900000D01*
X122585714Y-102852380D01*
X122347619Y-102852380D01*
X122252380Y-102900000D01*
X122204761Y-102947619D01*
X122157142Y-103042857D01*
X122157142Y-103138095D01*
X122204761Y-103280952D01*
X122776190Y-103852380D01*
X122157142Y-103852380D01*
G04 #@! TO.C,J8*
X91752380Y-90966666D02*
X92466666Y-90966666D01*
X92609523Y-90919047D01*
X92704761Y-90823809D01*
X92752380Y-90680952D01*
X92752380Y-90585714D01*
X92180952Y-91585714D02*
X92133333Y-91490476D01*
X92085714Y-91442857D01*
X91990476Y-91395238D01*
X91942857Y-91395238D01*
X91847619Y-91442857D01*
X91800000Y-91490476D01*
X91752380Y-91585714D01*
X91752380Y-91776190D01*
X91800000Y-91871428D01*
X91847619Y-91919047D01*
X91942857Y-91966666D01*
X91990476Y-91966666D01*
X92085714Y-91919047D01*
X92133333Y-91871428D01*
X92180952Y-91776190D01*
X92180952Y-91585714D01*
X92228571Y-91490476D01*
X92276190Y-91442857D01*
X92371428Y-91395238D01*
X92561904Y-91395238D01*
X92657142Y-91442857D01*
X92704761Y-91490476D01*
X92752380Y-91585714D01*
X92752380Y-91776190D01*
X92704761Y-91871428D01*
X92657142Y-91919047D01*
X92561904Y-91966666D01*
X92371428Y-91966666D01*
X92276190Y-91919047D01*
X92228571Y-91871428D01*
X92180952Y-91776190D01*
G04 #@! TO.C,J16*
X155652380Y-115690476D02*
X156366666Y-115690476D01*
X156509523Y-115642857D01*
X156604761Y-115547619D01*
X156652380Y-115404761D01*
X156652380Y-115309523D01*
X156652380Y-116690476D02*
X156652380Y-116119047D01*
X156652380Y-116404761D02*
X155652380Y-116404761D01*
X155795238Y-116309523D01*
X155890476Y-116214285D01*
X155938095Y-116119047D01*
X155652380Y-117547619D02*
X155652380Y-117357142D01*
X155700000Y-117261904D01*
X155747619Y-117214285D01*
X155890476Y-117119047D01*
X156080952Y-117071428D01*
X156461904Y-117071428D01*
X156557142Y-117119047D01*
X156604761Y-117166666D01*
X156652380Y-117261904D01*
X156652380Y-117452380D01*
X156604761Y-117547619D01*
X156557142Y-117595238D01*
X156461904Y-117642857D01*
X156223809Y-117642857D01*
X156128571Y-117595238D01*
X156080952Y-117547619D01*
X156033333Y-117452380D01*
X156033333Y-117261904D01*
X156080952Y-117166666D01*
X156128571Y-117119047D01*
X156223809Y-117071428D01*
G04 #@! TO.C,J21*
X111909523Y-85552380D02*
X111909523Y-86266666D01*
X111957142Y-86409523D01*
X112052380Y-86504761D01*
X112195238Y-86552380D01*
X112290476Y-86552380D01*
X111480952Y-85647619D02*
X111433333Y-85600000D01*
X111338095Y-85552380D01*
X111100000Y-85552380D01*
X111004761Y-85600000D01*
X110957142Y-85647619D01*
X110909523Y-85742857D01*
X110909523Y-85838095D01*
X110957142Y-85980952D01*
X111528571Y-86552380D01*
X110909523Y-86552380D01*
X109957142Y-86552380D02*
X110528571Y-86552380D01*
X110242857Y-86552380D02*
X110242857Y-85552380D01*
X110338095Y-85695238D01*
X110433333Y-85790476D01*
X110528571Y-85838095D01*
G04 #@! TO.C,J2*
X101933333Y-86652380D02*
X101933333Y-87366666D01*
X101980952Y-87509523D01*
X102076190Y-87604761D01*
X102219047Y-87652380D01*
X102314285Y-87652380D01*
X101504761Y-86747619D02*
X101457142Y-86700000D01*
X101361904Y-86652380D01*
X101123809Y-86652380D01*
X101028571Y-86700000D01*
X100980952Y-86747619D01*
X100933333Y-86842857D01*
X100933333Y-86938095D01*
X100980952Y-87080952D01*
X101552380Y-87652380D01*
X100933333Y-87652380D01*
G04 #@! TO.C,J14*
X148109523Y-89352380D02*
X148109523Y-90066666D01*
X148157142Y-90209523D01*
X148252380Y-90304761D01*
X148395238Y-90352380D01*
X148490476Y-90352380D01*
X147109523Y-90352380D02*
X147680952Y-90352380D01*
X147395238Y-90352380D02*
X147395238Y-89352380D01*
X147490476Y-89495238D01*
X147585714Y-89590476D01*
X147680952Y-89638095D01*
X146252380Y-89685714D02*
X146252380Y-90352380D01*
X146490476Y-89304761D02*
X146728571Y-90019047D01*
X146109523Y-90019047D01*
G04 #@! TO.C,J11*
X112109523Y-89152380D02*
X112109523Y-89866666D01*
X112157142Y-90009523D01*
X112252380Y-90104761D01*
X112395238Y-90152380D01*
X112490476Y-90152380D01*
X111109523Y-90152380D02*
X111680952Y-90152380D01*
X111395238Y-90152380D02*
X111395238Y-89152380D01*
X111490476Y-89295238D01*
X111585714Y-89390476D01*
X111680952Y-89438095D01*
X110157142Y-90152380D02*
X110728571Y-90152380D01*
X110442857Y-90152380D02*
X110442857Y-89152380D01*
X110538095Y-89295238D01*
X110633333Y-89390476D01*
X110728571Y-89438095D01*
G04 #@! TO.C,J23*
X136149523Y-81252380D02*
X136149523Y-81966666D01*
X136197142Y-82109523D01*
X136292380Y-82204761D01*
X136435238Y-82252380D01*
X136530476Y-82252380D01*
X135720952Y-81347619D02*
X135673333Y-81300000D01*
X135578095Y-81252380D01*
X135340000Y-81252380D01*
X135244761Y-81300000D01*
X135197142Y-81347619D01*
X135149523Y-81442857D01*
X135149523Y-81538095D01*
X135197142Y-81680952D01*
X135768571Y-82252380D01*
X135149523Y-82252380D01*
X134816190Y-81252380D02*
X134197142Y-81252380D01*
X134530476Y-81633333D01*
X134387619Y-81633333D01*
X134292380Y-81680952D01*
X134244761Y-81728571D01*
X134197142Y-81823809D01*
X134197142Y-82061904D01*
X134244761Y-82157142D01*
X134292380Y-82204761D01*
X134387619Y-82252380D01*
X134673333Y-82252380D01*
X134768571Y-82204761D01*
X134816190Y-82157142D01*
G04 #@! TO.C,J13*
X136109523Y-89352380D02*
X136109523Y-90066666D01*
X136157142Y-90209523D01*
X136252380Y-90304761D01*
X136395238Y-90352380D01*
X136490476Y-90352380D01*
X135109523Y-90352380D02*
X135680952Y-90352380D01*
X135395238Y-90352380D02*
X135395238Y-89352380D01*
X135490476Y-89495238D01*
X135585714Y-89590476D01*
X135680952Y-89638095D01*
X134776190Y-89352380D02*
X134157142Y-89352380D01*
X134490476Y-89733333D01*
X134347619Y-89733333D01*
X134252380Y-89780952D01*
X134204761Y-89828571D01*
X134157142Y-89923809D01*
X134157142Y-90161904D01*
X134204761Y-90257142D01*
X134252380Y-90304761D01*
X134347619Y-90352380D01*
X134633333Y-90352380D01*
X134728571Y-90304761D01*
X134776190Y-90257142D01*
G04 #@! TO.C,J15*
X159152380Y-94490476D02*
X159866666Y-94490476D01*
X160009523Y-94442857D01*
X160104761Y-94347619D01*
X160152380Y-94204761D01*
X160152380Y-94109523D01*
X160152380Y-95490476D02*
X160152380Y-94919047D01*
X160152380Y-95204761D02*
X159152380Y-95204761D01*
X159295238Y-95109523D01*
X159390476Y-95014285D01*
X159438095Y-94919047D01*
X159152380Y-96395238D02*
X159152380Y-95919047D01*
X159628571Y-95871428D01*
X159580952Y-95919047D01*
X159533333Y-96014285D01*
X159533333Y-96252380D01*
X159580952Y-96347619D01*
X159628571Y-96395238D01*
X159723809Y-96442857D01*
X159961904Y-96442857D01*
X160057142Y-96395238D01*
X160104761Y-96347619D01*
X160152380Y-96252380D01*
X160152380Y-96014285D01*
X160104761Y-95919047D01*
X160057142Y-95871428D01*
G04 #@! TO.C,J24*
X148049523Y-81352380D02*
X148049523Y-82066666D01*
X148097142Y-82209523D01*
X148192380Y-82304761D01*
X148335238Y-82352380D01*
X148430476Y-82352380D01*
X147620952Y-81447619D02*
X147573333Y-81400000D01*
X147478095Y-81352380D01*
X147240000Y-81352380D01*
X147144761Y-81400000D01*
X147097142Y-81447619D01*
X147049523Y-81542857D01*
X147049523Y-81638095D01*
X147097142Y-81780952D01*
X147668571Y-82352380D01*
X147049523Y-82352380D01*
X146192380Y-81685714D02*
X146192380Y-82352380D01*
X146430476Y-81304761D02*
X146668571Y-82019047D01*
X146049523Y-82019047D01*
G04 #@! TO.C,J22*
X124109523Y-81352380D02*
X124109523Y-82066666D01*
X124157142Y-82209523D01*
X124252380Y-82304761D01*
X124395238Y-82352380D01*
X124490476Y-82352380D01*
X123680952Y-81447619D02*
X123633333Y-81400000D01*
X123538095Y-81352380D01*
X123300000Y-81352380D01*
X123204761Y-81400000D01*
X123157142Y-81447619D01*
X123109523Y-81542857D01*
X123109523Y-81638095D01*
X123157142Y-81780952D01*
X123728571Y-82352380D01*
X123109523Y-82352380D01*
X122728571Y-81447619D02*
X122680952Y-81400000D01*
X122585714Y-81352380D01*
X122347619Y-81352380D01*
X122252380Y-81400000D01*
X122204761Y-81447619D01*
X122157142Y-81542857D01*
X122157142Y-81638095D01*
X122204761Y-81780952D01*
X122776190Y-82352380D01*
X122157142Y-82352380D01*
G04 #@! TO.C,U12*
X150663095Y-100017380D02*
X150663095Y-100826904D01*
X150615476Y-100922142D01*
X150567857Y-100969761D01*
X150472619Y-101017380D01*
X150282142Y-101017380D01*
X150186904Y-100969761D01*
X150139285Y-100922142D01*
X150091666Y-100826904D01*
X150091666Y-100017380D01*
X149091666Y-101017380D02*
X149663095Y-101017380D01*
X149377380Y-101017380D02*
X149377380Y-100017380D01*
X149472619Y-100160238D01*
X149567857Y-100255476D01*
X149663095Y-100303095D01*
X148710714Y-100112619D02*
X148663095Y-100065000D01*
X148567857Y-100017380D01*
X148329761Y-100017380D01*
X148234523Y-100065000D01*
X148186904Y-100112619D01*
X148139285Y-100207857D01*
X148139285Y-100303095D01*
X148186904Y-100445952D01*
X148758333Y-101017380D01*
X148139285Y-101017380D01*
G04 #@! TO.C,R18*
X159842857Y-102517380D02*
X160176190Y-102041190D01*
X160414285Y-102517380D02*
X160414285Y-101517380D01*
X160033333Y-101517380D01*
X159938095Y-101565000D01*
X159890476Y-101612619D01*
X159842857Y-101707857D01*
X159842857Y-101850714D01*
X159890476Y-101945952D01*
X159938095Y-101993571D01*
X160033333Y-102041190D01*
X160414285Y-102041190D01*
X158890476Y-102517380D02*
X159461904Y-102517380D01*
X159176190Y-102517380D02*
X159176190Y-101517380D01*
X159271428Y-101660238D01*
X159366666Y-101755476D01*
X159461904Y-101803095D01*
X158319047Y-101945952D02*
X158414285Y-101898333D01*
X158461904Y-101850714D01*
X158509523Y-101755476D01*
X158509523Y-101707857D01*
X158461904Y-101612619D01*
X158414285Y-101565000D01*
X158319047Y-101517380D01*
X158128571Y-101517380D01*
X158033333Y-101565000D01*
X157985714Y-101612619D01*
X157938095Y-101707857D01*
X157938095Y-101755476D01*
X157985714Y-101850714D01*
X158033333Y-101898333D01*
X158128571Y-101945952D01*
X158319047Y-101945952D01*
X158414285Y-101993571D01*
X158461904Y-102041190D01*
X158509523Y-102136428D01*
X158509523Y-102326904D01*
X158461904Y-102422142D01*
X158414285Y-102469761D01*
X158319047Y-102517380D01*
X158128571Y-102517380D01*
X158033333Y-102469761D01*
X157985714Y-102422142D01*
X157938095Y-102326904D01*
X157938095Y-102136428D01*
X157985714Y-102041190D01*
X158033333Y-101993571D01*
X158128571Y-101945952D01*
G04 #@! TO.C,R21*
X135942857Y-117252380D02*
X136276190Y-116776190D01*
X136514285Y-117252380D02*
X136514285Y-116252380D01*
X136133333Y-116252380D01*
X136038095Y-116300000D01*
X135990476Y-116347619D01*
X135942857Y-116442857D01*
X135942857Y-116585714D01*
X135990476Y-116680952D01*
X136038095Y-116728571D01*
X136133333Y-116776190D01*
X136514285Y-116776190D01*
X135561904Y-116347619D02*
X135514285Y-116300000D01*
X135419047Y-116252380D01*
X135180952Y-116252380D01*
X135085714Y-116300000D01*
X135038095Y-116347619D01*
X134990476Y-116442857D01*
X134990476Y-116538095D01*
X135038095Y-116680952D01*
X135609523Y-117252380D01*
X134990476Y-117252380D01*
X134038095Y-117252380D02*
X134609523Y-117252380D01*
X134323809Y-117252380D02*
X134323809Y-116252380D01*
X134419047Y-116395238D01*
X134514285Y-116490476D01*
X134609523Y-116538095D01*
G04 #@! TO.C,R17*
X159742857Y-107952380D02*
X160076190Y-107476190D01*
X160314285Y-107952380D02*
X160314285Y-106952380D01*
X159933333Y-106952380D01*
X159838095Y-107000000D01*
X159790476Y-107047619D01*
X159742857Y-107142857D01*
X159742857Y-107285714D01*
X159790476Y-107380952D01*
X159838095Y-107428571D01*
X159933333Y-107476190D01*
X160314285Y-107476190D01*
X158790476Y-107952380D02*
X159361904Y-107952380D01*
X159076190Y-107952380D02*
X159076190Y-106952380D01*
X159171428Y-107095238D01*
X159266666Y-107190476D01*
X159361904Y-107238095D01*
X158457142Y-106952380D02*
X157790476Y-106952380D01*
X158219047Y-107952380D01*
G04 #@! TO.C,Q13*
X143671428Y-116447619D02*
X143766666Y-116400000D01*
X143861904Y-116304761D01*
X144004761Y-116161904D01*
X144100000Y-116114285D01*
X144195238Y-116114285D01*
X144147619Y-116352380D02*
X144242857Y-116304761D01*
X144338095Y-116209523D01*
X144385714Y-116019047D01*
X144385714Y-115685714D01*
X144338095Y-115495238D01*
X144242857Y-115400000D01*
X144147619Y-115352380D01*
X143957142Y-115352380D01*
X143861904Y-115400000D01*
X143766666Y-115495238D01*
X143719047Y-115685714D01*
X143719047Y-116019047D01*
X143766666Y-116209523D01*
X143861904Y-116304761D01*
X143957142Y-116352380D01*
X144147619Y-116352380D01*
X142766666Y-116352380D02*
X143338095Y-116352380D01*
X143052380Y-116352380D02*
X143052380Y-115352380D01*
X143147619Y-115495238D01*
X143242857Y-115590476D01*
X143338095Y-115638095D01*
X142433333Y-115352380D02*
X141814285Y-115352380D01*
X142147619Y-115733333D01*
X142004761Y-115733333D01*
X141909523Y-115780952D01*
X141861904Y-115828571D01*
X141814285Y-115923809D01*
X141814285Y-116161904D01*
X141861904Y-116257142D01*
X141909523Y-116304761D01*
X142004761Y-116352380D01*
X142290476Y-116352380D01*
X142385714Y-116304761D01*
X142433333Y-116257142D01*
G04 #@! TO.C,R24*
X115152380Y-112357142D02*
X114676190Y-112023809D01*
X115152380Y-111785714D02*
X114152380Y-111785714D01*
X114152380Y-112166666D01*
X114200000Y-112261904D01*
X114247619Y-112309523D01*
X114342857Y-112357142D01*
X114485714Y-112357142D01*
X114580952Y-112309523D01*
X114628571Y-112261904D01*
X114676190Y-112166666D01*
X114676190Y-111785714D01*
X114247619Y-112738095D02*
X114200000Y-112785714D01*
X114152380Y-112880952D01*
X114152380Y-113119047D01*
X114200000Y-113214285D01*
X114247619Y-113261904D01*
X114342857Y-113309523D01*
X114438095Y-113309523D01*
X114580952Y-113261904D01*
X115152380Y-112690476D01*
X115152380Y-113309523D01*
X114485714Y-114166666D02*
X115152380Y-114166666D01*
X114104761Y-113928571D02*
X114819047Y-113690476D01*
X114819047Y-114309523D01*
G04 #@! TO.C,R39*
X154242857Y-81752380D02*
X154576190Y-81276190D01*
X154814285Y-81752380D02*
X154814285Y-80752380D01*
X154433333Y-80752380D01*
X154338095Y-80800000D01*
X154290476Y-80847619D01*
X154242857Y-80942857D01*
X154242857Y-81085714D01*
X154290476Y-81180952D01*
X154338095Y-81228571D01*
X154433333Y-81276190D01*
X154814285Y-81276190D01*
X153909523Y-80752380D02*
X153290476Y-80752380D01*
X153623809Y-81133333D01*
X153480952Y-81133333D01*
X153385714Y-81180952D01*
X153338095Y-81228571D01*
X153290476Y-81323809D01*
X153290476Y-81561904D01*
X153338095Y-81657142D01*
X153385714Y-81704761D01*
X153480952Y-81752380D01*
X153766666Y-81752380D01*
X153861904Y-81704761D01*
X153909523Y-81657142D01*
X152814285Y-81752380D02*
X152623809Y-81752380D01*
X152528571Y-81704761D01*
X152480952Y-81657142D01*
X152385714Y-81514285D01*
X152338095Y-81323809D01*
X152338095Y-80942857D01*
X152385714Y-80847619D01*
X152433333Y-80800000D01*
X152528571Y-80752380D01*
X152719047Y-80752380D01*
X152814285Y-80800000D01*
X152861904Y-80847619D01*
X152909523Y-80942857D01*
X152909523Y-81180952D01*
X152861904Y-81276190D01*
X152814285Y-81323809D01*
X152719047Y-81371428D01*
X152528571Y-81371428D01*
X152433333Y-81323809D01*
X152385714Y-81276190D01*
X152338095Y-81180952D01*
G04 #@! TO.C,Q17*
X159671428Y-105347619D02*
X159766666Y-105300000D01*
X159861904Y-105204761D01*
X160004761Y-105061904D01*
X160100000Y-105014285D01*
X160195238Y-105014285D01*
X160147619Y-105252380D02*
X160242857Y-105204761D01*
X160338095Y-105109523D01*
X160385714Y-104919047D01*
X160385714Y-104585714D01*
X160338095Y-104395238D01*
X160242857Y-104300000D01*
X160147619Y-104252380D01*
X159957142Y-104252380D01*
X159861904Y-104300000D01*
X159766666Y-104395238D01*
X159719047Y-104585714D01*
X159719047Y-104919047D01*
X159766666Y-105109523D01*
X159861904Y-105204761D01*
X159957142Y-105252380D01*
X160147619Y-105252380D01*
X158766666Y-105252380D02*
X159338095Y-105252380D01*
X159052380Y-105252380D02*
X159052380Y-104252380D01*
X159147619Y-104395238D01*
X159242857Y-104490476D01*
X159338095Y-104538095D01*
X158433333Y-104252380D02*
X157766666Y-104252380D01*
X158195238Y-105252380D01*
G04 #@! TO.C,D29*
X130014285Y-86152380D02*
X130014285Y-85152380D01*
X129776190Y-85152380D01*
X129633333Y-85200000D01*
X129538095Y-85295238D01*
X129490476Y-85390476D01*
X129442857Y-85580952D01*
X129442857Y-85723809D01*
X129490476Y-85914285D01*
X129538095Y-86009523D01*
X129633333Y-86104761D01*
X129776190Y-86152380D01*
X130014285Y-86152380D01*
X129061904Y-85247619D02*
X129014285Y-85200000D01*
X128919047Y-85152380D01*
X128680952Y-85152380D01*
X128585714Y-85200000D01*
X128538095Y-85247619D01*
X128490476Y-85342857D01*
X128490476Y-85438095D01*
X128538095Y-85580952D01*
X129109523Y-86152380D01*
X128490476Y-86152380D01*
X128014285Y-86152380D02*
X127823809Y-86152380D01*
X127728571Y-86104761D01*
X127680952Y-86057142D01*
X127585714Y-85914285D01*
X127538095Y-85723809D01*
X127538095Y-85342857D01*
X127585714Y-85247619D01*
X127633333Y-85200000D01*
X127728571Y-85152380D01*
X127919047Y-85152380D01*
X128014285Y-85200000D01*
X128061904Y-85247619D01*
X128109523Y-85342857D01*
X128109523Y-85580952D01*
X128061904Y-85676190D01*
X128014285Y-85723809D01*
X127919047Y-85771428D01*
X127728571Y-85771428D01*
X127633333Y-85723809D01*
X127585714Y-85676190D01*
X127538095Y-85580952D01*
G04 #@! TO.C,R25*
X115102380Y-107857142D02*
X114626190Y-107523809D01*
X115102380Y-107285714D02*
X114102380Y-107285714D01*
X114102380Y-107666666D01*
X114150000Y-107761904D01*
X114197619Y-107809523D01*
X114292857Y-107857142D01*
X114435714Y-107857142D01*
X114530952Y-107809523D01*
X114578571Y-107761904D01*
X114626190Y-107666666D01*
X114626190Y-107285714D01*
X114197619Y-108238095D02*
X114150000Y-108285714D01*
X114102380Y-108380952D01*
X114102380Y-108619047D01*
X114150000Y-108714285D01*
X114197619Y-108761904D01*
X114292857Y-108809523D01*
X114388095Y-108809523D01*
X114530952Y-108761904D01*
X115102380Y-108190476D01*
X115102380Y-108809523D01*
X114102380Y-109714285D02*
X114102380Y-109238095D01*
X114578571Y-109190476D01*
X114530952Y-109238095D01*
X114483333Y-109333333D01*
X114483333Y-109571428D01*
X114530952Y-109666666D01*
X114578571Y-109714285D01*
X114673809Y-109761904D01*
X114911904Y-109761904D01*
X115007142Y-109714285D01*
X115054761Y-109666666D01*
X115102380Y-109571428D01*
X115102380Y-109333333D01*
X115054761Y-109238095D01*
X115007142Y-109190476D01*
G04 #@! TO.C,R29*
X120942857Y-85952380D02*
X121276190Y-85476190D01*
X121514285Y-85952380D02*
X121514285Y-84952380D01*
X121133333Y-84952380D01*
X121038095Y-85000000D01*
X120990476Y-85047619D01*
X120942857Y-85142857D01*
X120942857Y-85285714D01*
X120990476Y-85380952D01*
X121038095Y-85428571D01*
X121133333Y-85476190D01*
X121514285Y-85476190D01*
X120561904Y-85047619D02*
X120514285Y-85000000D01*
X120419047Y-84952380D01*
X120180952Y-84952380D01*
X120085714Y-85000000D01*
X120038095Y-85047619D01*
X119990476Y-85142857D01*
X119990476Y-85238095D01*
X120038095Y-85380952D01*
X120609523Y-85952380D01*
X119990476Y-85952380D01*
X119514285Y-85952380D02*
X119323809Y-85952380D01*
X119228571Y-85904761D01*
X119180952Y-85857142D01*
X119085714Y-85714285D01*
X119038095Y-85523809D01*
X119038095Y-85142857D01*
X119085714Y-85047619D01*
X119133333Y-85000000D01*
X119228571Y-84952380D01*
X119419047Y-84952380D01*
X119514285Y-85000000D01*
X119561904Y-85047619D01*
X119609523Y-85142857D01*
X119609523Y-85380952D01*
X119561904Y-85476190D01*
X119514285Y-85523809D01*
X119419047Y-85571428D01*
X119228571Y-85571428D01*
X119133333Y-85523809D01*
X119085714Y-85476190D01*
X119038095Y-85380952D01*
G04 #@! TO.C,R11*
X159742857Y-111752380D02*
X160076190Y-111276190D01*
X160314285Y-111752380D02*
X160314285Y-110752380D01*
X159933333Y-110752380D01*
X159838095Y-110800000D01*
X159790476Y-110847619D01*
X159742857Y-110942857D01*
X159742857Y-111085714D01*
X159790476Y-111180952D01*
X159838095Y-111228571D01*
X159933333Y-111276190D01*
X160314285Y-111276190D01*
X158790476Y-111752380D02*
X159361904Y-111752380D01*
X159076190Y-111752380D02*
X159076190Y-110752380D01*
X159171428Y-110895238D01*
X159266666Y-110990476D01*
X159361904Y-111038095D01*
X157838095Y-111752380D02*
X158409523Y-111752380D01*
X158123809Y-111752380D02*
X158123809Y-110752380D01*
X158219047Y-110895238D01*
X158314285Y-110990476D01*
X158409523Y-111038095D01*
G04 #@! TO.C,Q29*
X124071428Y-90147619D02*
X124166666Y-90100000D01*
X124261904Y-90004761D01*
X124404761Y-89861904D01*
X124500000Y-89814285D01*
X124595238Y-89814285D01*
X124547619Y-90052380D02*
X124642857Y-90004761D01*
X124738095Y-89909523D01*
X124785714Y-89719047D01*
X124785714Y-89385714D01*
X124738095Y-89195238D01*
X124642857Y-89100000D01*
X124547619Y-89052380D01*
X124357142Y-89052380D01*
X124261904Y-89100000D01*
X124166666Y-89195238D01*
X124119047Y-89385714D01*
X124119047Y-89719047D01*
X124166666Y-89909523D01*
X124261904Y-90004761D01*
X124357142Y-90052380D01*
X124547619Y-90052380D01*
X123738095Y-89147619D02*
X123690476Y-89100000D01*
X123595238Y-89052380D01*
X123357142Y-89052380D01*
X123261904Y-89100000D01*
X123214285Y-89147619D01*
X123166666Y-89242857D01*
X123166666Y-89338095D01*
X123214285Y-89480952D01*
X123785714Y-90052380D01*
X123166666Y-90052380D01*
X122690476Y-90052380D02*
X122500000Y-90052380D01*
X122404761Y-90004761D01*
X122357142Y-89957142D01*
X122261904Y-89814285D01*
X122214285Y-89623809D01*
X122214285Y-89242857D01*
X122261904Y-89147619D01*
X122309523Y-89100000D01*
X122404761Y-89052380D01*
X122595238Y-89052380D01*
X122690476Y-89100000D01*
X122738095Y-89147619D01*
X122785714Y-89242857D01*
X122785714Y-89480952D01*
X122738095Y-89576190D01*
X122690476Y-89623809D01*
X122595238Y-89671428D01*
X122404761Y-89671428D01*
X122309523Y-89623809D01*
X122261904Y-89576190D01*
X122214285Y-89480952D01*
G04 #@! TO.C,R26*
X115742857Y-106552380D02*
X116076190Y-106076190D01*
X116314285Y-106552380D02*
X116314285Y-105552380D01*
X115933333Y-105552380D01*
X115838095Y-105600000D01*
X115790476Y-105647619D01*
X115742857Y-105742857D01*
X115742857Y-105885714D01*
X115790476Y-105980952D01*
X115838095Y-106028571D01*
X115933333Y-106076190D01*
X116314285Y-106076190D01*
X115361904Y-105647619D02*
X115314285Y-105600000D01*
X115219047Y-105552380D01*
X114980952Y-105552380D01*
X114885714Y-105600000D01*
X114838095Y-105647619D01*
X114790476Y-105742857D01*
X114790476Y-105838095D01*
X114838095Y-105980952D01*
X115409523Y-106552380D01*
X114790476Y-106552380D01*
X113933333Y-105552380D02*
X114123809Y-105552380D01*
X114219047Y-105600000D01*
X114266666Y-105647619D01*
X114361904Y-105790476D01*
X114409523Y-105980952D01*
X114409523Y-106361904D01*
X114361904Y-106457142D01*
X114314285Y-106504761D01*
X114219047Y-106552380D01*
X114028571Y-106552380D01*
X113933333Y-106504761D01*
X113885714Y-106457142D01*
X113838095Y-106361904D01*
X113838095Y-106123809D01*
X113885714Y-106028571D01*
X113933333Y-105980952D01*
X114028571Y-105933333D01*
X114219047Y-105933333D01*
X114314285Y-105980952D01*
X114361904Y-106028571D01*
X114409523Y-106123809D01*
G04 #@! TO.C,Q15*
X143671428Y-113647619D02*
X143766666Y-113600000D01*
X143861904Y-113504761D01*
X144004761Y-113361904D01*
X144100000Y-113314285D01*
X144195238Y-113314285D01*
X144147619Y-113552380D02*
X144242857Y-113504761D01*
X144338095Y-113409523D01*
X144385714Y-113219047D01*
X144385714Y-112885714D01*
X144338095Y-112695238D01*
X144242857Y-112600000D01*
X144147619Y-112552380D01*
X143957142Y-112552380D01*
X143861904Y-112600000D01*
X143766666Y-112695238D01*
X143719047Y-112885714D01*
X143719047Y-113219047D01*
X143766666Y-113409523D01*
X143861904Y-113504761D01*
X143957142Y-113552380D01*
X144147619Y-113552380D01*
X142766666Y-113552380D02*
X143338095Y-113552380D01*
X143052380Y-113552380D02*
X143052380Y-112552380D01*
X143147619Y-112695238D01*
X143242857Y-112790476D01*
X143338095Y-112838095D01*
X141861904Y-112552380D02*
X142338095Y-112552380D01*
X142385714Y-113028571D01*
X142338095Y-112980952D01*
X142242857Y-112933333D01*
X142004761Y-112933333D01*
X141909523Y-112980952D01*
X141861904Y-113028571D01*
X141814285Y-113123809D01*
X141814285Y-113361904D01*
X141861904Y-113457142D01*
X141909523Y-113504761D01*
X142004761Y-113552380D01*
X142242857Y-113552380D01*
X142338095Y-113504761D01*
X142385714Y-113457142D01*
G04 #@! TO.C,R13*
X139127380Y-109757142D02*
X138651190Y-109423809D01*
X139127380Y-109185714D02*
X138127380Y-109185714D01*
X138127380Y-109566666D01*
X138175000Y-109661904D01*
X138222619Y-109709523D01*
X138317857Y-109757142D01*
X138460714Y-109757142D01*
X138555952Y-109709523D01*
X138603571Y-109661904D01*
X138651190Y-109566666D01*
X138651190Y-109185714D01*
X139127380Y-110709523D02*
X139127380Y-110138095D01*
X139127380Y-110423809D02*
X138127380Y-110423809D01*
X138270238Y-110328571D01*
X138365476Y-110233333D01*
X138413095Y-110138095D01*
X138127380Y-111042857D02*
X138127380Y-111661904D01*
X138508333Y-111328571D01*
X138508333Y-111471428D01*
X138555952Y-111566666D01*
X138603571Y-111614285D01*
X138698809Y-111661904D01*
X138936904Y-111661904D01*
X139032142Y-111614285D01*
X139079761Y-111566666D01*
X139127380Y-111471428D01*
X139127380Y-111185714D01*
X139079761Y-111090476D01*
X139032142Y-111042857D01*
G04 #@! TO.C,R19*
X159542857Y-81752380D02*
X159876190Y-81276190D01*
X160114285Y-81752380D02*
X160114285Y-80752380D01*
X159733333Y-80752380D01*
X159638095Y-80800000D01*
X159590476Y-80847619D01*
X159542857Y-80942857D01*
X159542857Y-81085714D01*
X159590476Y-81180952D01*
X159638095Y-81228571D01*
X159733333Y-81276190D01*
X160114285Y-81276190D01*
X158590476Y-81752380D02*
X159161904Y-81752380D01*
X158876190Y-81752380D02*
X158876190Y-80752380D01*
X158971428Y-80895238D01*
X159066666Y-80990476D01*
X159161904Y-81038095D01*
X158114285Y-81752380D02*
X157923809Y-81752380D01*
X157828571Y-81704761D01*
X157780952Y-81657142D01*
X157685714Y-81514285D01*
X157638095Y-81323809D01*
X157638095Y-80942857D01*
X157685714Y-80847619D01*
X157733333Y-80800000D01*
X157828571Y-80752380D01*
X158019047Y-80752380D01*
X158114285Y-80800000D01*
X158161904Y-80847619D01*
X158209523Y-80942857D01*
X158209523Y-81180952D01*
X158161904Y-81276190D01*
X158114285Y-81323809D01*
X158019047Y-81371428D01*
X157828571Y-81371428D01*
X157733333Y-81323809D01*
X157685714Y-81276190D01*
X157638095Y-81180952D01*
G04 #@! TO.C,R27*
X135942857Y-113452380D02*
X136276190Y-112976190D01*
X136514285Y-113452380D02*
X136514285Y-112452380D01*
X136133333Y-112452380D01*
X136038095Y-112500000D01*
X135990476Y-112547619D01*
X135942857Y-112642857D01*
X135942857Y-112785714D01*
X135990476Y-112880952D01*
X136038095Y-112928571D01*
X136133333Y-112976190D01*
X136514285Y-112976190D01*
X135561904Y-112547619D02*
X135514285Y-112500000D01*
X135419047Y-112452380D01*
X135180952Y-112452380D01*
X135085714Y-112500000D01*
X135038095Y-112547619D01*
X134990476Y-112642857D01*
X134990476Y-112738095D01*
X135038095Y-112880952D01*
X135609523Y-113452380D01*
X134990476Y-113452380D01*
X134657142Y-112452380D02*
X133990476Y-112452380D01*
X134419047Y-113452380D01*
G04 #@! TO.C,R49*
X116742857Y-85752380D02*
X117076190Y-85276190D01*
X117314285Y-85752380D02*
X117314285Y-84752380D01*
X116933333Y-84752380D01*
X116838095Y-84800000D01*
X116790476Y-84847619D01*
X116742857Y-84942857D01*
X116742857Y-85085714D01*
X116790476Y-85180952D01*
X116838095Y-85228571D01*
X116933333Y-85276190D01*
X117314285Y-85276190D01*
X115885714Y-85085714D02*
X115885714Y-85752380D01*
X116123809Y-84704761D02*
X116361904Y-85419047D01*
X115742857Y-85419047D01*
X115314285Y-85752380D02*
X115123809Y-85752380D01*
X115028571Y-85704761D01*
X114980952Y-85657142D01*
X114885714Y-85514285D01*
X114838095Y-85323809D01*
X114838095Y-84942857D01*
X114885714Y-84847619D01*
X114933333Y-84800000D01*
X115028571Y-84752380D01*
X115219047Y-84752380D01*
X115314285Y-84800000D01*
X115361904Y-84847619D01*
X115409523Y-84942857D01*
X115409523Y-85180952D01*
X115361904Y-85276190D01*
X115314285Y-85323809D01*
X115219047Y-85371428D01*
X115028571Y-85371428D01*
X114933333Y-85323809D01*
X114885714Y-85276190D01*
X114838095Y-85180952D01*
G04 #@! TO.C,Q23*
X118971428Y-119047619D02*
X119066666Y-119000000D01*
X119161904Y-118904761D01*
X119304761Y-118761904D01*
X119400000Y-118714285D01*
X119495238Y-118714285D01*
X119447619Y-118952380D02*
X119542857Y-118904761D01*
X119638095Y-118809523D01*
X119685714Y-118619047D01*
X119685714Y-118285714D01*
X119638095Y-118095238D01*
X119542857Y-118000000D01*
X119447619Y-117952380D01*
X119257142Y-117952380D01*
X119161904Y-118000000D01*
X119066666Y-118095238D01*
X119019047Y-118285714D01*
X119019047Y-118619047D01*
X119066666Y-118809523D01*
X119161904Y-118904761D01*
X119257142Y-118952380D01*
X119447619Y-118952380D01*
X118638095Y-118047619D02*
X118590476Y-118000000D01*
X118495238Y-117952380D01*
X118257142Y-117952380D01*
X118161904Y-118000000D01*
X118114285Y-118047619D01*
X118066666Y-118142857D01*
X118066666Y-118238095D01*
X118114285Y-118380952D01*
X118685714Y-118952380D01*
X118066666Y-118952380D01*
X117733333Y-117952380D02*
X117114285Y-117952380D01*
X117447619Y-118333333D01*
X117304761Y-118333333D01*
X117209523Y-118380952D01*
X117161904Y-118428571D01*
X117114285Y-118523809D01*
X117114285Y-118761904D01*
X117161904Y-118857142D01*
X117209523Y-118904761D01*
X117304761Y-118952380D01*
X117590476Y-118952380D01*
X117685714Y-118904761D01*
X117733333Y-118857142D01*
G04 #@! TO.C,Q27*
X135971428Y-111147619D02*
X136066666Y-111100000D01*
X136161904Y-111004761D01*
X136304761Y-110861904D01*
X136400000Y-110814285D01*
X136495238Y-110814285D01*
X136447619Y-111052380D02*
X136542857Y-111004761D01*
X136638095Y-110909523D01*
X136685714Y-110719047D01*
X136685714Y-110385714D01*
X136638095Y-110195238D01*
X136542857Y-110100000D01*
X136447619Y-110052380D01*
X136257142Y-110052380D01*
X136161904Y-110100000D01*
X136066666Y-110195238D01*
X136019047Y-110385714D01*
X136019047Y-110719047D01*
X136066666Y-110909523D01*
X136161904Y-111004761D01*
X136257142Y-111052380D01*
X136447619Y-111052380D01*
X135638095Y-110147619D02*
X135590476Y-110100000D01*
X135495238Y-110052380D01*
X135257142Y-110052380D01*
X135161904Y-110100000D01*
X135114285Y-110147619D01*
X135066666Y-110242857D01*
X135066666Y-110338095D01*
X135114285Y-110480952D01*
X135685714Y-111052380D01*
X135066666Y-111052380D01*
X134733333Y-110052380D02*
X134066666Y-110052380D01*
X134495238Y-111052380D01*
G04 #@! TO.C,U11*
X150663095Y-112352380D02*
X150663095Y-113161904D01*
X150615476Y-113257142D01*
X150567857Y-113304761D01*
X150472619Y-113352380D01*
X150282142Y-113352380D01*
X150186904Y-113304761D01*
X150139285Y-113257142D01*
X150091666Y-113161904D01*
X150091666Y-112352380D01*
X149091666Y-113352380D02*
X149663095Y-113352380D01*
X149377380Y-113352380D02*
X149377380Y-112352380D01*
X149472619Y-112495238D01*
X149567857Y-112590476D01*
X149663095Y-112638095D01*
X148139285Y-113352380D02*
X148710714Y-113352380D01*
X148425000Y-113352380D02*
X148425000Y-112352380D01*
X148520238Y-112495238D01*
X148615476Y-112590476D01*
X148710714Y-112638095D01*
G04 #@! TO.C,U21*
X126678095Y-117852380D02*
X126678095Y-118661904D01*
X126630476Y-118757142D01*
X126582857Y-118804761D01*
X126487619Y-118852380D01*
X126297142Y-118852380D01*
X126201904Y-118804761D01*
X126154285Y-118757142D01*
X126106666Y-118661904D01*
X126106666Y-117852380D01*
X125678095Y-117947619D02*
X125630476Y-117900000D01*
X125535238Y-117852380D01*
X125297142Y-117852380D01*
X125201904Y-117900000D01*
X125154285Y-117947619D01*
X125106666Y-118042857D01*
X125106666Y-118138095D01*
X125154285Y-118280952D01*
X125725714Y-118852380D01*
X125106666Y-118852380D01*
X124154285Y-118852380D02*
X124725714Y-118852380D01*
X124440000Y-118852380D02*
X124440000Y-117852380D01*
X124535238Y-117995238D01*
X124630476Y-118090476D01*
X124725714Y-118138095D01*
G04 #@! TO.C,R12*
X159742857Y-109852380D02*
X160076190Y-109376190D01*
X160314285Y-109852380D02*
X160314285Y-108852380D01*
X159933333Y-108852380D01*
X159838095Y-108900000D01*
X159790476Y-108947619D01*
X159742857Y-109042857D01*
X159742857Y-109185714D01*
X159790476Y-109280952D01*
X159838095Y-109328571D01*
X159933333Y-109376190D01*
X160314285Y-109376190D01*
X158790476Y-109852380D02*
X159361904Y-109852380D01*
X159076190Y-109852380D02*
X159076190Y-108852380D01*
X159171428Y-108995238D01*
X159266666Y-109090476D01*
X159361904Y-109138095D01*
X158409523Y-108947619D02*
X158361904Y-108900000D01*
X158266666Y-108852380D01*
X158028571Y-108852380D01*
X157933333Y-108900000D01*
X157885714Y-108947619D01*
X157838095Y-109042857D01*
X157838095Y-109138095D01*
X157885714Y-109280952D01*
X158457142Y-109852380D01*
X157838095Y-109852380D01*
G04 #@! TO.C,R28*
X136642857Y-108052380D02*
X136976190Y-107576190D01*
X137214285Y-108052380D02*
X137214285Y-107052380D01*
X136833333Y-107052380D01*
X136738095Y-107100000D01*
X136690476Y-107147619D01*
X136642857Y-107242857D01*
X136642857Y-107385714D01*
X136690476Y-107480952D01*
X136738095Y-107528571D01*
X136833333Y-107576190D01*
X137214285Y-107576190D01*
X136261904Y-107147619D02*
X136214285Y-107100000D01*
X136119047Y-107052380D01*
X135880952Y-107052380D01*
X135785714Y-107100000D01*
X135738095Y-107147619D01*
X135690476Y-107242857D01*
X135690476Y-107338095D01*
X135738095Y-107480952D01*
X136309523Y-108052380D01*
X135690476Y-108052380D01*
X135119047Y-107480952D02*
X135214285Y-107433333D01*
X135261904Y-107385714D01*
X135309523Y-107290476D01*
X135309523Y-107242857D01*
X135261904Y-107147619D01*
X135214285Y-107100000D01*
X135119047Y-107052380D01*
X134928571Y-107052380D01*
X134833333Y-107100000D01*
X134785714Y-107147619D01*
X134738095Y-107242857D01*
X134738095Y-107290476D01*
X134785714Y-107385714D01*
X134833333Y-107433333D01*
X134928571Y-107480952D01*
X135119047Y-107480952D01*
X135214285Y-107528571D01*
X135261904Y-107576190D01*
X135309523Y-107671428D01*
X135309523Y-107861904D01*
X135261904Y-107957142D01*
X135214285Y-108004761D01*
X135119047Y-108052380D01*
X134928571Y-108052380D01*
X134833333Y-108004761D01*
X134785714Y-107957142D01*
X134738095Y-107861904D01*
X134738095Y-107671428D01*
X134785714Y-107576190D01*
X134833333Y-107528571D01*
X134928571Y-107480952D01*
G04 #@! TO.C,R23*
X115352380Y-115957142D02*
X114876190Y-115623809D01*
X115352380Y-115385714D02*
X114352380Y-115385714D01*
X114352380Y-115766666D01*
X114400000Y-115861904D01*
X114447619Y-115909523D01*
X114542857Y-115957142D01*
X114685714Y-115957142D01*
X114780952Y-115909523D01*
X114828571Y-115861904D01*
X114876190Y-115766666D01*
X114876190Y-115385714D01*
X114447619Y-116338095D02*
X114400000Y-116385714D01*
X114352380Y-116480952D01*
X114352380Y-116719047D01*
X114400000Y-116814285D01*
X114447619Y-116861904D01*
X114542857Y-116909523D01*
X114638095Y-116909523D01*
X114780952Y-116861904D01*
X115352380Y-116290476D01*
X115352380Y-116909523D01*
X114352380Y-117242857D02*
X114352380Y-117861904D01*
X114733333Y-117528571D01*
X114733333Y-117671428D01*
X114780952Y-117766666D01*
X114828571Y-117814285D01*
X114923809Y-117861904D01*
X115161904Y-117861904D01*
X115257142Y-117814285D01*
X115304761Y-117766666D01*
X115352380Y-117671428D01*
X115352380Y-117385714D01*
X115304761Y-117290476D01*
X115257142Y-117242857D01*
G04 #@! TO.C,R14*
X139127380Y-106057142D02*
X138651190Y-105723809D01*
X139127380Y-105485714D02*
X138127380Y-105485714D01*
X138127380Y-105866666D01*
X138175000Y-105961904D01*
X138222619Y-106009523D01*
X138317857Y-106057142D01*
X138460714Y-106057142D01*
X138555952Y-106009523D01*
X138603571Y-105961904D01*
X138651190Y-105866666D01*
X138651190Y-105485714D01*
X139127380Y-107009523D02*
X139127380Y-106438095D01*
X139127380Y-106723809D02*
X138127380Y-106723809D01*
X138270238Y-106628571D01*
X138365476Y-106533333D01*
X138413095Y-106438095D01*
X138460714Y-107866666D02*
X139127380Y-107866666D01*
X138079761Y-107628571D02*
X138794047Y-107390476D01*
X138794047Y-108009523D01*
G04 #@! TO.C,Q25*
X119071428Y-105447619D02*
X119166666Y-105400000D01*
X119261904Y-105304761D01*
X119404761Y-105161904D01*
X119500000Y-105114285D01*
X119595238Y-105114285D01*
X119547619Y-105352380D02*
X119642857Y-105304761D01*
X119738095Y-105209523D01*
X119785714Y-105019047D01*
X119785714Y-104685714D01*
X119738095Y-104495238D01*
X119642857Y-104400000D01*
X119547619Y-104352380D01*
X119357142Y-104352380D01*
X119261904Y-104400000D01*
X119166666Y-104495238D01*
X119119047Y-104685714D01*
X119119047Y-105019047D01*
X119166666Y-105209523D01*
X119261904Y-105304761D01*
X119357142Y-105352380D01*
X119547619Y-105352380D01*
X118738095Y-104447619D02*
X118690476Y-104400000D01*
X118595238Y-104352380D01*
X118357142Y-104352380D01*
X118261904Y-104400000D01*
X118214285Y-104447619D01*
X118166666Y-104542857D01*
X118166666Y-104638095D01*
X118214285Y-104780952D01*
X118785714Y-105352380D01*
X118166666Y-105352380D01*
X117261904Y-104352380D02*
X117738095Y-104352380D01*
X117785714Y-104828571D01*
X117738095Y-104780952D01*
X117642857Y-104733333D01*
X117404761Y-104733333D01*
X117309523Y-104780952D01*
X117261904Y-104828571D01*
X117214285Y-104923809D01*
X117214285Y-105161904D01*
X117261904Y-105257142D01*
X117309523Y-105304761D01*
X117404761Y-105352380D01*
X117642857Y-105352380D01*
X117738095Y-105304761D01*
X117785714Y-105257142D01*
G04 #@! TO.C,R22*
X135942857Y-115352380D02*
X136276190Y-114876190D01*
X136514285Y-115352380D02*
X136514285Y-114352380D01*
X136133333Y-114352380D01*
X136038095Y-114400000D01*
X135990476Y-114447619D01*
X135942857Y-114542857D01*
X135942857Y-114685714D01*
X135990476Y-114780952D01*
X136038095Y-114828571D01*
X136133333Y-114876190D01*
X136514285Y-114876190D01*
X135561904Y-114447619D02*
X135514285Y-114400000D01*
X135419047Y-114352380D01*
X135180952Y-114352380D01*
X135085714Y-114400000D01*
X135038095Y-114447619D01*
X134990476Y-114542857D01*
X134990476Y-114638095D01*
X135038095Y-114780952D01*
X135609523Y-115352380D01*
X134990476Y-115352380D01*
X134609523Y-114447619D02*
X134561904Y-114400000D01*
X134466666Y-114352380D01*
X134228571Y-114352380D01*
X134133333Y-114400000D01*
X134085714Y-114447619D01*
X134038095Y-114542857D01*
X134038095Y-114638095D01*
X134085714Y-114780952D01*
X134657142Y-115352380D01*
X134038095Y-115352380D01*
G04 #@! TO.C,Q19*
X157971428Y-88547619D02*
X158066666Y-88500000D01*
X158161904Y-88404761D01*
X158304761Y-88261904D01*
X158400000Y-88214285D01*
X158495238Y-88214285D01*
X158447619Y-88452380D02*
X158542857Y-88404761D01*
X158638095Y-88309523D01*
X158685714Y-88119047D01*
X158685714Y-87785714D01*
X158638095Y-87595238D01*
X158542857Y-87500000D01*
X158447619Y-87452380D01*
X158257142Y-87452380D01*
X158161904Y-87500000D01*
X158066666Y-87595238D01*
X158019047Y-87785714D01*
X158019047Y-88119047D01*
X158066666Y-88309523D01*
X158161904Y-88404761D01*
X158257142Y-88452380D01*
X158447619Y-88452380D01*
X157066666Y-88452380D02*
X157638095Y-88452380D01*
X157352380Y-88452380D02*
X157352380Y-87452380D01*
X157447619Y-87595238D01*
X157542857Y-87690476D01*
X157638095Y-87738095D01*
X156590476Y-88452380D02*
X156400000Y-88452380D01*
X156304761Y-88404761D01*
X156257142Y-88357142D01*
X156161904Y-88214285D01*
X156114285Y-88023809D01*
X156114285Y-87642857D01*
X156161904Y-87547619D01*
X156209523Y-87500000D01*
X156304761Y-87452380D01*
X156495238Y-87452380D01*
X156590476Y-87500000D01*
X156638095Y-87547619D01*
X156685714Y-87642857D01*
X156685714Y-87880952D01*
X156638095Y-87976190D01*
X156590476Y-88023809D01*
X156495238Y-88071428D01*
X156304761Y-88071428D01*
X156209523Y-88023809D01*
X156161904Y-87976190D01*
X156114285Y-87880952D01*
G04 #@! TO.C,R16*
X143867857Y-99802380D02*
X144201190Y-99326190D01*
X144439285Y-99802380D02*
X144439285Y-98802380D01*
X144058333Y-98802380D01*
X143963095Y-98850000D01*
X143915476Y-98897619D01*
X143867857Y-98992857D01*
X143867857Y-99135714D01*
X143915476Y-99230952D01*
X143963095Y-99278571D01*
X144058333Y-99326190D01*
X144439285Y-99326190D01*
X142915476Y-99802380D02*
X143486904Y-99802380D01*
X143201190Y-99802380D02*
X143201190Y-98802380D01*
X143296428Y-98945238D01*
X143391666Y-99040476D01*
X143486904Y-99088095D01*
X142058333Y-98802380D02*
X142248809Y-98802380D01*
X142344047Y-98850000D01*
X142391666Y-98897619D01*
X142486904Y-99040476D01*
X142534523Y-99230952D01*
X142534523Y-99611904D01*
X142486904Y-99707142D01*
X142439285Y-99754761D01*
X142344047Y-99802380D01*
X142153571Y-99802380D01*
X142058333Y-99754761D01*
X142010714Y-99707142D01*
X141963095Y-99611904D01*
X141963095Y-99373809D01*
X142010714Y-99278571D01*
X142058333Y-99230952D01*
X142153571Y-99183333D01*
X142344047Y-99183333D01*
X142439285Y-99230952D01*
X142486904Y-99278571D01*
X142534523Y-99373809D01*
G04 #@! TO.C,R31*
X154242857Y-100252380D02*
X154576190Y-99776190D01*
X154814285Y-100252380D02*
X154814285Y-99252380D01*
X154433333Y-99252380D01*
X154338095Y-99300000D01*
X154290476Y-99347619D01*
X154242857Y-99442857D01*
X154242857Y-99585714D01*
X154290476Y-99680952D01*
X154338095Y-99728571D01*
X154433333Y-99776190D01*
X154814285Y-99776190D01*
X153909523Y-99252380D02*
X153290476Y-99252380D01*
X153623809Y-99633333D01*
X153480952Y-99633333D01*
X153385714Y-99680952D01*
X153338095Y-99728571D01*
X153290476Y-99823809D01*
X153290476Y-100061904D01*
X153338095Y-100157142D01*
X153385714Y-100204761D01*
X153480952Y-100252380D01*
X153766666Y-100252380D01*
X153861904Y-100204761D01*
X153909523Y-100157142D01*
X152338095Y-100252380D02*
X152909523Y-100252380D01*
X152623809Y-100252380D02*
X152623809Y-99252380D01*
X152719047Y-99395238D01*
X152814285Y-99490476D01*
X152909523Y-99538095D01*
G04 #@! TO.C,R41*
X116342857Y-104252380D02*
X116676190Y-103776190D01*
X116914285Y-104252380D02*
X116914285Y-103252380D01*
X116533333Y-103252380D01*
X116438095Y-103300000D01*
X116390476Y-103347619D01*
X116342857Y-103442857D01*
X116342857Y-103585714D01*
X116390476Y-103680952D01*
X116438095Y-103728571D01*
X116533333Y-103776190D01*
X116914285Y-103776190D01*
X115485714Y-103585714D02*
X115485714Y-104252380D01*
X115723809Y-103204761D02*
X115961904Y-103919047D01*
X115342857Y-103919047D01*
X114438095Y-104252380D02*
X115009523Y-104252380D01*
X114723809Y-104252380D02*
X114723809Y-103252380D01*
X114819047Y-103395238D01*
X114914285Y-103490476D01*
X115009523Y-103538095D01*
G04 #@! TO.C,D19*
X144614285Y-86452380D02*
X144614285Y-85452380D01*
X144376190Y-85452380D01*
X144233333Y-85500000D01*
X144138095Y-85595238D01*
X144090476Y-85690476D01*
X144042857Y-85880952D01*
X144042857Y-86023809D01*
X144090476Y-86214285D01*
X144138095Y-86309523D01*
X144233333Y-86404761D01*
X144376190Y-86452380D01*
X144614285Y-86452380D01*
X143090476Y-86452380D02*
X143661904Y-86452380D01*
X143376190Y-86452380D02*
X143376190Y-85452380D01*
X143471428Y-85595238D01*
X143566666Y-85690476D01*
X143661904Y-85738095D01*
X142614285Y-86452380D02*
X142423809Y-86452380D01*
X142328571Y-86404761D01*
X142280952Y-86357142D01*
X142185714Y-86214285D01*
X142138095Y-86023809D01*
X142138095Y-85642857D01*
X142185714Y-85547619D01*
X142233333Y-85500000D01*
X142328571Y-85452380D01*
X142519047Y-85452380D01*
X142614285Y-85500000D01*
X142661904Y-85547619D01*
X142709523Y-85642857D01*
X142709523Y-85880952D01*
X142661904Y-85976190D01*
X142614285Y-86023809D01*
X142519047Y-86071428D01*
X142328571Y-86071428D01*
X142233333Y-86023809D01*
X142185714Y-85976190D01*
X142138095Y-85880952D01*
G04 #@! TO.C,Q14*
X143671428Y-115047619D02*
X143766666Y-115000000D01*
X143861904Y-114904761D01*
X144004761Y-114761904D01*
X144100000Y-114714285D01*
X144195238Y-114714285D01*
X144147619Y-114952380D02*
X144242857Y-114904761D01*
X144338095Y-114809523D01*
X144385714Y-114619047D01*
X144385714Y-114285714D01*
X144338095Y-114095238D01*
X144242857Y-114000000D01*
X144147619Y-113952380D01*
X143957142Y-113952380D01*
X143861904Y-114000000D01*
X143766666Y-114095238D01*
X143719047Y-114285714D01*
X143719047Y-114619047D01*
X143766666Y-114809523D01*
X143861904Y-114904761D01*
X143957142Y-114952380D01*
X144147619Y-114952380D01*
X142766666Y-114952380D02*
X143338095Y-114952380D01*
X143052380Y-114952380D02*
X143052380Y-113952380D01*
X143147619Y-114095238D01*
X143242857Y-114190476D01*
X143338095Y-114238095D01*
X141909523Y-114285714D02*
X141909523Y-114952380D01*
X142147619Y-113904761D02*
X142385714Y-114619047D01*
X141766666Y-114619047D01*
G04 #@! TO.C,R15*
X139127380Y-102357142D02*
X138651190Y-102023809D01*
X139127380Y-101785714D02*
X138127380Y-101785714D01*
X138127380Y-102166666D01*
X138175000Y-102261904D01*
X138222619Y-102309523D01*
X138317857Y-102357142D01*
X138460714Y-102357142D01*
X138555952Y-102309523D01*
X138603571Y-102261904D01*
X138651190Y-102166666D01*
X138651190Y-101785714D01*
X139127380Y-103309523D02*
X139127380Y-102738095D01*
X139127380Y-103023809D02*
X138127380Y-103023809D01*
X138270238Y-102928571D01*
X138365476Y-102833333D01*
X138413095Y-102738095D01*
X138127380Y-104214285D02*
X138127380Y-103738095D01*
X138603571Y-103690476D01*
X138555952Y-103738095D01*
X138508333Y-103833333D01*
X138508333Y-104071428D01*
X138555952Y-104166666D01*
X138603571Y-104214285D01*
X138698809Y-104261904D01*
X138936904Y-104261904D01*
X139032142Y-104214285D01*
X139079761Y-104166666D01*
X139127380Y-104071428D01*
X139127380Y-103833333D01*
X139079761Y-103738095D01*
X139032142Y-103690476D01*
G04 #@! TO.C,U22*
X126638095Y-105452380D02*
X126638095Y-106261904D01*
X126590476Y-106357142D01*
X126542857Y-106404761D01*
X126447619Y-106452380D01*
X126257142Y-106452380D01*
X126161904Y-106404761D01*
X126114285Y-106357142D01*
X126066666Y-106261904D01*
X126066666Y-105452380D01*
X125638095Y-105547619D02*
X125590476Y-105500000D01*
X125495238Y-105452380D01*
X125257142Y-105452380D01*
X125161904Y-105500000D01*
X125114285Y-105547619D01*
X125066666Y-105642857D01*
X125066666Y-105738095D01*
X125114285Y-105880952D01*
X125685714Y-106452380D01*
X125066666Y-106452380D01*
X124685714Y-105547619D02*
X124638095Y-105500000D01*
X124542857Y-105452380D01*
X124304761Y-105452380D01*
X124209523Y-105500000D01*
X124161904Y-105547619D01*
X124114285Y-105642857D01*
X124114285Y-105738095D01*
X124161904Y-105880952D01*
X124733333Y-106452380D01*
X124114285Y-106452380D01*
D13*
G04 #@! TO.C,R48*
X115972936Y-89535000D02*
X116427064Y-89535000D01*
X115972936Y-88065000D02*
X116427064Y-88065000D01*
G04 #@! TO.C,U12*
X149425000Y-106560000D02*
X145975000Y-106560000D01*
X149425000Y-106560000D02*
X151375000Y-106560000D01*
X149425000Y-101440000D02*
X147475000Y-101440000D01*
X149425000Y-101440000D02*
X151375000Y-101440000D01*
G04 #@! TO.C,R18*
X155672936Y-101330000D02*
X156127064Y-101330000D01*
X155672936Y-102800000D02*
X156127064Y-102800000D01*
G04 #@! TO.C,R21*
X131672936Y-117535000D02*
X132127064Y-117535000D01*
X131672936Y-116065000D02*
X132127064Y-116065000D01*
G04 #@! TO.C,R17*
X155672936Y-108200000D02*
X156127064Y-108200000D01*
X155672936Y-106730000D02*
X156127064Y-106730000D01*
G04 #@! TO.C,Q13*
X143225000Y-108940000D02*
X142575000Y-108940000D01*
X143225000Y-112060000D02*
X143875000Y-112060000D01*
X143225000Y-108940000D02*
X143875000Y-108940000D01*
X143225000Y-112060000D02*
X141550000Y-112060000D01*
G04 #@! TO.C,R24*
X115565000Y-111972936D02*
X115565000Y-112427064D01*
X117035000Y-111972936D02*
X117035000Y-112427064D01*
G04 #@! TO.C,R37*
X153372936Y-85965000D02*
X153827064Y-85965000D01*
X153372936Y-87435000D02*
X153827064Y-87435000D01*
G04 #@! TO.C,R39*
X153372936Y-83635000D02*
X153827064Y-83635000D01*
X153372936Y-82165000D02*
X153827064Y-82165000D01*
G04 #@! TO.C,R35*
X153372936Y-91235000D02*
X153827064Y-91235000D01*
X153372936Y-89765000D02*
X153827064Y-89765000D01*
G04 #@! TO.C,Q17*
X155900000Y-103205000D02*
X155250000Y-103205000D01*
X155900000Y-103205000D02*
X156550000Y-103205000D01*
X155900000Y-106325000D02*
X156550000Y-106325000D01*
X155900000Y-106325000D02*
X154225000Y-106325000D01*
G04 #@! TO.C,D29*
X129350000Y-88500000D02*
X123050000Y-88500000D01*
X129350000Y-86500000D02*
X129350000Y-88500000D01*
X123050000Y-86500000D02*
X129350000Y-86500000D01*
G04 #@! TO.C,R25*
X115565000Y-108272936D02*
X115565000Y-108727064D01*
X117035000Y-108272936D02*
X117035000Y-108727064D01*
G04 #@! TO.C,R29*
X120227064Y-86165000D02*
X119772936Y-86165000D01*
X120227064Y-87635000D02*
X119772936Y-87635000D01*
G04 #@! TO.C,R11*
X155672936Y-112035000D02*
X156127064Y-112035000D01*
X155672936Y-110565000D02*
X156127064Y-110565000D01*
G04 #@! TO.C,R38*
X153372936Y-85535000D02*
X153827064Y-85535000D01*
X153372936Y-84065000D02*
X153827064Y-84065000D01*
G04 #@! TO.C,Q29*
X120000000Y-91160000D02*
X118325000Y-91160000D01*
X120000000Y-88040000D02*
X119350000Y-88040000D01*
X120000000Y-88040000D02*
X120650000Y-88040000D01*
X120000000Y-91160000D02*
X120650000Y-91160000D01*
G04 #@! TO.C,R26*
X119467064Y-105765000D02*
X119012936Y-105765000D01*
X119467064Y-107235000D02*
X119012936Y-107235000D01*
G04 #@! TO.C,Q15*
X143225000Y-105260000D02*
X143875000Y-105260000D01*
X143225000Y-102140000D02*
X143875000Y-102140000D01*
X143225000Y-105260000D02*
X141550000Y-105260000D01*
X143225000Y-102140000D02*
X142575000Y-102140000D01*
G04 #@! TO.C,R47*
X115972936Y-91435000D02*
X116427064Y-91435000D01*
X115972936Y-89965000D02*
X116427064Y-89965000D01*
G04 #@! TO.C,R13*
X141060000Y-110172936D02*
X141060000Y-110627064D01*
X139590000Y-110172936D02*
X139590000Y-110627064D01*
G04 #@! TO.C,R19*
X157527064Y-82165000D02*
X157072936Y-82165000D01*
X157527064Y-83635000D02*
X157072936Y-83635000D01*
G04 #@! TO.C,R27*
X131672936Y-112265000D02*
X132127064Y-112265000D01*
X131672936Y-113735000D02*
X132127064Y-113735000D01*
G04 #@! TO.C,R49*
X115972936Y-86165000D02*
X116427064Y-86165000D01*
X115972936Y-87635000D02*
X116427064Y-87635000D01*
G04 #@! TO.C,Q23*
X119200000Y-114440000D02*
X119850000Y-114440000D01*
X119200000Y-117560000D02*
X117525000Y-117560000D01*
X119200000Y-117560000D02*
X119850000Y-117560000D01*
X119200000Y-114440000D02*
X118550000Y-114440000D01*
G04 #@! TO.C,Q27*
X131900000Y-108740000D02*
X131250000Y-108740000D01*
X131900000Y-111860000D02*
X132550000Y-111860000D01*
X131900000Y-108740000D02*
X132550000Y-108740000D01*
X131900000Y-111860000D02*
X130225000Y-111860000D01*
G04 #@! TO.C,R46*
X115972936Y-91865000D02*
X116427064Y-91865000D01*
X115972936Y-93335000D02*
X116427064Y-93335000D01*
G04 #@! TO.C,U11*
X149425000Y-106940000D02*
X151375000Y-106940000D01*
X149425000Y-112060000D02*
X151375000Y-112060000D01*
X149425000Y-106940000D02*
X147475000Y-106940000D01*
X149425000Y-112060000D02*
X145975000Y-112060000D01*
G04 #@! TO.C,R34*
X153372936Y-91665000D02*
X153827064Y-91665000D01*
X153372936Y-93135000D02*
X153827064Y-93135000D01*
G04 #@! TO.C,R42*
X115972936Y-99465000D02*
X116427064Y-99465000D01*
X115972936Y-100935000D02*
X116427064Y-100935000D01*
G04 #@! TO.C,R43*
X115972936Y-97565000D02*
X116427064Y-97565000D01*
X115972936Y-99035000D02*
X116427064Y-99035000D01*
G04 #@! TO.C,U21*
X125440000Y-117560000D02*
X127390000Y-117560000D01*
X125440000Y-112440000D02*
X127390000Y-112440000D01*
X125440000Y-117560000D02*
X121990000Y-117560000D01*
X125440000Y-112440000D02*
X123490000Y-112440000D01*
G04 #@! TO.C,R12*
X155672936Y-110100000D02*
X156127064Y-110100000D01*
X155672936Y-108630000D02*
X156127064Y-108630000D01*
G04 #@! TO.C,R44*
X115972936Y-95665000D02*
X116427064Y-95665000D01*
X115972936Y-97135000D02*
X116427064Y-97135000D01*
G04 #@! TO.C,R28*
X131672936Y-106865000D02*
X132127064Y-106865000D01*
X131672936Y-108335000D02*
X132127064Y-108335000D01*
G04 #@! TO.C,R23*
X115565000Y-115672936D02*
X115565000Y-116127064D01*
X117035000Y-115672936D02*
X117035000Y-116127064D01*
G04 #@! TO.C,R14*
X141060000Y-106472936D02*
X141060000Y-106927064D01*
X139590000Y-106472936D02*
X139590000Y-106927064D01*
G04 #@! TO.C,Q25*
X119200000Y-110760000D02*
X117525000Y-110760000D01*
X119200000Y-110760000D02*
X119850000Y-110760000D01*
X119200000Y-107640000D02*
X118550000Y-107640000D01*
X119200000Y-107640000D02*
X119850000Y-107640000D01*
G04 #@! TO.C,R33*
X153372936Y-95035000D02*
X153827064Y-95035000D01*
X153372936Y-93565000D02*
X153827064Y-93565000D01*
G04 #@! TO.C,R22*
X131672936Y-114165000D02*
X132127064Y-114165000D01*
X131672936Y-115635000D02*
X132127064Y-115635000D01*
G04 #@! TO.C,Q19*
X157400000Y-84040000D02*
X156750000Y-84040000D01*
X157400000Y-87160000D02*
X158050000Y-87160000D01*
X157400000Y-84040000D02*
X158050000Y-84040000D01*
X157400000Y-87160000D02*
X155725000Y-87160000D01*
G04 #@! TO.C,R16*
X143452064Y-100265000D02*
X142997936Y-100265000D01*
X143452064Y-101735000D02*
X142997936Y-101735000D01*
G04 #@! TO.C,R31*
X153372936Y-98835000D02*
X153827064Y-98835000D01*
X153372936Y-97365000D02*
X153827064Y-97365000D01*
G04 #@! TO.C,R32*
X153372936Y-96935000D02*
X153827064Y-96935000D01*
X153372936Y-95465000D02*
X153827064Y-95465000D01*
G04 #@! TO.C,R41*
X115972936Y-102835000D02*
X116427064Y-102835000D01*
X115972936Y-101365000D02*
X116427064Y-101365000D01*
G04 #@! TO.C,D19*
X143250000Y-88800000D02*
X143250000Y-86800000D01*
X143250000Y-86800000D02*
X149550000Y-86800000D01*
X149550000Y-88800000D02*
X143250000Y-88800000D01*
G04 #@! TO.C,Q14*
X143225000Y-108660000D02*
X143875000Y-108660000D01*
X143225000Y-105540000D02*
X143875000Y-105540000D01*
X143225000Y-108660000D02*
X141550000Y-108660000D01*
X143225000Y-105540000D02*
X142575000Y-105540000D01*
G04 #@! TO.C,R15*
X141060000Y-102772936D02*
X141060000Y-103227064D01*
X139590000Y-102772936D02*
X139590000Y-103227064D01*
G04 #@! TO.C,R36*
X153372936Y-87865000D02*
X153827064Y-87865000D01*
X153372936Y-89335000D02*
X153827064Y-89335000D01*
G04 #@! TO.C,U22*
X125440000Y-112060000D02*
X127390000Y-112060000D01*
X125440000Y-106940000D02*
X123490000Y-106940000D01*
X125440000Y-106940000D02*
X127390000Y-106940000D01*
X125440000Y-112060000D02*
X121990000Y-112060000D01*
G04 #@! TO.C,R45*
X115972936Y-95235000D02*
X116427064Y-95235000D01*
X115972936Y-93765000D02*
X116427064Y-93765000D01*
G04 #@! TO.C,Q24*
X119200000Y-114160000D02*
X117525000Y-114160000D01*
X119200000Y-111040000D02*
X118550000Y-111040000D01*
X119200000Y-111040000D02*
X119850000Y-111040000D01*
X119200000Y-114160000D02*
X119850000Y-114160000D01*
G04 #@! TD*
%LPC*%
D14*
G04 #@! TO.C,JP1*
X92300000Y-105600000D03*
D15*
X94840000Y-105600000D03*
G04 #@! TD*
D16*
G04 #@! TO.C,J1*
X101000000Y-111040000D03*
D17*
X102270000Y-111040000D03*
X101000000Y-109770000D03*
X102270000Y-109770000D03*
X101000000Y-108500000D03*
X102270000Y-108500000D03*
X101000000Y-107230000D03*
X102270000Y-107230000D03*
X101000000Y-105960000D03*
X102270000Y-105960000D03*
G04 #@! TD*
D18*
G04 #@! TO.C,J12*
X122000000Y-91500000D03*
D19*
X124540000Y-91500000D03*
X122000000Y-94040000D03*
X124540000Y-94040000D03*
X122000000Y-96580000D03*
X124540000Y-96580000D03*
X124540000Y-99120000D03*
X122000000Y-101660000D03*
X124540000Y-101660000D03*
G04 #@! TD*
D14*
G04 #@! TO.C,J8*
X94300000Y-90100000D03*
D15*
X94300000Y-92640000D03*
G04 #@! TD*
D14*
G04 #@! TO.C,J3*
X94325000Y-101270000D03*
D15*
X91785000Y-101270000D03*
X94325000Y-98730000D03*
X91785000Y-98730000D03*
G04 #@! TD*
D14*
G04 #@! TO.C,J16*
X158000000Y-117800000D03*
D15*
X158000000Y-115260000D03*
G04 #@! TD*
D14*
G04 #@! TO.C,J21*
X113810000Y-84000000D03*
D15*
X111270000Y-84000000D03*
X108730000Y-84000000D03*
G04 #@! TD*
D16*
G04 #@! TO.C,J2*
X101000000Y-94040000D03*
D17*
X102270000Y-94040000D03*
X101000000Y-92770000D03*
X102270000Y-92770000D03*
X101000000Y-91500000D03*
X102270000Y-91500000D03*
X101000000Y-90230000D03*
X102270000Y-90230000D03*
X101000000Y-88960000D03*
X102270000Y-88960000D03*
G04 #@! TD*
D14*
G04 #@! TO.C,J5*
X94325000Y-84760000D03*
D15*
X91785000Y-84760000D03*
X94325000Y-82220000D03*
X91785000Y-82220000D03*
G04 #@! TD*
D14*
G04 #@! TO.C,J4*
X94325000Y-117780000D03*
D15*
X91785000Y-117780000D03*
X94325000Y-115240000D03*
X91785000Y-115240000D03*
G04 #@! TD*
D18*
G04 #@! TO.C,J14*
X146000000Y-91500000D03*
D19*
X148540000Y-91500000D03*
X146000000Y-94040000D03*
X148540000Y-94040000D03*
X146000000Y-96580000D03*
X148540000Y-96580000D03*
G04 #@! TD*
D18*
G04 #@! TO.C,J11*
X110000000Y-91500000D03*
D19*
X112540000Y-91500000D03*
X110000000Y-94040000D03*
X112540000Y-94040000D03*
X110000000Y-96580000D03*
X112540000Y-96580000D03*
X110000000Y-99120000D03*
X112540000Y-99120000D03*
X110000000Y-101660000D03*
X112540000Y-101660000D03*
X110000000Y-104200000D03*
X112540000Y-104200000D03*
X110000000Y-106740000D03*
X112540000Y-106740000D03*
X110000000Y-109280000D03*
X112540000Y-109280000D03*
X110000000Y-111820000D03*
X112540000Y-111820000D03*
X110000000Y-114360000D03*
X112540000Y-114360000D03*
G04 #@! TD*
D14*
G04 #@! TO.C,J23*
X137810000Y-84000000D03*
D15*
X135270000Y-84000000D03*
X132730000Y-84000000D03*
G04 #@! TD*
D14*
G04 #@! TO.C,JP2*
X92300000Y-109400000D03*
D15*
X94840000Y-109400000D03*
G04 #@! TD*
D18*
G04 #@! TO.C,J13*
X134000000Y-91500000D03*
D19*
X136540000Y-91500000D03*
X134000000Y-94040000D03*
X136540000Y-94040000D03*
X134000000Y-96580000D03*
X136540000Y-96580000D03*
X136540000Y-99120000D03*
X134000000Y-101660000D03*
X136540000Y-101660000D03*
G04 #@! TD*
D14*
G04 #@! TO.C,J15*
X158000000Y-91500000D03*
D15*
X158000000Y-94040000D03*
X158000000Y-96580000D03*
X158000000Y-99120000D03*
G04 #@! TD*
D14*
G04 #@! TO.C,J24*
X149810000Y-84000000D03*
D15*
X147270000Y-84000000D03*
X144730000Y-84000000D03*
G04 #@! TD*
D14*
G04 #@! TO.C,J9*
X138000000Y-117800000D03*
D15*
X138000000Y-115260000D03*
X138000000Y-112720000D03*
G04 #@! TD*
D14*
G04 #@! TO.C,J22*
X125810000Y-84000000D03*
D15*
X123270000Y-84000000D03*
X120730000Y-84000000D03*
G04 #@! TD*
D20*
G04 #@! TO.C,R48*
X115200000Y-88800000D03*
X117200000Y-88800000D03*
G04 #@! TD*
D21*
G04 #@! TO.C,U12*
X146600000Y-105905000D03*
X146600000Y-104635000D03*
X146600000Y-103365000D03*
X146600000Y-102095000D03*
X152250000Y-102095000D03*
X152250000Y-103365000D03*
X152250000Y-104635000D03*
X152250000Y-105905000D03*
G04 #@! TD*
D20*
G04 #@! TO.C,R18*
X154900000Y-102065000D03*
X156900000Y-102065000D03*
G04 #@! TD*
G04 #@! TO.C,R21*
X130900000Y-116800000D03*
X132900000Y-116800000D03*
G04 #@! TD*
G04 #@! TO.C,R17*
X154900000Y-107465000D03*
X156900000Y-107465000D03*
G04 #@! TD*
D22*
G04 #@! TO.C,Q13*
X142287500Y-111450000D03*
X142287500Y-109550000D03*
X144162500Y-110500000D03*
G04 #@! TD*
D23*
G04 #@! TO.C,R24*
X116300000Y-111200000D03*
X116300000Y-113200000D03*
G04 #@! TD*
D20*
G04 #@! TO.C,R37*
X152600000Y-86700000D03*
X154600000Y-86700000D03*
G04 #@! TD*
G04 #@! TO.C,R39*
X152600000Y-82900000D03*
X154600000Y-82900000D03*
G04 #@! TD*
G04 #@! TO.C,R35*
X152600000Y-90500000D03*
X154600000Y-90500000D03*
G04 #@! TD*
D22*
G04 #@! TO.C,Q17*
X154962500Y-105715000D03*
X154962500Y-103815000D03*
X156837500Y-104765000D03*
G04 #@! TD*
D24*
G04 #@! TO.C,D29*
X128050000Y-87500000D03*
X123550000Y-87500000D03*
G04 #@! TD*
D23*
G04 #@! TO.C,R25*
X116300000Y-107500000D03*
X116300000Y-109500000D03*
G04 #@! TD*
D25*
G04 #@! TO.C,R29*
X121000000Y-86900000D03*
X119000000Y-86900000D03*
G04 #@! TD*
D20*
G04 #@! TO.C,R11*
X154900000Y-111300000D03*
X156900000Y-111300000D03*
G04 #@! TD*
G04 #@! TO.C,R38*
X152600000Y-84800000D03*
X154600000Y-84800000D03*
G04 #@! TD*
D22*
G04 #@! TO.C,Q29*
X119062500Y-90550000D03*
X119062500Y-88650000D03*
X120937500Y-89600000D03*
G04 #@! TD*
D25*
G04 #@! TO.C,R26*
X120240000Y-106500000D03*
X118240000Y-106500000D03*
G04 #@! TD*
D22*
G04 #@! TO.C,Q15*
X142287500Y-104650000D03*
X142287500Y-102750000D03*
X144162500Y-103700000D03*
G04 #@! TD*
D20*
G04 #@! TO.C,R47*
X115200000Y-90700000D03*
X117200000Y-90700000D03*
G04 #@! TD*
D23*
G04 #@! TO.C,R13*
X140325000Y-109400000D03*
X140325000Y-111400000D03*
G04 #@! TD*
D25*
G04 #@! TO.C,R19*
X158300000Y-82900000D03*
X156300000Y-82900000D03*
G04 #@! TD*
D20*
G04 #@! TO.C,R27*
X130900000Y-113000000D03*
X132900000Y-113000000D03*
G04 #@! TD*
G04 #@! TO.C,R49*
X115200000Y-86900000D03*
X117200000Y-86900000D03*
G04 #@! TD*
D22*
G04 #@! TO.C,Q23*
X118262500Y-116950000D03*
X118262500Y-115050000D03*
X120137500Y-116000000D03*
G04 #@! TD*
G04 #@! TO.C,Q27*
X130962500Y-111250000D03*
X130962500Y-109350000D03*
X132837500Y-110300000D03*
G04 #@! TD*
D20*
G04 #@! TO.C,R46*
X115200000Y-92600000D03*
X117200000Y-92600000D03*
G04 #@! TD*
D21*
G04 #@! TO.C,U11*
X146600000Y-111405000D03*
X146600000Y-110135000D03*
X146600000Y-108865000D03*
X146600000Y-107595000D03*
X152250000Y-107595000D03*
X152250000Y-108865000D03*
X152250000Y-110135000D03*
X152250000Y-111405000D03*
G04 #@! TD*
D20*
G04 #@! TO.C,R34*
X152600000Y-92400000D03*
X154600000Y-92400000D03*
G04 #@! TD*
G04 #@! TO.C,R42*
X115200000Y-100200000D03*
X117200000Y-100200000D03*
G04 #@! TD*
G04 #@! TO.C,R43*
X115200000Y-98300000D03*
X117200000Y-98300000D03*
G04 #@! TD*
D21*
G04 #@! TO.C,U21*
X122615000Y-116905000D03*
X122615000Y-115635000D03*
X122615000Y-114365000D03*
X122615000Y-113095000D03*
X128265000Y-113095000D03*
X128265000Y-114365000D03*
X128265000Y-115635000D03*
X128265000Y-116905000D03*
G04 #@! TD*
D20*
G04 #@! TO.C,R12*
X154900000Y-109365000D03*
X156900000Y-109365000D03*
G04 #@! TD*
G04 #@! TO.C,R44*
X115200000Y-96400000D03*
X117200000Y-96400000D03*
G04 #@! TD*
G04 #@! TO.C,R28*
X130900000Y-107600000D03*
X132900000Y-107600000D03*
G04 #@! TD*
D23*
G04 #@! TO.C,R23*
X116300000Y-114900000D03*
X116300000Y-116900000D03*
G04 #@! TD*
G04 #@! TO.C,R14*
X140325000Y-105700000D03*
X140325000Y-107700000D03*
G04 #@! TD*
D22*
G04 #@! TO.C,Q25*
X118262500Y-110150000D03*
X118262500Y-108250000D03*
X120137500Y-109200000D03*
G04 #@! TD*
D20*
G04 #@! TO.C,R33*
X152600000Y-94300000D03*
X154600000Y-94300000D03*
G04 #@! TD*
G04 #@! TO.C,R22*
X130900000Y-114900000D03*
X132900000Y-114900000D03*
G04 #@! TD*
D22*
G04 #@! TO.C,Q19*
X156462500Y-86550000D03*
X156462500Y-84650000D03*
X158337500Y-85600000D03*
G04 #@! TD*
D25*
G04 #@! TO.C,R16*
X144225000Y-101000000D03*
X142225000Y-101000000D03*
G04 #@! TD*
D20*
G04 #@! TO.C,R31*
X152600000Y-98100000D03*
X154600000Y-98100000D03*
G04 #@! TD*
G04 #@! TO.C,R32*
X152600000Y-96200000D03*
X154600000Y-96200000D03*
G04 #@! TD*
G04 #@! TO.C,R41*
X115200000Y-102100000D03*
X117200000Y-102100000D03*
G04 #@! TD*
D24*
G04 #@! TO.C,D19*
X144550000Y-87800000D03*
X149050000Y-87800000D03*
G04 #@! TD*
D22*
G04 #@! TO.C,Q14*
X142287500Y-108050000D03*
X142287500Y-106150000D03*
X144162500Y-107100000D03*
G04 #@! TD*
D23*
G04 #@! TO.C,R15*
X140325000Y-102000000D03*
X140325000Y-104000000D03*
G04 #@! TD*
D20*
G04 #@! TO.C,R36*
X152600000Y-88600000D03*
X154600000Y-88600000D03*
G04 #@! TD*
D21*
G04 #@! TO.C,U22*
X122615000Y-111405000D03*
X122615000Y-110135000D03*
X122615000Y-108865000D03*
X122615000Y-107595000D03*
X128265000Y-107595000D03*
X128265000Y-108865000D03*
X128265000Y-110135000D03*
X128265000Y-111405000D03*
G04 #@! TD*
D20*
G04 #@! TO.C,R45*
X115200000Y-94500000D03*
X117200000Y-94500000D03*
G04 #@! TD*
D22*
G04 #@! TO.C,Q24*
X118262500Y-113550000D03*
X118262500Y-111650000D03*
X120137500Y-112600000D03*
G04 #@! TD*
M02*
