G04 #@! TF.GenerationSoftware,KiCad,Pcbnew,(6.0.2-0)*
G04 #@! TF.CreationDate,2022-06-21T16:35:03+02:00*
G04 #@! TF.ProjectId,ATMEL-ICE-Octopus,41544d45-4c2d-4494-9345-2d4f63746f70,A1*
G04 #@! TF.SameCoordinates,Original*
G04 #@! TF.FileFunction,Legend,Top*
G04 #@! TF.FilePolarity,Positive*
%FSLAX46Y46*%
G04 Gerber Fmt 4.6, Leading zero omitted, Abs format (unit mm)*
G04 Created by KiCad (PCBNEW (6.0.2-0)) date 2022-06-21 16:35:03*
%MOMM*%
%LPD*%
G01*
G04 APERTURE LIST*
G04 Aperture macros list*
%AMRoundRect*
0 Rectangle with rounded corners*
0 $1 Rounding radius*
0 $2 $3 $4 $5 $6 $7 $8 $9 X,Y pos of 4 corners*
0 Add a 4 corners polygon primitive as box body*
4,1,4,$2,$3,$4,$5,$6,$7,$8,$9,$2,$3,0*
0 Add four circle primitives for the rounded corners*
1,1,$1+$1,$2,$3*
1,1,$1+$1,$4,$5*
1,1,$1+$1,$6,$7*
1,1,$1+$1,$8,$9*
0 Add four rect primitives between the rounded corners*
20,1,$1+$1,$2,$3,$4,$5,0*
20,1,$1+$1,$4,$5,$6,$7,0*
20,1,$1+$1,$6,$7,$8,$9,0*
20,1,$1+$1,$8,$9,$2,$3,0*%
G04 Aperture macros list end*
%ADD10C,0.150000*%
%ADD11C,0.200000*%
%ADD12C,0.250000*%
%ADD13C,0.180000*%
%ADD14C,0.220000*%
%ADD15C,0.154000*%
%ADD16C,0.120000*%
%ADD17R,1.700000X1.700000*%
%ADD18O,1.700000X1.700000*%
%ADD19R,1.000000X1.000000*%
%ADD20O,1.000000X1.000000*%
%ADD21RoundRect,0.250000X-0.600000X-0.600000X0.600000X-0.600000X0.600000X0.600000X-0.600000X0.600000X0*%
%ADD22C,1.700000*%
%ADD23RoundRect,0.250000X-0.450000X0.325000X-0.450000X-0.325000X0.450000X-0.325000X0.450000X0.325000X0*%
G04 APERTURE END LIST*
D10*
X131800000Y-81500000D02*
X131400000Y-81500000D01*
X97200000Y-112200000D02*
X98800000Y-112200000D01*
X112500000Y-81500000D02*
X112100000Y-81500000D01*
X107400000Y-82300000D02*
X107400000Y-81500000D01*
D11*
X131750000Y-108600000D02*
X133100000Y-108600000D01*
D10*
X124500000Y-82300000D02*
X124500000Y-81500000D01*
X96400000Y-109400000D02*
X97100000Y-110000000D01*
X160300000Y-104100000D02*
X149300000Y-104100000D01*
X136500000Y-81500000D02*
X136100000Y-81500000D01*
X106700000Y-81500000D02*
X106200000Y-82100000D01*
X122900000Y-119500000D02*
X140000000Y-119500000D01*
X122900000Y-110600000D02*
X140000000Y-110600000D01*
X147900000Y-119500000D02*
X140400000Y-119500000D01*
X96400000Y-105600000D02*
X98800000Y-105600000D01*
X143400000Y-82300000D02*
X143400000Y-81500000D01*
D11*
X135300000Y-115500000D02*
X136300000Y-115500000D01*
D10*
X140000000Y-110600000D02*
X140000000Y-119500000D01*
X96400000Y-109400000D02*
X97100000Y-108700000D01*
D11*
X135300000Y-117800000D02*
X135300000Y-115500000D01*
D10*
X96400000Y-109400000D02*
X97900000Y-109400000D01*
D11*
X135300000Y-112700000D02*
X135300000Y-115000000D01*
D10*
X143800000Y-81500000D02*
X143400000Y-81500000D01*
X97900000Y-109400000D02*
X97900000Y-112200000D01*
X112500000Y-82300000D02*
X112500000Y-81500000D01*
X119400000Y-82300000D02*
X119400000Y-81500000D01*
X97200000Y-112200000D02*
X97200000Y-117000000D01*
X106700000Y-81500000D02*
X106200000Y-81000000D01*
X105600000Y-81500000D02*
X106700000Y-81500000D01*
D11*
X135300000Y-115000000D02*
X136300000Y-115000000D01*
D10*
X98800000Y-105600000D02*
X98800000Y-112200000D01*
X149300000Y-119500000D02*
X160300000Y-119500000D01*
X136500000Y-82300000D02*
X136500000Y-81500000D01*
D11*
X135300000Y-112700000D02*
X136300000Y-112700000D01*
D10*
X149300000Y-104100000D02*
X149300000Y-119500000D01*
D11*
X126800000Y-108600000D02*
X125500000Y-108600000D01*
D10*
X107800000Y-81500000D02*
X107400000Y-81500000D01*
X122900000Y-110600000D02*
X122900000Y-119500000D01*
X105500000Y-80500000D02*
X105500000Y-84600000D01*
X148500000Y-81500000D02*
X148100000Y-81500000D01*
D11*
X135300000Y-117800000D02*
X136300000Y-117800000D01*
D10*
X124500000Y-81500000D02*
X124100000Y-81500000D01*
X131400000Y-82300000D02*
X131400000Y-81500000D01*
X147900000Y-105700000D02*
X147900000Y-119500000D01*
X160300000Y-119500000D02*
X160300000Y-104100000D01*
X96400000Y-105600000D02*
X97100000Y-106200000D01*
X140400000Y-105700000D02*
X140400000Y-119500000D01*
X148500000Y-82300000D02*
X148500000Y-81500000D01*
X147900000Y-105700000D02*
X140400000Y-105700000D01*
X119800000Y-81500000D02*
X119400000Y-81500000D01*
X96400000Y-105600000D02*
X97100000Y-104900000D01*
D11*
X152478571Y-114014285D02*
X152478571Y-113728571D01*
X152550000Y-113585714D01*
X152692857Y-113442857D01*
X152978571Y-113371428D01*
X153478571Y-113371428D01*
X153764285Y-113442857D01*
X153907142Y-113585714D01*
X153978571Y-113728571D01*
X153978571Y-114014285D01*
X153907142Y-114157142D01*
X153764285Y-114300000D01*
X153478571Y-114371428D01*
X152978571Y-114371428D01*
X152692857Y-114300000D01*
X152550000Y-114157142D01*
X152478571Y-114014285D01*
X152478571Y-112942857D02*
X153978571Y-112442857D01*
X152478571Y-111942857D01*
X153192857Y-111442857D02*
X153192857Y-110942857D01*
X153978571Y-110728571D02*
X153978571Y-111442857D01*
X152478571Y-111442857D01*
X152478571Y-110728571D01*
X153978571Y-109228571D02*
X153264285Y-109728571D01*
X153978571Y-110085714D02*
X152478571Y-110085714D01*
X152478571Y-109514285D01*
X152550000Y-109371428D01*
X152621428Y-109300000D01*
X152764285Y-109228571D01*
X152978571Y-109228571D01*
X153121428Y-109300000D01*
X153192857Y-109371428D01*
X153264285Y-109514285D01*
X153264285Y-110085714D01*
X127350000Y-107878571D02*
X127350000Y-108950000D01*
X127278571Y-109164285D01*
X127135714Y-109307142D01*
X126921428Y-109378571D01*
X126778571Y-109378571D01*
X127850000Y-107878571D02*
X128707142Y-107878571D01*
X128278571Y-109378571D02*
X128278571Y-107878571D01*
X129135714Y-108950000D02*
X129850000Y-108950000D01*
X128992857Y-109378571D02*
X129492857Y-107878571D01*
X129992857Y-109378571D01*
X131278571Y-107950000D02*
X131135714Y-107878571D01*
X130921428Y-107878571D01*
X130707142Y-107950000D01*
X130564285Y-108092857D01*
X130492857Y-108235714D01*
X130421428Y-108521428D01*
X130421428Y-108735714D01*
X130492857Y-109021428D01*
X130564285Y-109164285D01*
X130707142Y-109307142D01*
X130921428Y-109378571D01*
X131064285Y-109378571D01*
X131278571Y-109307142D01*
X131350000Y-109235714D01*
X131350000Y-108735714D01*
X131064285Y-108735714D01*
X145878571Y-114014285D02*
X145878571Y-113728571D01*
X145950000Y-113585714D01*
X146092857Y-113442857D01*
X146378571Y-113371428D01*
X146878571Y-113371428D01*
X147164285Y-113442857D01*
X147307142Y-113585714D01*
X147378571Y-113728571D01*
X147378571Y-114014285D01*
X147307142Y-114157142D01*
X147164285Y-114300000D01*
X146878571Y-114371428D01*
X146378571Y-114371428D01*
X146092857Y-114300000D01*
X145950000Y-114157142D01*
X145878571Y-114014285D01*
X145878571Y-112942857D02*
X147378571Y-112442857D01*
X145878571Y-111942857D01*
X146592857Y-111442857D02*
X146592857Y-110942857D01*
X147378571Y-110728571D02*
X147378571Y-111442857D01*
X145878571Y-111442857D01*
X145878571Y-110728571D01*
X147378571Y-109228571D02*
X146664285Y-109728571D01*
X147378571Y-110085714D02*
X145878571Y-110085714D01*
X145878571Y-109514285D01*
X145950000Y-109371428D01*
X146021428Y-109300000D01*
X146164285Y-109228571D01*
X146378571Y-109228571D01*
X146521428Y-109300000D01*
X146592857Y-109371428D01*
X146664285Y-109514285D01*
X146664285Y-110085714D01*
D12*
X133366666Y-109033333D02*
X134319047Y-109033333D01*
X133176190Y-109604761D02*
X133842857Y-107604761D01*
X134509523Y-109604761D01*
X134890476Y-107604761D02*
X135557142Y-109604761D01*
X136223809Y-107604761D01*
X138033333Y-109604761D02*
X137366666Y-108652380D01*
X136890476Y-109604761D02*
X136890476Y-107604761D01*
X137652380Y-107604761D01*
X137842857Y-107700000D01*
X137938095Y-107795238D01*
X138033333Y-107985714D01*
X138033333Y-108271428D01*
X137938095Y-108461904D01*
X137842857Y-108557142D01*
X137652380Y-108652380D01*
X136890476Y-108652380D01*
D13*
X95870809Y-91958095D02*
X96304142Y-93258095D01*
X96737476Y-91958095D01*
X96985095Y-91958095D02*
X97727952Y-91958095D01*
X97356523Y-93258095D02*
X97356523Y-91958095D01*
X98842238Y-92020000D02*
X98718428Y-91958095D01*
X98532714Y-91958095D01*
X98347000Y-92020000D01*
X98223190Y-92143809D01*
X98161285Y-92267619D01*
X98099380Y-92515238D01*
X98099380Y-92700952D01*
X98161285Y-92948571D01*
X98223190Y-93072380D01*
X98347000Y-93196190D01*
X98532714Y-93258095D01*
X98656523Y-93258095D01*
X98842238Y-93196190D01*
X98904142Y-93134285D01*
X98904142Y-92700952D01*
X98656523Y-92700952D01*
D12*
X144052380Y-104409523D02*
X144338095Y-104504761D01*
X144814285Y-104504761D01*
X145004761Y-104409523D01*
X145100000Y-104314285D01*
X145195238Y-104123809D01*
X145195238Y-103933333D01*
X145100000Y-103742857D01*
X145004761Y-103647619D01*
X144814285Y-103552380D01*
X144433333Y-103457142D01*
X144242857Y-103361904D01*
X144147619Y-103266666D01*
X144052380Y-103076190D01*
X144052380Y-102885714D01*
X144147619Y-102695238D01*
X144242857Y-102600000D01*
X144433333Y-102504761D01*
X144909523Y-102504761D01*
X145195238Y-102600000D01*
X146052380Y-104504761D02*
X146052380Y-102504761D01*
X146814285Y-102504761D01*
X147004761Y-102600000D01*
X147100000Y-102695238D01*
X147195238Y-102885714D01*
X147195238Y-103171428D01*
X147100000Y-103361904D01*
X147004761Y-103457142D01*
X146814285Y-103552380D01*
X146052380Y-103552380D01*
X148052380Y-104504761D02*
X148052380Y-102504761D01*
X119980952Y-109033333D02*
X120933333Y-109033333D01*
X119790476Y-109604761D02*
X120457142Y-107604761D01*
X121123809Y-109604761D01*
X122933333Y-109604761D02*
X122266666Y-108652380D01*
X121790476Y-109604761D02*
X121790476Y-107604761D01*
X122552380Y-107604761D01*
X122742857Y-107700000D01*
X122838095Y-107795238D01*
X122933333Y-107985714D01*
X122933333Y-108271428D01*
X122838095Y-108461904D01*
X122742857Y-108557142D01*
X122552380Y-108652380D01*
X121790476Y-108652380D01*
X123790476Y-109604761D02*
X123790476Y-107604761D01*
X124457142Y-109033333D01*
X125123809Y-107604761D01*
X125123809Y-109604761D01*
D11*
X150378571Y-114252857D02*
X151592857Y-114252857D01*
X151735714Y-114181428D01*
X151807142Y-114110000D01*
X151878571Y-113967142D01*
X151878571Y-113681428D01*
X151807142Y-113538571D01*
X151735714Y-113467142D01*
X151592857Y-113395714D01*
X150378571Y-113395714D01*
X151807142Y-112752857D02*
X151878571Y-112538571D01*
X151878571Y-112181428D01*
X151807142Y-112038571D01*
X151735714Y-111967142D01*
X151592857Y-111895714D01*
X151450000Y-111895714D01*
X151307142Y-111967142D01*
X151235714Y-112038571D01*
X151164285Y-112181428D01*
X151092857Y-112467142D01*
X151021428Y-112610000D01*
X150950000Y-112681428D01*
X150807142Y-112752857D01*
X150664285Y-112752857D01*
X150521428Y-112681428D01*
X150450000Y-112610000D01*
X150378571Y-112467142D01*
X150378571Y-112110000D01*
X150450000Y-111895714D01*
X151878571Y-111252857D02*
X150378571Y-111252857D01*
X151878571Y-110538571D02*
X150378571Y-110538571D01*
X151878571Y-109681428D01*
X150378571Y-109681428D01*
X150450000Y-108181428D02*
X150378571Y-108324285D01*
X150378571Y-108538571D01*
X150450000Y-108752857D01*
X150592857Y-108895714D01*
X150735714Y-108967142D01*
X151021428Y-109038571D01*
X151235714Y-109038571D01*
X151521428Y-108967142D01*
X151664285Y-108895714D01*
X151807142Y-108752857D01*
X151878571Y-108538571D01*
X151878571Y-108395714D01*
X151807142Y-108181428D01*
X151735714Y-108110000D01*
X151235714Y-108110000D01*
X151235714Y-108395714D01*
D13*
X96737476Y-89450000D02*
X96613666Y-89388095D01*
X96427952Y-89388095D01*
X96242238Y-89450000D01*
X96118428Y-89573809D01*
X96056523Y-89697619D01*
X95994619Y-89945238D01*
X95994619Y-90130952D01*
X96056523Y-90378571D01*
X96118428Y-90502380D01*
X96242238Y-90626190D01*
X96427952Y-90688095D01*
X96551761Y-90688095D01*
X96737476Y-90626190D01*
X96799380Y-90564285D01*
X96799380Y-90130952D01*
X96551761Y-90130952D01*
X97356523Y-90688095D02*
X97356523Y-89388095D01*
X98099380Y-90688095D01*
X98099380Y-89388095D01*
X98718428Y-90688095D02*
X98718428Y-89388095D01*
X99027952Y-89388095D01*
X99213666Y-89450000D01*
X99337476Y-89573809D01*
X99399380Y-89697619D01*
X99461285Y-89945238D01*
X99461285Y-90130952D01*
X99399380Y-90378571D01*
X99337476Y-90502380D01*
X99213666Y-90626190D01*
X99027952Y-90688095D01*
X98718428Y-90688095D01*
D12*
X123404761Y-119147023D02*
X125404761Y-118480357D01*
X123404761Y-117813690D01*
X125214285Y-116004166D02*
X125309523Y-116099404D01*
X125404761Y-116385119D01*
X125404761Y-116575595D01*
X125309523Y-116861309D01*
X125119047Y-117051785D01*
X124928571Y-117147023D01*
X124547619Y-117242261D01*
X124261904Y-117242261D01*
X123880952Y-117147023D01*
X123690476Y-117051785D01*
X123500000Y-116861309D01*
X123404761Y-116575595D01*
X123404761Y-116385119D01*
X123500000Y-116099404D01*
X123595238Y-116004166D01*
X125214285Y-114004166D02*
X125309523Y-114099404D01*
X125404761Y-114385119D01*
X125404761Y-114575595D01*
X125309523Y-114861309D01*
X125119047Y-115051785D01*
X124928571Y-115147023D01*
X124547619Y-115242261D01*
X124261904Y-115242261D01*
X123880952Y-115147023D01*
X123690476Y-115051785D01*
X123500000Y-114861309D01*
X123404761Y-114575595D01*
X123404761Y-114385119D01*
X123500000Y-114099404D01*
X123595238Y-114004166D01*
X125404761Y-113147023D02*
X123404761Y-113147023D01*
X123404761Y-111813690D02*
X123404761Y-111432738D01*
X123500000Y-111242261D01*
X123690476Y-111051785D01*
X124071428Y-110956547D01*
X124738095Y-110956547D01*
X125119047Y-111051785D01*
X125309523Y-111242261D01*
X125404761Y-111432738D01*
X125404761Y-111813690D01*
X125309523Y-112004166D01*
X125119047Y-112194642D01*
X124738095Y-112289880D01*
X124071428Y-112289880D01*
X123690476Y-112194642D01*
X123500000Y-112004166D01*
X123404761Y-111813690D01*
D11*
X144221428Y-80678571D02*
X144221428Y-81892857D01*
X144292857Y-82035714D01*
X144364285Y-82107142D01*
X144507142Y-82178571D01*
X144792857Y-82178571D01*
X144935714Y-82107142D01*
X145007142Y-82035714D01*
X145078571Y-81892857D01*
X145078571Y-80678571D01*
X145721428Y-82107142D02*
X145864285Y-82178571D01*
X146150000Y-82178571D01*
X146292857Y-82107142D01*
X146364285Y-81964285D01*
X146364285Y-81892857D01*
X146292857Y-81750000D01*
X146150000Y-81678571D01*
X145935714Y-81678571D01*
X145792857Y-81607142D01*
X145721428Y-81464285D01*
X145721428Y-81392857D01*
X145792857Y-81250000D01*
X145935714Y-81178571D01*
X146150000Y-81178571D01*
X146292857Y-81250000D01*
X147578571Y-82107142D02*
X147435714Y-82178571D01*
X147150000Y-82178571D01*
X147007142Y-82107142D01*
X146935714Y-81964285D01*
X146935714Y-81392857D01*
X147007142Y-81250000D01*
X147150000Y-81178571D01*
X147435714Y-81178571D01*
X147578571Y-81250000D01*
X147650000Y-81392857D01*
X147650000Y-81535714D01*
X146935714Y-81678571D01*
D14*
X129485571Y-115714285D02*
X130599857Y-115714285D01*
X129999857Y-116400000D01*
X130257000Y-116400000D01*
X130428428Y-116485714D01*
X130514142Y-116571428D01*
X130599857Y-116742857D01*
X130599857Y-117171428D01*
X130514142Y-117342857D01*
X130428428Y-117428571D01*
X130257000Y-117514285D01*
X129742714Y-117514285D01*
X129571285Y-117428571D01*
X129485571Y-117342857D01*
X131371285Y-117342857D02*
X131457000Y-117428571D01*
X131371285Y-117514285D01*
X131285571Y-117428571D01*
X131371285Y-117342857D01*
X131371285Y-117514285D01*
X133085571Y-115714285D02*
X132228428Y-115714285D01*
X132142714Y-116571428D01*
X132228428Y-116485714D01*
X132399857Y-116400000D01*
X132828428Y-116400000D01*
X132999857Y-116485714D01*
X133085571Y-116571428D01*
X133171285Y-116742857D01*
X133171285Y-117171428D01*
X133085571Y-117342857D01*
X132999857Y-117428571D01*
X132828428Y-117514285D01*
X132399857Y-117514285D01*
X132228428Y-117428571D01*
X132142714Y-117342857D01*
X133685571Y-115714285D02*
X134285571Y-117514285D01*
X134885571Y-115714285D01*
D12*
X118294761Y-119061309D02*
X116294761Y-119061309D01*
X117723333Y-118394642D01*
X116294761Y-117727976D01*
X118294761Y-117727976D01*
X116961428Y-115918452D02*
X118294761Y-115918452D01*
X116961428Y-116775595D02*
X118009047Y-116775595D01*
X118199523Y-116680357D01*
X118294761Y-116489880D01*
X118294761Y-116204166D01*
X118199523Y-116013690D01*
X118104285Y-115918452D01*
X118294761Y-114680357D02*
X118199523Y-114870833D01*
X118009047Y-114966071D01*
X116294761Y-114966071D01*
X116961428Y-114204166D02*
X116961428Y-113442261D01*
X116294761Y-113918452D02*
X118009047Y-113918452D01*
X118199523Y-113823214D01*
X118294761Y-113632738D01*
X118294761Y-113442261D01*
X118294761Y-112775595D02*
X116961428Y-112775595D01*
X116294761Y-112775595D02*
X116390000Y-112870833D01*
X116485238Y-112775595D01*
X116390000Y-112680357D01*
X116294761Y-112775595D01*
X116485238Y-112775595D01*
X121514761Y-119061309D02*
X119514761Y-119061309D01*
X121324285Y-116966071D02*
X121419523Y-117061309D01*
X121514761Y-117347023D01*
X121514761Y-117537500D01*
X121419523Y-117823214D01*
X121229047Y-118013690D01*
X121038571Y-118108928D01*
X120657619Y-118204166D01*
X120371904Y-118204166D01*
X119990952Y-118108928D01*
X119800476Y-118013690D01*
X119610000Y-117823214D01*
X119514761Y-117537500D01*
X119514761Y-117347023D01*
X119610000Y-117061309D01*
X119705238Y-116966071D01*
X120467142Y-116108928D02*
X120467142Y-115442261D01*
X121514761Y-115156547D02*
X121514761Y-116108928D01*
X119514761Y-116108928D01*
X119514761Y-115156547D01*
D11*
X132221428Y-80678571D02*
X132221428Y-81892857D01*
X132292857Y-82035714D01*
X132364285Y-82107142D01*
X132507142Y-82178571D01*
X132792857Y-82178571D01*
X132935714Y-82107142D01*
X133007142Y-82035714D01*
X133078571Y-81892857D01*
X133078571Y-80678571D01*
X133721428Y-82107142D02*
X133864285Y-82178571D01*
X134150000Y-82178571D01*
X134292857Y-82107142D01*
X134364285Y-81964285D01*
X134364285Y-81892857D01*
X134292857Y-81750000D01*
X134150000Y-81678571D01*
X133935714Y-81678571D01*
X133792857Y-81607142D01*
X133721428Y-81464285D01*
X133721428Y-81392857D01*
X133792857Y-81250000D01*
X133935714Y-81178571D01*
X134150000Y-81178571D01*
X134292857Y-81250000D01*
X135578571Y-82107142D02*
X135435714Y-82178571D01*
X135150000Y-82178571D01*
X135007142Y-82107142D01*
X134935714Y-81964285D01*
X134935714Y-81392857D01*
X135007142Y-81250000D01*
X135150000Y-81178571D01*
X135435714Y-81178571D01*
X135578571Y-81250000D01*
X135650000Y-81392857D01*
X135650000Y-81535714D01*
X134935714Y-81678571D01*
X108221428Y-80678571D02*
X108221428Y-81892857D01*
X108292857Y-82035714D01*
X108364285Y-82107142D01*
X108507142Y-82178571D01*
X108792857Y-82178571D01*
X108935714Y-82107142D01*
X109007142Y-82035714D01*
X109078571Y-81892857D01*
X109078571Y-80678571D01*
X109721428Y-82107142D02*
X109864285Y-82178571D01*
X110150000Y-82178571D01*
X110292857Y-82107142D01*
X110364285Y-81964285D01*
X110364285Y-81892857D01*
X110292857Y-81750000D01*
X110150000Y-81678571D01*
X109935714Y-81678571D01*
X109792857Y-81607142D01*
X109721428Y-81464285D01*
X109721428Y-81392857D01*
X109792857Y-81250000D01*
X109935714Y-81178571D01*
X110150000Y-81178571D01*
X110292857Y-81250000D01*
X111578571Y-82107142D02*
X111435714Y-82178571D01*
X111150000Y-82178571D01*
X111007142Y-82107142D01*
X110935714Y-81964285D01*
X110935714Y-81392857D01*
X111007142Y-81250000D01*
X111150000Y-81178571D01*
X111435714Y-81178571D01*
X111578571Y-81250000D01*
X111650000Y-81392857D01*
X111650000Y-81535714D01*
X110935714Y-81678571D01*
X98314285Y-114478571D02*
X97600000Y-114478571D01*
X97600000Y-112978571D01*
X98814285Y-114478571D02*
X98814285Y-113478571D01*
X98814285Y-112978571D02*
X98742857Y-113050000D01*
X98814285Y-113121428D01*
X98885714Y-113050000D01*
X98814285Y-112978571D01*
X98814285Y-113121428D01*
X99528571Y-114478571D02*
X99528571Y-113478571D01*
X99528571Y-113621428D02*
X99600000Y-113550000D01*
X99742857Y-113478571D01*
X99957142Y-113478571D01*
X100100000Y-113550000D01*
X100171428Y-113692857D01*
X100171428Y-114478571D01*
X100171428Y-113692857D02*
X100242857Y-113550000D01*
X100385714Y-113478571D01*
X100600000Y-113478571D01*
X100742857Y-113550000D01*
X100814285Y-113692857D01*
X100814285Y-114478571D01*
X101528571Y-114478571D02*
X101528571Y-113478571D01*
X101528571Y-112978571D02*
X101457142Y-113050000D01*
X101528571Y-113121428D01*
X101600000Y-113050000D01*
X101528571Y-112978571D01*
X101528571Y-113121428D01*
X102028571Y-113478571D02*
X102600000Y-113478571D01*
X102242857Y-112978571D02*
X102242857Y-114264285D01*
X102314285Y-114407142D01*
X102457142Y-114478571D01*
X102600000Y-114478571D01*
X103671428Y-114407142D02*
X103528571Y-114478571D01*
X103242857Y-114478571D01*
X103100000Y-114407142D01*
X103028571Y-114264285D01*
X103028571Y-113692857D01*
X103100000Y-113550000D01*
X103242857Y-113478571D01*
X103528571Y-113478571D01*
X103671428Y-113550000D01*
X103742857Y-113692857D01*
X103742857Y-113835714D01*
X103028571Y-113978571D01*
X104385714Y-114478571D02*
X104385714Y-113478571D01*
X104385714Y-113764285D02*
X104457142Y-113621428D01*
X104528571Y-113550000D01*
X104671428Y-113478571D01*
X104814285Y-113478571D01*
D12*
X128404761Y-117908928D02*
X128404761Y-118861309D01*
X126404761Y-118861309D01*
X128404761Y-117242261D02*
X127071428Y-117242261D01*
X126404761Y-117242261D02*
X126500000Y-117337500D01*
X126595238Y-117242261D01*
X126500000Y-117147023D01*
X126404761Y-117242261D01*
X126595238Y-117242261D01*
X128404761Y-116289880D02*
X127071428Y-116289880D01*
X127261904Y-116289880D02*
X127166666Y-116194642D01*
X127071428Y-116004166D01*
X127071428Y-115718452D01*
X127166666Y-115527976D01*
X127357142Y-115432738D01*
X128404761Y-115432738D01*
X127357142Y-115432738D02*
X127166666Y-115337500D01*
X127071428Y-115147023D01*
X127071428Y-114861309D01*
X127166666Y-114670833D01*
X127357142Y-114575595D01*
X128404761Y-114575595D01*
X128404761Y-113623214D02*
X127071428Y-113623214D01*
X126404761Y-113623214D02*
X126500000Y-113718452D01*
X126595238Y-113623214D01*
X126500000Y-113527976D01*
X126404761Y-113623214D01*
X126595238Y-113623214D01*
X127071428Y-112956547D02*
X127071428Y-112194642D01*
X126404761Y-112670833D02*
X128119047Y-112670833D01*
X128309523Y-112575595D01*
X128404761Y-112385119D01*
X128404761Y-112194642D01*
D11*
X97153809Y-82978571D02*
X97587142Y-84478571D01*
X98020476Y-82978571D01*
X99196666Y-84335714D02*
X99134761Y-84407142D01*
X98949047Y-84478571D01*
X98825238Y-84478571D01*
X98639523Y-84407142D01*
X98515714Y-84264285D01*
X98453809Y-84121428D01*
X98391904Y-83835714D01*
X98391904Y-83621428D01*
X98453809Y-83335714D01*
X98515714Y-83192857D01*
X98639523Y-83050000D01*
X98825238Y-82978571D01*
X98949047Y-82978571D01*
X99134761Y-83050000D01*
X99196666Y-83121428D01*
X100496666Y-84335714D02*
X100434761Y-84407142D01*
X100249047Y-84478571D01*
X100125238Y-84478571D01*
X99939523Y-84407142D01*
X99815714Y-84264285D01*
X99753809Y-84121428D01*
X99691904Y-83835714D01*
X99691904Y-83621428D01*
X99753809Y-83335714D01*
X99815714Y-83192857D01*
X99939523Y-83050000D01*
X100125238Y-82978571D01*
X100249047Y-82978571D01*
X100434761Y-83050000D01*
X100496666Y-83121428D01*
X101053809Y-84478571D02*
X101053809Y-82978571D01*
X101920476Y-82978571D02*
X102168095Y-82978571D01*
X102291904Y-83050000D01*
X102415714Y-83192857D01*
X102477619Y-83478571D01*
X102477619Y-83978571D01*
X102415714Y-84264285D01*
X102291904Y-84407142D01*
X102168095Y-84478571D01*
X101920476Y-84478571D01*
X101796666Y-84407142D01*
X101672857Y-84264285D01*
X101610952Y-83978571D01*
X101610952Y-83478571D01*
X101672857Y-83192857D01*
X101796666Y-83050000D01*
X101920476Y-82978571D01*
X104025238Y-84478571D02*
X104025238Y-82978571D01*
X104644285Y-83478571D02*
X104644285Y-84478571D01*
X104644285Y-83621428D02*
X104706190Y-83550000D01*
X104830000Y-83478571D01*
X105015714Y-83478571D01*
X105139523Y-83550000D01*
X105201428Y-83692857D01*
X105201428Y-84478571D01*
D15*
X91197619Y-96880952D02*
X91983333Y-96880952D01*
X92140476Y-96933333D01*
X92245238Y-97038095D01*
X92297619Y-97195238D01*
X92297619Y-97300000D01*
X92297619Y-95833333D02*
X92297619Y-96357142D01*
X91197619Y-96357142D01*
X92192857Y-94838095D02*
X92245238Y-94890476D01*
X92297619Y-95047619D01*
X92297619Y-95152380D01*
X92245238Y-95309523D01*
X92140476Y-95414285D01*
X92035714Y-95466666D01*
X91826190Y-95519047D01*
X91669047Y-95519047D01*
X91459523Y-95466666D01*
X91354761Y-95414285D01*
X91250000Y-95309523D01*
X91197619Y-95152380D01*
X91197619Y-95047619D01*
X91250000Y-94890476D01*
X91302380Y-94838095D01*
X91197619Y-94052380D02*
X91983333Y-94052380D01*
X92140476Y-94104761D01*
X92245238Y-94209523D01*
X92297619Y-94366666D01*
X92297619Y-94471428D01*
X92297619Y-93004761D02*
X92297619Y-93528571D01*
X91197619Y-93528571D01*
X92192857Y-92009523D02*
X92245238Y-92061904D01*
X92297619Y-92219047D01*
X92297619Y-92323809D01*
X92245238Y-92480952D01*
X92140476Y-92585714D01*
X92035714Y-92638095D01*
X91826190Y-92690476D01*
X91669047Y-92690476D01*
X91459523Y-92638095D01*
X91354761Y-92585714D01*
X91250000Y-92480952D01*
X91197619Y-92323809D01*
X91197619Y-92219047D01*
X91250000Y-92061904D01*
X91302380Y-92009523D01*
X91197619Y-91223809D02*
X91983333Y-91223809D01*
X92140476Y-91276190D01*
X92245238Y-91380952D01*
X92297619Y-91538095D01*
X92297619Y-91642857D01*
X92297619Y-90176190D02*
X92297619Y-90700000D01*
X91197619Y-90700000D01*
X92192857Y-89180952D02*
X92245238Y-89233333D01*
X92297619Y-89390476D01*
X92297619Y-89495238D01*
X92245238Y-89652380D01*
X92140476Y-89757142D01*
X92035714Y-89809523D01*
X91826190Y-89861904D01*
X91669047Y-89861904D01*
X91459523Y-89809523D01*
X91354761Y-89757142D01*
X91250000Y-89652380D01*
X91197619Y-89495238D01*
X91197619Y-89390476D01*
X91250000Y-89233333D01*
X91302380Y-89180952D01*
X91197619Y-88395238D02*
X91983333Y-88395238D01*
X92140476Y-88447619D01*
X92245238Y-88552380D01*
X92297619Y-88709523D01*
X92297619Y-88814285D01*
X92297619Y-87347619D02*
X92297619Y-87871428D01*
X91197619Y-87871428D01*
X92192857Y-86352380D02*
X92245238Y-86404761D01*
X92297619Y-86561904D01*
X92297619Y-86666666D01*
X92245238Y-86823809D01*
X92140476Y-86928571D01*
X92035714Y-86980952D01*
X91826190Y-87033333D01*
X91669047Y-87033333D01*
X91459523Y-86980952D01*
X91354761Y-86928571D01*
X91250000Y-86823809D01*
X91197619Y-86666666D01*
X91197619Y-86561904D01*
X91250000Y-86404761D01*
X91302380Y-86352380D01*
D11*
X96582380Y-82135714D02*
X96520476Y-82207142D01*
X96334761Y-82278571D01*
X96210952Y-82278571D01*
X96025238Y-82207142D01*
X95901428Y-82064285D01*
X95839523Y-81921428D01*
X95777619Y-81635714D01*
X95777619Y-81421428D01*
X95839523Y-81135714D01*
X95901428Y-80992857D01*
X96025238Y-80850000D01*
X96210952Y-80778571D01*
X96334761Y-80778571D01*
X96520476Y-80850000D01*
X96582380Y-80921428D01*
X97325238Y-82278571D02*
X97201428Y-82207142D01*
X97139523Y-82135714D01*
X97077619Y-81992857D01*
X97077619Y-81564285D01*
X97139523Y-81421428D01*
X97201428Y-81350000D01*
X97325238Y-81278571D01*
X97510952Y-81278571D01*
X97634761Y-81350000D01*
X97696666Y-81421428D01*
X97758571Y-81564285D01*
X97758571Y-81992857D01*
X97696666Y-82135714D01*
X97634761Y-82207142D01*
X97510952Y-82278571D01*
X97325238Y-82278571D01*
X98315714Y-81278571D02*
X98315714Y-82278571D01*
X98315714Y-81421428D02*
X98377619Y-81350000D01*
X98501428Y-81278571D01*
X98687142Y-81278571D01*
X98810952Y-81350000D01*
X98872857Y-81492857D01*
X98872857Y-82278571D01*
X99491904Y-81278571D02*
X99491904Y-82278571D01*
X99491904Y-81421428D02*
X99553809Y-81350000D01*
X99677619Y-81278571D01*
X99863333Y-81278571D01*
X99987142Y-81350000D01*
X100049047Y-81492857D01*
X100049047Y-82278571D01*
X101163333Y-82207142D02*
X101039523Y-82278571D01*
X100791904Y-82278571D01*
X100668095Y-82207142D01*
X100606190Y-82064285D01*
X100606190Y-81492857D01*
X100668095Y-81350000D01*
X100791904Y-81278571D01*
X101039523Y-81278571D01*
X101163333Y-81350000D01*
X101225238Y-81492857D01*
X101225238Y-81635714D01*
X100606190Y-81778571D01*
X102339523Y-82207142D02*
X102215714Y-82278571D01*
X101968095Y-82278571D01*
X101844285Y-82207142D01*
X101782380Y-82135714D01*
X101720476Y-81992857D01*
X101720476Y-81564285D01*
X101782380Y-81421428D01*
X101844285Y-81350000D01*
X101968095Y-81278571D01*
X102215714Y-81278571D01*
X102339523Y-81350000D01*
X102710952Y-81278571D02*
X103206190Y-81278571D01*
X102896666Y-80778571D02*
X102896666Y-82064285D01*
X102958571Y-82207142D01*
X103082380Y-82278571D01*
X103206190Y-82278571D01*
X103825238Y-82278571D02*
X103701428Y-82207142D01*
X103639523Y-82135714D01*
X103577619Y-81992857D01*
X103577619Y-81564285D01*
X103639523Y-81421428D01*
X103701428Y-81350000D01*
X103825238Y-81278571D01*
X104010952Y-81278571D01*
X104134761Y-81350000D01*
X104196666Y-81421428D01*
X104258571Y-81564285D01*
X104258571Y-81992857D01*
X104196666Y-82135714D01*
X104134761Y-82207142D01*
X104010952Y-82278571D01*
X103825238Y-82278571D01*
X104815714Y-82278571D02*
X104815714Y-81278571D01*
X104815714Y-81564285D02*
X104877619Y-81421428D01*
X104939523Y-81350000D01*
X105063333Y-81278571D01*
X105187142Y-81278571D01*
D14*
X130514142Y-112914285D02*
X129657000Y-112914285D01*
X129571285Y-113771428D01*
X129657000Y-113685714D01*
X129828428Y-113600000D01*
X130257000Y-113600000D01*
X130428428Y-113685714D01*
X130514142Y-113771428D01*
X130599857Y-113942857D01*
X130599857Y-114371428D01*
X130514142Y-114542857D01*
X130428428Y-114628571D01*
X130257000Y-114714285D01*
X129828428Y-114714285D01*
X129657000Y-114628571D01*
X129571285Y-114542857D01*
X131371285Y-114542857D02*
X131457000Y-114628571D01*
X131371285Y-114714285D01*
X131285571Y-114628571D01*
X131371285Y-114542857D01*
X131371285Y-114714285D01*
X133085571Y-112914285D02*
X132228428Y-112914285D01*
X132142714Y-113771428D01*
X132228428Y-113685714D01*
X132399857Y-113600000D01*
X132828428Y-113600000D01*
X132999857Y-113685714D01*
X133085571Y-113771428D01*
X133171285Y-113942857D01*
X133171285Y-114371428D01*
X133085571Y-114542857D01*
X132999857Y-114628571D01*
X132828428Y-114714285D01*
X132399857Y-114714285D01*
X132228428Y-114628571D01*
X132142714Y-114542857D01*
X133685571Y-112914285D02*
X134285571Y-114714285D01*
X134885571Y-112914285D01*
D11*
X120221428Y-80678571D02*
X120221428Y-81892857D01*
X120292857Y-82035714D01*
X120364285Y-82107142D01*
X120507142Y-82178571D01*
X120792857Y-82178571D01*
X120935714Y-82107142D01*
X121007142Y-82035714D01*
X121078571Y-81892857D01*
X121078571Y-80678571D01*
X121721428Y-82107142D02*
X121864285Y-82178571D01*
X122150000Y-82178571D01*
X122292857Y-82107142D01*
X122364285Y-81964285D01*
X122364285Y-81892857D01*
X122292857Y-81750000D01*
X122150000Y-81678571D01*
X121935714Y-81678571D01*
X121792857Y-81607142D01*
X121721428Y-81464285D01*
X121721428Y-81392857D01*
X121792857Y-81250000D01*
X121935714Y-81178571D01*
X122150000Y-81178571D01*
X122292857Y-81250000D01*
X123578571Y-82107142D02*
X123435714Y-82178571D01*
X123150000Y-82178571D01*
X123007142Y-82107142D01*
X122935714Y-81964285D01*
X122935714Y-81392857D01*
X123007142Y-81250000D01*
X123150000Y-81178571D01*
X123435714Y-81178571D01*
X123578571Y-81250000D01*
X123650000Y-81392857D01*
X123650000Y-81535714D01*
X122935714Y-81678571D01*
D12*
X140904761Y-118947023D02*
X142904761Y-118280357D01*
X140904761Y-117613690D01*
X142714285Y-115804166D02*
X142809523Y-115899404D01*
X142904761Y-116185119D01*
X142904761Y-116375595D01*
X142809523Y-116661309D01*
X142619047Y-116851785D01*
X142428571Y-116947023D01*
X142047619Y-117042261D01*
X141761904Y-117042261D01*
X141380952Y-116947023D01*
X141190476Y-116851785D01*
X141000000Y-116661309D01*
X140904761Y-116375595D01*
X140904761Y-116185119D01*
X141000000Y-115899404D01*
X141095238Y-115804166D01*
X142714285Y-113804166D02*
X142809523Y-113899404D01*
X142904761Y-114185119D01*
X142904761Y-114375595D01*
X142809523Y-114661309D01*
X142619047Y-114851785D01*
X142428571Y-114947023D01*
X142047619Y-115042261D01*
X141761904Y-115042261D01*
X141380952Y-114947023D01*
X141190476Y-114851785D01*
X141000000Y-114661309D01*
X140904761Y-114375595D01*
X140904761Y-114185119D01*
X141000000Y-113899404D01*
X141095238Y-113804166D01*
X142904761Y-112947023D02*
X140904761Y-112947023D01*
X140904761Y-111613690D02*
X140904761Y-111232738D01*
X141000000Y-111042261D01*
X141190476Y-110851785D01*
X141571428Y-110756547D01*
X142238095Y-110756547D01*
X142619047Y-110851785D01*
X142809523Y-111042261D01*
X142904761Y-111232738D01*
X142904761Y-111613690D01*
X142809523Y-111804166D01*
X142619047Y-111994642D01*
X142238095Y-112089880D01*
X141571428Y-112089880D01*
X141190476Y-111994642D01*
X141000000Y-111804166D01*
X140904761Y-111613690D01*
X142904761Y-108375595D02*
X140904761Y-108375595D01*
X141571428Y-107423214D02*
X142904761Y-107423214D01*
X141761904Y-107423214D02*
X141666666Y-107327976D01*
X141571428Y-107137500D01*
X141571428Y-106851785D01*
X141666666Y-106661309D01*
X141857142Y-106566071D01*
X142904761Y-106566071D01*
X154385714Y-88309523D02*
X154671428Y-88404761D01*
X155147619Y-88404761D01*
X155338095Y-88309523D01*
X155433333Y-88214285D01*
X155528571Y-88023809D01*
X155528571Y-87833333D01*
X155433333Y-87642857D01*
X155338095Y-87547619D01*
X155147619Y-87452380D01*
X154766666Y-87357142D01*
X154576190Y-87261904D01*
X154480952Y-87166666D01*
X154385714Y-86976190D01*
X154385714Y-86785714D01*
X154480952Y-86595238D01*
X154576190Y-86500000D01*
X154766666Y-86404761D01*
X155242857Y-86404761D01*
X155528571Y-86500000D01*
X156195238Y-86404761D02*
X156671428Y-88404761D01*
X157052380Y-86976190D01*
X157433333Y-88404761D01*
X157909523Y-86404761D01*
X158671428Y-88404761D02*
X158671428Y-86404761D01*
X159147619Y-86404761D01*
X159433333Y-86500000D01*
X159623809Y-86690476D01*
X159719047Y-86880952D01*
X159814285Y-87261904D01*
X159814285Y-87547619D01*
X159719047Y-87928571D01*
X159623809Y-88119047D01*
X159433333Y-88309523D01*
X159147619Y-88404761D01*
X158671428Y-88404761D01*
X155504761Y-112847023D02*
X157504761Y-112180357D01*
X155504761Y-111513690D01*
X157314285Y-109704166D02*
X157409523Y-109799404D01*
X157504761Y-110085119D01*
X157504761Y-110275595D01*
X157409523Y-110561309D01*
X157219047Y-110751785D01*
X157028571Y-110847023D01*
X156647619Y-110942261D01*
X156361904Y-110942261D01*
X155980952Y-110847023D01*
X155790476Y-110751785D01*
X155600000Y-110561309D01*
X155504761Y-110275595D01*
X155504761Y-110085119D01*
X155600000Y-109799404D01*
X155695238Y-109704166D01*
X157314285Y-107704166D02*
X157409523Y-107799404D01*
X157504761Y-108085119D01*
X157504761Y-108275595D01*
X157409523Y-108561309D01*
X157219047Y-108751785D01*
X157028571Y-108847023D01*
X156647619Y-108942261D01*
X156361904Y-108942261D01*
X155980952Y-108847023D01*
X155790476Y-108751785D01*
X155600000Y-108561309D01*
X155504761Y-108275595D01*
X155504761Y-108085119D01*
X155600000Y-107799404D01*
X155695238Y-107704166D01*
X157504761Y-106847023D02*
X155504761Y-106847023D01*
X155504761Y-105513690D02*
X155504761Y-105132738D01*
X155600000Y-104942261D01*
X155790476Y-104751785D01*
X156171428Y-104656547D01*
X156838095Y-104656547D01*
X157219047Y-104751785D01*
X157409523Y-104942261D01*
X157504761Y-105132738D01*
X157504761Y-105513690D01*
X157409523Y-105704166D01*
X157219047Y-105894642D01*
X156838095Y-105989880D01*
X156171428Y-105989880D01*
X155790476Y-105894642D01*
X155600000Y-105704166D01*
X155504761Y-105513690D01*
D11*
X143778571Y-114277857D02*
X144992857Y-114277857D01*
X145135714Y-114206428D01*
X145207142Y-114135000D01*
X145278571Y-113992142D01*
X145278571Y-113706428D01*
X145207142Y-113563571D01*
X145135714Y-113492142D01*
X144992857Y-113420714D01*
X143778571Y-113420714D01*
X145207142Y-112777857D02*
X145278571Y-112563571D01*
X145278571Y-112206428D01*
X145207142Y-112063571D01*
X145135714Y-111992142D01*
X144992857Y-111920714D01*
X144850000Y-111920714D01*
X144707142Y-111992142D01*
X144635714Y-112063571D01*
X144564285Y-112206428D01*
X144492857Y-112492142D01*
X144421428Y-112635000D01*
X144350000Y-112706428D01*
X144207142Y-112777857D01*
X144064285Y-112777857D01*
X143921428Y-112706428D01*
X143850000Y-112635000D01*
X143778571Y-112492142D01*
X143778571Y-112135000D01*
X143850000Y-111920714D01*
X145278571Y-111277857D02*
X143778571Y-111277857D01*
X145278571Y-110563571D02*
X143778571Y-110563571D01*
X145278571Y-109706428D01*
X143778571Y-109706428D01*
X143850000Y-108206428D02*
X143778571Y-108349285D01*
X143778571Y-108563571D01*
X143850000Y-108777857D01*
X143992857Y-108920714D01*
X144135714Y-108992142D01*
X144421428Y-109063571D01*
X144635714Y-109063571D01*
X144921428Y-108992142D01*
X145064285Y-108920714D01*
X145207142Y-108777857D01*
X145278571Y-108563571D01*
X145278571Y-108420714D01*
X145207142Y-108206428D01*
X145135714Y-108135000D01*
X144635714Y-108135000D01*
X144635714Y-108420714D01*
D12*
X159904761Y-112861309D02*
X157904761Y-112861309D01*
X157904761Y-112099404D01*
X158000000Y-111908928D01*
X158095238Y-111813690D01*
X158285714Y-111718452D01*
X158571428Y-111718452D01*
X158761904Y-111813690D01*
X158857142Y-111908928D01*
X158952380Y-112099404D01*
X158952380Y-112861309D01*
X159904761Y-110861309D02*
X158571428Y-110861309D01*
X158952380Y-110861309D02*
X158761904Y-110766071D01*
X158666666Y-110670833D01*
X158571428Y-110480357D01*
X158571428Y-110289880D01*
X159904761Y-109337500D02*
X159809523Y-109527976D01*
X159714285Y-109623214D01*
X159523809Y-109718452D01*
X158952380Y-109718452D01*
X158761904Y-109623214D01*
X158666666Y-109527976D01*
X158571428Y-109337500D01*
X158571428Y-109051785D01*
X158666666Y-108861309D01*
X158761904Y-108766071D01*
X158952380Y-108670833D01*
X159523809Y-108670833D01*
X159714285Y-108766071D01*
X159809523Y-108861309D01*
X159904761Y-109051785D01*
X159904761Y-109337500D01*
X159904761Y-107813690D02*
X157904761Y-107813690D01*
X158666666Y-107813690D02*
X158571428Y-107623214D01*
X158571428Y-107242261D01*
X158666666Y-107051785D01*
X158761904Y-106956547D01*
X158952380Y-106861309D01*
X159523809Y-106861309D01*
X159714285Y-106956547D01*
X159809523Y-107051785D01*
X159904761Y-107242261D01*
X159904761Y-107623214D01*
X159809523Y-107813690D01*
X159809523Y-105242261D02*
X159904761Y-105432738D01*
X159904761Y-105813690D01*
X159809523Y-106004166D01*
X159619047Y-106099404D01*
X158857142Y-106099404D01*
X158666666Y-106004166D01*
X158571428Y-105813690D01*
X158571428Y-105432738D01*
X158666666Y-105242261D01*
X158857142Y-105147023D01*
X159047619Y-105147023D01*
X159238095Y-106099404D01*
D11*
X98064285Y-115692857D02*
X98278571Y-115764285D01*
X98350000Y-115835714D01*
X98421428Y-115978571D01*
X98421428Y-116192857D01*
X98350000Y-116335714D01*
X98278571Y-116407142D01*
X98135714Y-116478571D01*
X97564285Y-116478571D01*
X97564285Y-114978571D01*
X98064285Y-114978571D01*
X98207142Y-115050000D01*
X98278571Y-115121428D01*
X98350000Y-115264285D01*
X98350000Y-115407142D01*
X98278571Y-115550000D01*
X98207142Y-115621428D01*
X98064285Y-115692857D01*
X97564285Y-115692857D01*
X98921428Y-115478571D02*
X99278571Y-116478571D01*
X99635714Y-115478571D02*
X99278571Y-116478571D01*
X99135714Y-116835714D01*
X99064285Y-116907142D01*
X98921428Y-116978571D01*
X100207142Y-115478571D02*
X100207142Y-116978571D01*
X100207142Y-115550000D02*
X100350000Y-115478571D01*
X100635714Y-115478571D01*
X100778571Y-115550000D01*
X100850000Y-115621428D01*
X100921428Y-115764285D01*
X100921428Y-116192857D01*
X100850000Y-116335714D01*
X100778571Y-116407142D01*
X100635714Y-116478571D01*
X100350000Y-116478571D01*
X100207142Y-116407142D01*
X102207142Y-116478571D02*
X102207142Y-115692857D01*
X102135714Y-115550000D01*
X101992857Y-115478571D01*
X101707142Y-115478571D01*
X101564285Y-115550000D01*
X102207142Y-116407142D02*
X102064285Y-116478571D01*
X101707142Y-116478571D01*
X101564285Y-116407142D01*
X101492857Y-116264285D01*
X101492857Y-116121428D01*
X101564285Y-115978571D01*
X101707142Y-115907142D01*
X102064285Y-115907142D01*
X102207142Y-115835714D01*
X102850000Y-116407142D02*
X102992857Y-116478571D01*
X103278571Y-116478571D01*
X103421428Y-116407142D01*
X103492857Y-116264285D01*
X103492857Y-116192857D01*
X103421428Y-116050000D01*
X103278571Y-115978571D01*
X103064285Y-115978571D01*
X102921428Y-115907142D01*
X102850000Y-115764285D01*
X102850000Y-115692857D01*
X102921428Y-115550000D01*
X103064285Y-115478571D01*
X103278571Y-115478571D01*
X103421428Y-115550000D01*
X104064285Y-116407142D02*
X104207142Y-116478571D01*
X104492857Y-116478571D01*
X104635714Y-116407142D01*
X104707142Y-116264285D01*
X104707142Y-116192857D01*
X104635714Y-116050000D01*
X104492857Y-115978571D01*
X104278571Y-115978571D01*
X104135714Y-115907142D01*
X104064285Y-115764285D01*
X104064285Y-115692857D01*
X104135714Y-115550000D01*
X104278571Y-115478571D01*
X104492857Y-115478571D01*
X104635714Y-115550000D01*
D16*
G04 #@! TO.C,JP1*
X93570000Y-104270000D02*
X96170000Y-104270000D01*
X90970000Y-106870000D02*
X90970000Y-106930000D01*
X90970000Y-106930000D02*
X96170000Y-106930000D01*
X96170000Y-104270000D02*
X96170000Y-106930000D01*
X93570000Y-106870000D02*
X93570000Y-104270000D01*
X90970000Y-106870000D02*
X93570000Y-106870000D01*
X90970000Y-104270000D02*
X92300000Y-104270000D01*
X90970000Y-105600000D02*
X90970000Y-104270000D01*
G04 #@! TO.C,J1*
X101962470Y-111735000D02*
X101760000Y-111735000D01*
X101962470Y-105265000D02*
X101307530Y-105265000D01*
X100050000Y-110405000D02*
X100050000Y-105265000D01*
X101000000Y-111800000D02*
X100050000Y-111800000D01*
X100050000Y-111800000D02*
X100050000Y-111040000D01*
X100240000Y-110405000D02*
X100050000Y-110405000D01*
X103220000Y-105265000D02*
X102577530Y-105265000D01*
X103220000Y-111735000D02*
X103220000Y-105265000D01*
X103220000Y-111735000D02*
X102577530Y-111735000D01*
X100692470Y-105265000D02*
X100050000Y-105265000D01*
X103800000Y-109770000D02*
X103800000Y-107230000D01*
G04 #@! TO.C,J12*
X117320000Y-91000000D02*
X117320000Y-92000000D01*
X120020000Y-94530000D02*
X120020000Y-87590000D01*
X126520000Y-87590000D02*
X126520000Y-105570000D01*
X126520000Y-105570000D02*
X120020000Y-105570000D01*
X120020000Y-105570000D02*
X120020000Y-98630000D01*
X118710000Y-106870000D02*
X118710000Y-86290000D01*
X127830000Y-106870000D02*
X118710000Y-106870000D01*
X120020000Y-98630000D02*
X120020000Y-98630000D01*
X118710000Y-94530000D02*
X120020000Y-94530000D01*
X120020000Y-98630000D02*
X118710000Y-98630000D01*
X127830000Y-86290000D02*
X127830000Y-106870000D01*
X118320000Y-91500000D02*
X117320000Y-91000000D01*
X117320000Y-92000000D02*
X118320000Y-91500000D01*
X120020000Y-87590000D02*
X126520000Y-87590000D01*
X118710000Y-86290000D02*
X127830000Y-86290000D01*
G04 #@! TO.C,J8*
X95630000Y-91370000D02*
X95630000Y-93970000D01*
X92970000Y-91370000D02*
X95630000Y-91370000D01*
X92970000Y-93970000D02*
X95630000Y-93970000D01*
X92970000Y-91370000D02*
X92970000Y-93970000D01*
X95630000Y-88770000D02*
X95630000Y-90100000D01*
X94300000Y-88770000D02*
X95630000Y-88770000D01*
G04 #@! TO.C,J16*
X159330000Y-113930000D02*
X156670000Y-113930000D01*
X156670000Y-116530000D02*
X156670000Y-113930000D01*
X156670000Y-119130000D02*
X156670000Y-117800000D01*
X159330000Y-116530000D02*
X159330000Y-113930000D01*
X159330000Y-116530000D02*
X156670000Y-116530000D01*
X158000000Y-119130000D02*
X156670000Y-119130000D01*
G04 #@! TO.C,J21*
X112540000Y-82670000D02*
X107400000Y-82670000D01*
X107400000Y-82670000D02*
X107400000Y-85330000D01*
X112540000Y-82670000D02*
X112540000Y-85330000D01*
X115140000Y-82670000D02*
X115140000Y-84000000D01*
X112540000Y-85330000D02*
X107400000Y-85330000D01*
X113810000Y-82670000D02*
X115140000Y-82670000D01*
G04 #@! TO.C,J2*
X100050000Y-94800000D02*
X100050000Y-94040000D01*
X100240000Y-93405000D02*
X100050000Y-93405000D01*
X100050000Y-93405000D02*
X100050000Y-88265000D01*
X103220000Y-88265000D02*
X102577530Y-88265000D01*
X101962470Y-88265000D02*
X101307530Y-88265000D01*
X100692470Y-88265000D02*
X100050000Y-88265000D01*
X101000000Y-94800000D02*
X100050000Y-94800000D01*
X101962470Y-94735000D02*
X101760000Y-94735000D01*
X103220000Y-94735000D02*
X102577530Y-94735000D01*
X103800000Y-92770000D02*
X103800000Y-90230000D01*
X103220000Y-94735000D02*
X103220000Y-88265000D01*
G04 #@! TO.C,D12*
X154260000Y-114765000D02*
X152340000Y-114765000D01*
X152340000Y-114765000D02*
X152340000Y-117625000D01*
X154260000Y-117625000D02*
X154260000Y-114765000D01*
G04 #@! TO.C,J14*
X150520000Y-87590000D02*
X150520000Y-100490000D01*
X142710000Y-101790000D02*
X142710000Y-86290000D01*
X151830000Y-101790000D02*
X142710000Y-101790000D01*
X150520000Y-100490000D02*
X144020000Y-100490000D01*
X151830000Y-86290000D02*
X151830000Y-101790000D01*
X141320000Y-91000000D02*
X141320000Y-92000000D01*
X144020000Y-96090000D02*
X142710000Y-96090000D01*
X144020000Y-87590000D02*
X150520000Y-87590000D01*
X144020000Y-96090000D02*
X144020000Y-96090000D01*
X144020000Y-100490000D02*
X144020000Y-96090000D01*
X142710000Y-91990000D02*
X144020000Y-91990000D01*
X144020000Y-91990000D02*
X144020000Y-87590000D01*
X141320000Y-92000000D02*
X142320000Y-91500000D01*
X142320000Y-91500000D02*
X141320000Y-91000000D01*
X142710000Y-86290000D02*
X151830000Y-86290000D01*
G04 #@! TO.C,J11*
X114520000Y-118270000D02*
X108020000Y-118270000D01*
X115830000Y-119570000D02*
X106710000Y-119570000D01*
X115830000Y-86290000D02*
X115830000Y-119570000D01*
X114520000Y-87590000D02*
X114520000Y-118270000D01*
X108020000Y-87590000D02*
X114520000Y-87590000D01*
X105320000Y-91000000D02*
X105320000Y-92000000D01*
X106320000Y-91500000D02*
X105320000Y-91000000D01*
X105320000Y-92000000D02*
X106320000Y-91500000D01*
X106710000Y-100880000D02*
X108020000Y-100880000D01*
X106710000Y-86290000D02*
X115830000Y-86290000D01*
X108020000Y-118270000D02*
X108020000Y-104980000D01*
X108020000Y-100880000D02*
X108020000Y-87590000D01*
X108020000Y-104980000D02*
X108020000Y-104980000D01*
X106710000Y-119570000D02*
X106710000Y-86290000D01*
X108020000Y-104980000D02*
X106710000Y-104980000D01*
G04 #@! TO.C,J23*
X136540000Y-85330000D02*
X131400000Y-85330000D01*
X131400000Y-82670000D02*
X131400000Y-85330000D01*
X137810000Y-82670000D02*
X139140000Y-82670000D01*
X136540000Y-82670000D02*
X136540000Y-85330000D01*
X139140000Y-82670000D02*
X139140000Y-84000000D01*
X136540000Y-82670000D02*
X131400000Y-82670000D01*
G04 #@! TO.C,D28*
X147660000Y-114765000D02*
X145740000Y-114765000D01*
X145740000Y-114765000D02*
X145740000Y-117625000D01*
X147660000Y-117625000D02*
X147660000Y-114765000D01*
G04 #@! TO.C,JP2*
X93570000Y-108070000D02*
X96170000Y-108070000D01*
X90970000Y-109400000D02*
X90970000Y-108070000D01*
X90970000Y-110730000D02*
X96170000Y-110730000D01*
X90970000Y-110670000D02*
X93570000Y-110670000D01*
X96170000Y-108070000D02*
X96170000Y-110730000D01*
X93570000Y-110670000D02*
X93570000Y-108070000D01*
X90970000Y-110670000D02*
X90970000Y-110730000D01*
X90970000Y-108070000D02*
X92300000Y-108070000D01*
G04 #@! TO.C,J13*
X130710000Y-106870000D02*
X130710000Y-86290000D01*
X132020000Y-94530000D02*
X132020000Y-87590000D01*
X130710000Y-94530000D02*
X132020000Y-94530000D01*
X138520000Y-105570000D02*
X132020000Y-105570000D01*
X139830000Y-86290000D02*
X139830000Y-106870000D01*
X132020000Y-98630000D02*
X130710000Y-98630000D01*
X132020000Y-87590000D02*
X138520000Y-87590000D01*
X132020000Y-105570000D02*
X132020000Y-98630000D01*
X130320000Y-91500000D02*
X129320000Y-91000000D01*
X129320000Y-91000000D02*
X129320000Y-92000000D01*
X129320000Y-92000000D02*
X130320000Y-91500000D01*
X130710000Y-86290000D02*
X139830000Y-86290000D01*
X139830000Y-106870000D02*
X130710000Y-106870000D01*
X132020000Y-98630000D02*
X132020000Y-98630000D01*
X138520000Y-87590000D02*
X138520000Y-105570000D01*
G04 #@! TO.C,D11*
X152160000Y-117600000D02*
X152160000Y-114740000D01*
X150240000Y-114740000D02*
X150240000Y-117600000D01*
X152160000Y-114740000D02*
X150240000Y-114740000D01*
G04 #@! TO.C,D26*
X143640000Y-114765000D02*
X143640000Y-117625000D01*
X145560000Y-117625000D02*
X145560000Y-114765000D01*
X145560000Y-114765000D02*
X143640000Y-114765000D01*
G04 #@! TO.C,J15*
X156670000Y-92770000D02*
X159330000Y-92770000D01*
X156670000Y-90170000D02*
X158000000Y-90170000D01*
X156670000Y-100450000D02*
X159330000Y-100450000D01*
X156670000Y-91500000D02*
X156670000Y-90170000D01*
X156670000Y-92770000D02*
X156670000Y-100450000D01*
X159330000Y-92770000D02*
X159330000Y-100450000D01*
G04 #@! TO.C,J24*
X148540000Y-85330000D02*
X143400000Y-85330000D01*
X148540000Y-82670000D02*
X148540000Y-85330000D01*
X143400000Y-82670000D02*
X143400000Y-85330000D01*
X149810000Y-82670000D02*
X151140000Y-82670000D01*
X148540000Y-82670000D02*
X143400000Y-82670000D01*
X151140000Y-82670000D02*
X151140000Y-84000000D01*
G04 #@! TO.C,J9*
X139330000Y-119130000D02*
X138000000Y-119130000D01*
X136670000Y-116530000D02*
X136670000Y-111390000D01*
X139330000Y-116530000D02*
X139330000Y-111390000D01*
X139330000Y-111390000D02*
X136670000Y-111390000D01*
X139330000Y-116530000D02*
X136670000Y-116530000D01*
X139330000Y-117800000D02*
X139330000Y-119130000D01*
G04 #@! TO.C,J22*
X124540000Y-82670000D02*
X124540000Y-85330000D01*
X124540000Y-85330000D02*
X119400000Y-85330000D01*
X127140000Y-82670000D02*
X127140000Y-84000000D01*
X124540000Y-82670000D02*
X119400000Y-82670000D01*
X119400000Y-82670000D02*
X119400000Y-85330000D01*
X125810000Y-82670000D02*
X127140000Y-82670000D01*
G04 #@! TD*
%LPC*%
D17*
G04 #@! TO.C,JP1*
X92300000Y-105600000D03*
D18*
X94840000Y-105600000D03*
G04 #@! TD*
D19*
G04 #@! TO.C,J1*
X101000000Y-111040000D03*
D20*
X102270000Y-111040000D03*
X101000000Y-109770000D03*
X102270000Y-109770000D03*
X101000000Y-108500000D03*
X102270000Y-108500000D03*
X101000000Y-107230000D03*
X102270000Y-107230000D03*
X101000000Y-105960000D03*
X102270000Y-105960000D03*
G04 #@! TD*
D21*
G04 #@! TO.C,J12*
X122000000Y-91500000D03*
D22*
X124540000Y-91500000D03*
X122000000Y-94040000D03*
X124540000Y-94040000D03*
X122000000Y-96580000D03*
X124540000Y-96580000D03*
X124540000Y-99120000D03*
X122000000Y-101660000D03*
X124540000Y-101660000D03*
G04 #@! TD*
D17*
G04 #@! TO.C,J8*
X94300000Y-90100000D03*
D18*
X94300000Y-92640000D03*
G04 #@! TD*
D17*
G04 #@! TO.C,J3*
X94325000Y-101270000D03*
D18*
X91785000Y-101270000D03*
X94325000Y-98730000D03*
X91785000Y-98730000D03*
G04 #@! TD*
D17*
G04 #@! TO.C,J16*
X158000000Y-117800000D03*
D18*
X158000000Y-115260000D03*
G04 #@! TD*
D17*
G04 #@! TO.C,J21*
X113810000Y-84000000D03*
D18*
X111270000Y-84000000D03*
X108730000Y-84000000D03*
G04 #@! TD*
D19*
G04 #@! TO.C,J2*
X101000000Y-94040000D03*
D20*
X102270000Y-94040000D03*
X101000000Y-92770000D03*
X102270000Y-92770000D03*
X101000000Y-91500000D03*
X102270000Y-91500000D03*
X101000000Y-90230000D03*
X102270000Y-90230000D03*
X101000000Y-88960000D03*
X102270000Y-88960000D03*
G04 #@! TD*
D23*
G04 #@! TO.C,D12*
X153300000Y-115600000D03*
X153300000Y-117650000D03*
G04 #@! TD*
D17*
G04 #@! TO.C,J5*
X94325000Y-84760000D03*
D18*
X91785000Y-84760000D03*
X94325000Y-82220000D03*
X91785000Y-82220000D03*
G04 #@! TD*
D17*
G04 #@! TO.C,J4*
X94325000Y-117780000D03*
D18*
X91785000Y-117780000D03*
X94325000Y-115240000D03*
X91785000Y-115240000D03*
G04 #@! TD*
D21*
G04 #@! TO.C,J14*
X146000000Y-91500000D03*
D22*
X148540000Y-91500000D03*
X146000000Y-94040000D03*
X148540000Y-94040000D03*
X146000000Y-96580000D03*
X148540000Y-96580000D03*
G04 #@! TD*
D21*
G04 #@! TO.C,J11*
X110000000Y-91500000D03*
D22*
X112540000Y-91500000D03*
X110000000Y-94040000D03*
X112540000Y-94040000D03*
X110000000Y-96580000D03*
X112540000Y-96580000D03*
X110000000Y-99120000D03*
X112540000Y-99120000D03*
X110000000Y-101660000D03*
X112540000Y-101660000D03*
X110000000Y-104200000D03*
X112540000Y-104200000D03*
X110000000Y-106740000D03*
X112540000Y-106740000D03*
X110000000Y-109280000D03*
X112540000Y-109280000D03*
X110000000Y-111820000D03*
X112540000Y-111820000D03*
X110000000Y-114360000D03*
X112540000Y-114360000D03*
G04 #@! TD*
D17*
G04 #@! TO.C,J23*
X137810000Y-84000000D03*
D18*
X135270000Y-84000000D03*
X132730000Y-84000000D03*
G04 #@! TD*
D23*
G04 #@! TO.C,D28*
X146700000Y-115600000D03*
X146700000Y-117650000D03*
G04 #@! TD*
D17*
G04 #@! TO.C,JP2*
X92300000Y-109400000D03*
D18*
X94840000Y-109400000D03*
G04 #@! TD*
D21*
G04 #@! TO.C,J13*
X134000000Y-91500000D03*
D22*
X136540000Y-91500000D03*
X134000000Y-94040000D03*
X136540000Y-94040000D03*
X134000000Y-96580000D03*
X136540000Y-96580000D03*
X136540000Y-99120000D03*
X134000000Y-101660000D03*
X136540000Y-101660000D03*
G04 #@! TD*
D23*
G04 #@! TO.C,D11*
X151200000Y-115575000D03*
X151200000Y-117625000D03*
G04 #@! TD*
G04 #@! TO.C,D26*
X144600000Y-115600000D03*
X144600000Y-117650000D03*
G04 #@! TD*
D17*
G04 #@! TO.C,J15*
X158000000Y-91500000D03*
D18*
X158000000Y-94040000D03*
X158000000Y-96580000D03*
X158000000Y-99120000D03*
G04 #@! TD*
D17*
G04 #@! TO.C,J24*
X149810000Y-84000000D03*
D18*
X147270000Y-84000000D03*
X144730000Y-84000000D03*
G04 #@! TD*
D17*
G04 #@! TO.C,J9*
X138000000Y-117800000D03*
D18*
X138000000Y-115260000D03*
X138000000Y-112720000D03*
G04 #@! TD*
D17*
G04 #@! TO.C,J22*
X125810000Y-84000000D03*
D18*
X123270000Y-84000000D03*
X120730000Y-84000000D03*
G04 #@! TD*
M02*
