G04 #@! TF.GenerationSoftware,KiCad,Pcbnew,(6.0.2-0)*
G04 #@! TF.CreationDate,2022-06-21T16:49:53+02:00*
G04 #@! TF.ProjectId,JTAG-MINI-ADAPTER,4a544147-2d4d-4494-9e49-2d4144415054,A1*
G04 #@! TF.SameCoordinates,Original*
G04 #@! TF.FileFunction,Legend,Top*
G04 #@! TF.FilePolarity,Positive*
%FSLAX46Y46*%
G04 Gerber Fmt 4.6, Leading zero omitted, Abs format (unit mm)*
G04 Created by KiCad (PCBNEW (6.0.2-0)) date 2022-06-21 16:49:53*
%MOMM*%
%LPD*%
G01*
G04 APERTURE LIST*
G04 Aperture macros list*
%AMRoundRect*
0 Rectangle with rounded corners*
0 $1 Rounding radius*
0 $2 $3 $4 $5 $6 $7 $8 $9 X,Y pos of 4 corners*
0 Add a 4 corners polygon primitive as box body*
4,1,4,$2,$3,$4,$5,$6,$7,$8,$9,$2,$3,0*
0 Add four circle primitives for the rounded corners*
1,1,$1+$1,$2,$3*
1,1,$1+$1,$4,$5*
1,1,$1+$1,$6,$7*
1,1,$1+$1,$8,$9*
0 Add four rect primitives between the rounded corners*
20,1,$1+$1,$2,$3,$4,$5,0*
20,1,$1+$1,$4,$5,$6,$7,0*
20,1,$1+$1,$6,$7,$8,$9,0*
20,1,$1+$1,$8,$9,$2,$3,0*%
G04 Aperture macros list end*
%ADD10C,0.300000*%
%ADD11C,0.250000*%
%ADD12C,0.154000*%
%ADD13C,0.180000*%
%ADD14C,0.120000*%
%ADD15RoundRect,0.250000X-0.600000X0.600000X-0.600000X-0.600000X0.600000X-0.600000X0.600000X0.600000X0*%
%ADD16C,1.700000*%
%ADD17R,1.000000X1.000000*%
%ADD18O,1.000000X1.000000*%
G04 APERTURE END LIST*
D10*
X107541421Y-97800000D02*
G75*
G03*
X107541421Y-97800000I-141421J0D01*
G01*
D11*
X103204761Y-131933333D02*
X104633333Y-131933333D01*
X104919047Y-132028571D01*
X105109523Y-132219047D01*
X105204761Y-132504761D01*
X105204761Y-132695238D01*
X103204761Y-131266666D02*
X103204761Y-130123809D01*
X105204761Y-130695238D02*
X103204761Y-130695238D01*
X104633333Y-129552380D02*
X104633333Y-128600000D01*
X105204761Y-129742857D02*
X103204761Y-129076190D01*
X105204761Y-128409523D01*
X103300000Y-126695238D02*
X103204761Y-126885714D01*
X103204761Y-127171428D01*
X103300000Y-127457142D01*
X103490476Y-127647619D01*
X103680952Y-127742857D01*
X104061904Y-127838095D01*
X104347619Y-127838095D01*
X104728571Y-127742857D01*
X104919047Y-127647619D01*
X105109523Y-127457142D01*
X105204761Y-127171428D01*
X105204761Y-126980952D01*
X105109523Y-126695238D01*
X105014285Y-126600000D01*
X104347619Y-126600000D01*
X104347619Y-126980952D01*
X104442857Y-125742857D02*
X104442857Y-124219047D01*
X105204761Y-123266666D02*
X103204761Y-123266666D01*
X104633333Y-122600000D01*
X103204761Y-121933333D01*
X105204761Y-121933333D01*
X105204761Y-120980952D02*
X103204761Y-120980952D01*
X105204761Y-120028571D02*
X103204761Y-120028571D01*
X105204761Y-118885714D01*
X103204761Y-118885714D01*
X105204761Y-117933333D02*
X103204761Y-117933333D01*
X104442857Y-116980952D02*
X104442857Y-115457142D01*
X104633333Y-114600000D02*
X104633333Y-113647619D01*
X105204761Y-114790476D02*
X103204761Y-114123809D01*
X105204761Y-113457142D01*
X105204761Y-112790476D02*
X103204761Y-112790476D01*
X103204761Y-112314285D01*
X103300000Y-112028571D01*
X103490476Y-111838095D01*
X103680952Y-111742857D01*
X104061904Y-111647619D01*
X104347619Y-111647619D01*
X104728571Y-111742857D01*
X104919047Y-111838095D01*
X105109523Y-112028571D01*
X105204761Y-112314285D01*
X105204761Y-112790476D01*
X104633333Y-110885714D02*
X104633333Y-109933333D01*
X105204761Y-111076190D02*
X103204761Y-110409523D01*
X105204761Y-109742857D01*
X105204761Y-109076190D02*
X103204761Y-109076190D01*
X103204761Y-108314285D01*
X103300000Y-108123809D01*
X103395238Y-108028571D01*
X103585714Y-107933333D01*
X103871428Y-107933333D01*
X104061904Y-108028571D01*
X104157142Y-108123809D01*
X104252380Y-108314285D01*
X104252380Y-109076190D01*
X103204761Y-107361904D02*
X103204761Y-106219047D01*
X105204761Y-106790476D02*
X103204761Y-106790476D01*
X104157142Y-105552380D02*
X104157142Y-104885714D01*
X105204761Y-104600000D02*
X105204761Y-105552380D01*
X103204761Y-105552380D01*
X103204761Y-104600000D01*
X105204761Y-102600000D02*
X104252380Y-103266666D01*
X105204761Y-103742857D02*
X103204761Y-103742857D01*
X103204761Y-102980952D01*
X103300000Y-102790476D01*
X103395238Y-102695238D01*
X103585714Y-102600000D01*
X103871428Y-102600000D01*
X104061904Y-102695238D01*
X104157142Y-102790476D01*
X104252380Y-102980952D01*
X104252380Y-103742857D01*
D12*
X107097619Y-129583333D02*
X106364285Y-129583333D01*
X106573809Y-129583333D02*
X106469047Y-129530952D01*
X106416666Y-129478571D01*
X106364285Y-129373809D01*
X106364285Y-129269047D01*
X107045238Y-128483333D02*
X107097619Y-128588095D01*
X107097619Y-128797619D01*
X107045238Y-128902380D01*
X106940476Y-128954761D01*
X106521428Y-128954761D01*
X106416666Y-128902380D01*
X106364285Y-128797619D01*
X106364285Y-128588095D01*
X106416666Y-128483333D01*
X106521428Y-128430952D01*
X106626190Y-128430952D01*
X106730952Y-128954761D01*
X106364285Y-128064285D02*
X107097619Y-127802380D01*
X106364285Y-127540476D01*
X106783333Y-126335714D02*
X106783333Y-125811904D01*
X107097619Y-126440476D02*
X105997619Y-126073809D01*
X107097619Y-125707142D01*
X107097619Y-124764285D02*
X107097619Y-125392857D01*
X107097619Y-125078571D02*
X105997619Y-125078571D01*
X106154761Y-125183333D01*
X106259523Y-125288095D01*
X106311904Y-125392857D01*
D13*
X100788095Y-118604761D02*
X101716666Y-118604761D01*
X101902380Y-118666666D01*
X102026190Y-118790476D01*
X102088095Y-118976190D01*
X102088095Y-119100000D01*
X102088095Y-117366666D02*
X102088095Y-117985714D01*
X100788095Y-117985714D01*
X101964285Y-116190476D02*
X102026190Y-116252380D01*
X102088095Y-116438095D01*
X102088095Y-116561904D01*
X102026190Y-116747619D01*
X101902380Y-116871428D01*
X101778571Y-116933333D01*
X101530952Y-116995238D01*
X101345238Y-116995238D01*
X101097619Y-116933333D01*
X100973809Y-116871428D01*
X100850000Y-116747619D01*
X100788095Y-116561904D01*
X100788095Y-116438095D01*
X100850000Y-116252380D01*
X100911904Y-116190476D01*
X100788095Y-115261904D02*
X101716666Y-115261904D01*
X101902380Y-115323809D01*
X102026190Y-115447619D01*
X102088095Y-115633333D01*
X102088095Y-115757142D01*
X102088095Y-114023809D02*
X102088095Y-114642857D01*
X100788095Y-114642857D01*
X101964285Y-112847619D02*
X102026190Y-112909523D01*
X102088095Y-113095238D01*
X102088095Y-113219047D01*
X102026190Y-113404761D01*
X101902380Y-113528571D01*
X101778571Y-113590476D01*
X101530952Y-113652380D01*
X101345238Y-113652380D01*
X101097619Y-113590476D01*
X100973809Y-113528571D01*
X100850000Y-113404761D01*
X100788095Y-113219047D01*
X100788095Y-113095238D01*
X100850000Y-112909523D01*
X100911904Y-112847619D01*
X100788095Y-111919047D02*
X101716666Y-111919047D01*
X101902380Y-111980952D01*
X102026190Y-112104761D01*
X102088095Y-112290476D01*
X102088095Y-112414285D01*
X102088095Y-110680952D02*
X102088095Y-111300000D01*
X100788095Y-111300000D01*
X101964285Y-109504761D02*
X102026190Y-109566666D01*
X102088095Y-109752380D01*
X102088095Y-109876190D01*
X102026190Y-110061904D01*
X101902380Y-110185714D01*
X101778571Y-110247619D01*
X101530952Y-110309523D01*
X101345238Y-110309523D01*
X101097619Y-110247619D01*
X100973809Y-110185714D01*
X100850000Y-110061904D01*
X100788095Y-109876190D01*
X100788095Y-109752380D01*
X100850000Y-109566666D01*
X100911904Y-109504761D01*
X100788095Y-108576190D02*
X101716666Y-108576190D01*
X101902380Y-108638095D01*
X102026190Y-108761904D01*
X102088095Y-108947619D01*
X102088095Y-109071428D01*
X102088095Y-107338095D02*
X102088095Y-107957142D01*
X100788095Y-107957142D01*
X101964285Y-106161904D02*
X102026190Y-106223809D01*
X102088095Y-106409523D01*
X102088095Y-106533333D01*
X102026190Y-106719047D01*
X101902380Y-106842857D01*
X101778571Y-106904761D01*
X101530952Y-106966666D01*
X101345238Y-106966666D01*
X101097619Y-106904761D01*
X100973809Y-106842857D01*
X100850000Y-106719047D01*
X100788095Y-106533333D01*
X100788095Y-106409523D01*
X100850000Y-106223809D01*
X100911904Y-106161904D01*
D14*
G04 #@! TO.C,J12*
X114710000Y-133540000D02*
X114710000Y-142660000D01*
X106470000Y-133540000D02*
X106470000Y-134850000D01*
X95430000Y-141350000D02*
X95430000Y-134850000D01*
X113410000Y-134850000D02*
X113410000Y-141350000D01*
X109000000Y-132150000D02*
X109500000Y-133150000D01*
X109500000Y-133150000D02*
X110000000Y-132150000D01*
X113410000Y-141350000D02*
X95430000Y-141350000D01*
X102370000Y-134850000D02*
X102370000Y-133540000D01*
X95430000Y-134850000D02*
X102370000Y-134850000D01*
X110000000Y-132150000D02*
X109000000Y-132150000D01*
X106470000Y-134850000D02*
X113410000Y-134850000D01*
X102370000Y-134850000D02*
X102370000Y-134850000D01*
X94130000Y-142660000D02*
X94130000Y-133540000D01*
X114710000Y-142660000D02*
X94130000Y-142660000D01*
X94130000Y-133540000D02*
X114710000Y-133540000D01*
G04 #@! TD*
%LPC*%
D15*
G04 #@! TO.C,J12*
X109500000Y-136830000D03*
D16*
X109500000Y-139370000D03*
X106960000Y-136830000D03*
X106960000Y-139370000D03*
X104420000Y-136830000D03*
X104420000Y-139370000D03*
X101880000Y-139370000D03*
X99340000Y-136830000D03*
X99340000Y-139370000D03*
G04 #@! TD*
D17*
G04 #@! TO.C,J1*
X106580000Y-98730000D03*
D18*
X106580000Y-100000000D03*
X105310000Y-98730000D03*
X105310000Y-100000000D03*
X104040000Y-98730000D03*
X104040000Y-100000000D03*
X102770000Y-98730000D03*
X102770000Y-100000000D03*
X101500000Y-98730000D03*
X101500000Y-100000000D03*
G04 #@! TD*
M02*
