G04 #@! TF.GenerationSoftware,KiCad,Pcbnew,(6.0.2-0)*
G04 #@! TF.CreationDate,2022-06-21T16:49:53+02:00*
G04 #@! TF.ProjectId,JTAG-MINI-ADAPTER,4a544147-2d4d-4494-9e49-2d4144415054,A1*
G04 #@! TF.SameCoordinates,Original*
G04 #@! TF.FileFunction,Copper,L2,Bot*
G04 #@! TF.FilePolarity,Positive*
%FSLAX46Y46*%
G04 Gerber Fmt 4.6, Leading zero omitted, Abs format (unit mm)*
G04 Created by KiCad (PCBNEW (6.0.2-0)) date 2022-06-21 16:49:53*
%MOMM*%
%LPD*%
G01*
G04 APERTURE LIST*
G04 Aperture macros list*
%AMRoundRect*
0 Rectangle with rounded corners*
0 $1 Rounding radius*
0 $2 $3 $4 $5 $6 $7 $8 $9 X,Y pos of 4 corners*
0 Add a 4 corners polygon primitive as box body*
4,1,4,$2,$3,$4,$5,$6,$7,$8,$9,$2,$3,0*
0 Add four circle primitives for the rounded corners*
1,1,$1+$1,$2,$3*
1,1,$1+$1,$4,$5*
1,1,$1+$1,$6,$7*
1,1,$1+$1,$8,$9*
0 Add four rect primitives between the rounded corners*
20,1,$1+$1,$2,$3,$4,$5,0*
20,1,$1+$1,$4,$5,$6,$7,0*
20,1,$1+$1,$6,$7,$8,$9,0*
20,1,$1+$1,$8,$9,$2,$3,0*%
G04 Aperture macros list end*
G04 #@! TA.AperFunction,ComponentPad*
%ADD10RoundRect,0.250000X-0.600000X0.600000X-0.600000X-0.600000X0.600000X-0.600000X0.600000X0.600000X0*%
G04 #@! TD*
G04 #@! TA.AperFunction,ComponentPad*
%ADD11C,1.700000*%
G04 #@! TD*
G04 #@! TA.AperFunction,ComponentPad*
%ADD12R,1.000000X1.000000*%
G04 #@! TD*
G04 #@! TA.AperFunction,ComponentPad*
%ADD13O,1.000000X1.000000*%
G04 #@! TD*
G04 #@! TA.AperFunction,ViaPad*
%ADD14C,0.800000*%
G04 #@! TD*
G04 #@! TA.AperFunction,Conductor*
%ADD15C,0.400000*%
G04 #@! TD*
G04 #@! TA.AperFunction,Conductor*
%ADD16C,0.250000*%
G04 #@! TD*
G04 APERTURE END LIST*
D10*
G04 #@! TO.P,J12,1,Pin_1*
G04 #@! TO.N,/S1*
X109500000Y-136830000D03*
D11*
G04 #@! TO.P,J12,2,Pin_2*
G04 #@! TO.N,/S2*
X109500000Y-139370000D03*
G04 #@! TO.P,J12,3,Pin_3*
G04 #@! TO.N,/S3*
X106960000Y-136830000D03*
G04 #@! TO.P,J12,4,Pin_4*
G04 #@! TO.N,/S4*
X106960000Y-139370000D03*
G04 #@! TO.P,J12,5,Pin_5*
G04 #@! TO.N,/S5*
X104420000Y-136830000D03*
G04 #@! TO.P,J12,6,Pin_6*
G04 #@! TO.N,/S6*
X104420000Y-139370000D03*
G04 #@! TO.P,J12,8,Pin_8*
G04 #@! TO.N,/S8*
X101880000Y-139370000D03*
G04 #@! TO.P,J12,9,Pin_9*
G04 #@! TO.N,/S9*
X99340000Y-136830000D03*
G04 #@! TO.P,J12,10,Pin_10*
G04 #@! TO.N,/S10*
X99340000Y-139370000D03*
G04 #@! TD*
D12*
G04 #@! TO.P,J1,1,Pin_1*
G04 #@! TO.N,/S1*
X106580000Y-98730000D03*
D13*
G04 #@! TO.P,J1,2,Pin_2*
G04 #@! TO.N,/S2*
X106580000Y-100000000D03*
G04 #@! TO.P,J1,3,Pin_3*
G04 #@! TO.N,/S3*
X105310000Y-98730000D03*
G04 #@! TO.P,J1,4,Pin_4*
G04 #@! TO.N,/S4*
X105310000Y-100000000D03*
G04 #@! TO.P,J1,5,Pin_5*
G04 #@! TO.N,/S5*
X104040000Y-98730000D03*
G04 #@! TO.P,J1,6,Pin_6*
G04 #@! TO.N,/S6*
X104040000Y-100000000D03*
G04 #@! TO.P,J1,7,Pin_7*
G04 #@! TO.N,unconnected-(J1-Pad7)*
X102770000Y-98730000D03*
G04 #@! TO.P,J1,8,Pin_8*
G04 #@! TO.N,/S8*
X102770000Y-100000000D03*
G04 #@! TO.P,J1,9,Pin_9*
G04 #@! TO.N,/S9*
X101500000Y-98730000D03*
G04 #@! TO.P,J1,10,Pin_10*
G04 #@! TO.N,/S10*
X101500000Y-100000000D03*
G04 #@! TD*
D14*
G04 #@! TO.N,/S3*
X105780500Y-101734187D03*
G04 #@! TO.N,/S5*
X104101940Y-101800000D03*
G04 #@! TO.N,/S9*
X102303380Y-134800000D03*
G04 #@! TO.N,/S10*
X101297964Y-104012836D03*
X101903409Y-102099500D03*
G04 #@! TD*
D15*
G04 #@! TO.N,/S3*
X107479511Y-100420489D02*
X107479511Y-97979511D01*
X107479511Y-97979511D02*
X107330489Y-97830489D01*
X105780500Y-101734187D02*
X106114687Y-101400000D01*
X105310000Y-98022894D02*
X105310000Y-98730000D01*
X106114687Y-101400000D02*
X106500000Y-101400000D01*
X106500000Y-101400000D02*
X107479511Y-100420489D01*
X107330489Y-97830489D02*
X105502405Y-97830489D01*
X105502405Y-97830489D02*
X105310000Y-98022894D01*
D16*
G04 #@! TO.N,/S5*
X104101940Y-101800000D02*
X103826940Y-101800000D01*
D15*
X101127409Y-97830489D02*
X103142591Y-97830489D01*
X104040000Y-98727898D02*
X104040000Y-98730000D01*
D16*
X103826940Y-101800000D02*
X103626940Y-101600000D01*
D15*
X100600489Y-100400489D02*
X100600489Y-98357409D01*
X100600489Y-98357409D02*
X101127409Y-97830489D01*
X103601940Y-101300000D02*
X101500000Y-101300000D01*
X101500000Y-101300000D02*
X100600489Y-100400489D01*
X104101940Y-101800000D02*
X103601940Y-101300000D01*
X103142591Y-97830489D02*
X104040000Y-98727898D01*
G04 #@! TO.N,/S9*
X99340000Y-136830000D02*
X100273380Y-136830000D01*
X100273380Y-136830000D02*
X102303380Y-134800000D01*
G04 #@! TO.N,/S10*
X101297964Y-104012836D02*
X101297964Y-102704945D01*
X101297964Y-102704945D02*
X101903409Y-102099500D01*
G04 #@! TD*
M02*
