G04 #@! TF.GenerationSoftware,KiCad,Pcbnew,(6.0.2-0)*
G04 #@! TF.CreationDate,2022-06-21T16:49:53+02:00*
G04 #@! TF.ProjectId,JTAG-MINI-ADAPTER,4a544147-2d4d-4494-9e49-2d4144415054,A1*
G04 #@! TF.SameCoordinates,Original*
G04 #@! TF.FileFunction,Legend,Bot*
G04 #@! TF.FilePolarity,Positive*
%FSLAX46Y46*%
G04 Gerber Fmt 4.6, Leading zero omitted, Abs format (unit mm)*
G04 Created by KiCad (PCBNEW (6.0.2-0)) date 2022-06-21 16:49:53*
%MOMM*%
%LPD*%
G01*
G04 APERTURE LIST*
G04 Aperture macros list*
%AMRoundRect*
0 Rectangle with rounded corners*
0 $1 Rounding radius*
0 $2 $3 $4 $5 $6 $7 $8 $9 X,Y pos of 4 corners*
0 Add a 4 corners polygon primitive as box body*
4,1,4,$2,$3,$4,$5,$6,$7,$8,$9,$2,$3,0*
0 Add four circle primitives for the rounded corners*
1,1,$1+$1,$2,$3*
1,1,$1+$1,$4,$5*
1,1,$1+$1,$6,$7*
1,1,$1+$1,$8,$9*
0 Add four rect primitives between the rounded corners*
20,1,$1+$1,$2,$3,$4,$5,0*
20,1,$1+$1,$4,$5,$6,$7,0*
20,1,$1+$1,$6,$7,$8,$9,0*
20,1,$1+$1,$8,$9,$2,$3,0*%
G04 Aperture macros list end*
%ADD10C,0.180000*%
%ADD11C,0.120000*%
%ADD12RoundRect,0.250000X-0.600000X0.600000X-0.600000X-0.600000X0.600000X-0.600000X0.600000X0.600000X0*%
%ADD13C,1.700000*%
%ADD14R,1.000000X1.000000*%
%ADD15O,1.000000X1.000000*%
G04 APERTURE END LIST*
D10*
X103771904Y-134264285D02*
X103771904Y-134883333D01*
X105071904Y-134883333D01*
X103771904Y-133830952D02*
X104638571Y-133830952D01*
X105071904Y-133830952D02*
X105010000Y-133892857D01*
X104948095Y-133830952D01*
X105010000Y-133769047D01*
X105071904Y-133830952D01*
X104948095Y-133830952D01*
X103833809Y-132654761D02*
X103771904Y-132778571D01*
X103771904Y-133026190D01*
X103833809Y-133150000D01*
X103895714Y-133211904D01*
X104019523Y-133273809D01*
X104390952Y-133273809D01*
X104514761Y-133211904D01*
X104576666Y-133150000D01*
X104638571Y-133026190D01*
X104638571Y-132778571D01*
X104576666Y-132654761D01*
X103833809Y-131602380D02*
X103771904Y-131726190D01*
X103771904Y-131973809D01*
X103833809Y-132097619D01*
X103957619Y-132159523D01*
X104452857Y-132159523D01*
X104576666Y-132097619D01*
X104638571Y-131973809D01*
X104638571Y-131726190D01*
X104576666Y-131602380D01*
X104452857Y-131540476D01*
X104329047Y-131540476D01*
X104205238Y-132159523D01*
X104638571Y-130983333D02*
X103771904Y-130983333D01*
X104514761Y-130983333D02*
X104576666Y-130921428D01*
X104638571Y-130797619D01*
X104638571Y-130611904D01*
X104576666Y-130488095D01*
X104452857Y-130426190D01*
X103771904Y-130426190D01*
X103833809Y-129869047D02*
X103771904Y-129745238D01*
X103771904Y-129497619D01*
X103833809Y-129373809D01*
X103957619Y-129311904D01*
X104019523Y-129311904D01*
X104143333Y-129373809D01*
X104205238Y-129497619D01*
X104205238Y-129683333D01*
X104267142Y-129807142D01*
X104390952Y-129869047D01*
X104452857Y-129869047D01*
X104576666Y-129807142D01*
X104638571Y-129683333D01*
X104638571Y-129497619D01*
X104576666Y-129373809D01*
X103833809Y-128259523D02*
X103771904Y-128383333D01*
X103771904Y-128630952D01*
X103833809Y-128754761D01*
X103957619Y-128816666D01*
X104452857Y-128816666D01*
X104576666Y-128754761D01*
X104638571Y-128630952D01*
X104638571Y-128383333D01*
X104576666Y-128259523D01*
X104452857Y-128197619D01*
X104329047Y-128197619D01*
X104205238Y-128816666D01*
X103771904Y-127083333D02*
X105071904Y-127083333D01*
X103833809Y-127083333D02*
X103771904Y-127207142D01*
X103771904Y-127454761D01*
X103833809Y-127578571D01*
X103895714Y-127640476D01*
X104019523Y-127702380D01*
X104390952Y-127702380D01*
X104514761Y-127640476D01*
X104576666Y-127578571D01*
X104638571Y-127454761D01*
X104638571Y-127207142D01*
X104576666Y-127083333D01*
X104638571Y-124916666D02*
X103771904Y-124916666D01*
X104638571Y-125473809D02*
X103957619Y-125473809D01*
X103833809Y-125411904D01*
X103771904Y-125288095D01*
X103771904Y-125102380D01*
X103833809Y-124978571D01*
X103895714Y-124916666D01*
X104638571Y-124297619D02*
X103771904Y-124297619D01*
X104514761Y-124297619D02*
X104576666Y-124235714D01*
X104638571Y-124111904D01*
X104638571Y-123926190D01*
X104576666Y-123802380D01*
X104452857Y-123740476D01*
X103771904Y-123740476D01*
X103771904Y-122564285D02*
X105071904Y-122564285D01*
X103833809Y-122564285D02*
X103771904Y-122688095D01*
X103771904Y-122935714D01*
X103833809Y-123059523D01*
X103895714Y-123121428D01*
X104019523Y-123183333D01*
X104390952Y-123183333D01*
X104514761Y-123121428D01*
X104576666Y-123059523D01*
X104638571Y-122935714D01*
X104638571Y-122688095D01*
X104576666Y-122564285D01*
X103833809Y-121450000D02*
X103771904Y-121573809D01*
X103771904Y-121821428D01*
X103833809Y-121945238D01*
X103957619Y-122007142D01*
X104452857Y-122007142D01*
X104576666Y-121945238D01*
X104638571Y-121821428D01*
X104638571Y-121573809D01*
X104576666Y-121450000D01*
X104452857Y-121388095D01*
X104329047Y-121388095D01*
X104205238Y-122007142D01*
X103771904Y-120830952D02*
X104638571Y-120830952D01*
X104390952Y-120830952D02*
X104514761Y-120769047D01*
X104576666Y-120707142D01*
X104638571Y-120583333D01*
X104638571Y-120459523D01*
X103895714Y-118292857D02*
X103833809Y-118354761D01*
X103771904Y-118540476D01*
X103771904Y-118664285D01*
X103833809Y-118850000D01*
X103957619Y-118973809D01*
X104081428Y-119035714D01*
X104329047Y-119097619D01*
X104514761Y-119097619D01*
X104762380Y-119035714D01*
X104886190Y-118973809D01*
X105010000Y-118850000D01*
X105071904Y-118664285D01*
X105071904Y-118540476D01*
X105010000Y-118354761D01*
X104948095Y-118292857D01*
X104452857Y-117735714D02*
X104452857Y-117302380D01*
X103771904Y-117116666D02*
X103771904Y-117735714D01*
X105071904Y-117735714D01*
X105071904Y-117116666D01*
X103771904Y-115816666D02*
X104390952Y-116250000D01*
X103771904Y-116559523D02*
X105071904Y-116559523D01*
X105071904Y-116064285D01*
X105010000Y-115940476D01*
X104948095Y-115878571D01*
X104824285Y-115816666D01*
X104638571Y-115816666D01*
X104514761Y-115878571D01*
X104452857Y-115940476D01*
X104390952Y-116064285D01*
X104390952Y-116559523D01*
X103771904Y-115259523D02*
X105071904Y-115259523D01*
X103771904Y-114516666D01*
X105071904Y-114516666D01*
X104267142Y-113897619D02*
X104267142Y-112907142D01*
X105071904Y-112040476D02*
X105071904Y-111792857D01*
X105010000Y-111669047D01*
X104886190Y-111545238D01*
X104638571Y-111483333D01*
X104205238Y-111483333D01*
X103957619Y-111545238D01*
X103833809Y-111669047D01*
X103771904Y-111792857D01*
X103771904Y-112040476D01*
X103833809Y-112164285D01*
X103957619Y-112288095D01*
X104205238Y-112350000D01*
X104638571Y-112350000D01*
X104886190Y-112288095D01*
X105010000Y-112164285D01*
X105071904Y-112040476D01*
X103771904Y-110926190D02*
X105071904Y-110926190D01*
X104452857Y-110926190D02*
X104452857Y-110183333D01*
X103771904Y-110183333D02*
X105071904Y-110183333D01*
X103771904Y-108945238D02*
X103771904Y-109564285D01*
X105071904Y-109564285D01*
X104267142Y-108511904D02*
X104267142Y-107521428D01*
X105071904Y-107026190D02*
X103771904Y-106716666D01*
X104700476Y-106469047D01*
X103771904Y-106221428D01*
X105071904Y-105911904D01*
X104638571Y-104550000D02*
X103771904Y-104240476D01*
X104638571Y-103930952D01*
X104948095Y-103497619D02*
X105010000Y-103435714D01*
X105071904Y-103311904D01*
X105071904Y-103002380D01*
X105010000Y-102878571D01*
X104948095Y-102816666D01*
X104824285Y-102754761D01*
X104700476Y-102754761D01*
X104514761Y-102816666D01*
X103771904Y-103559523D01*
X103771904Y-102754761D01*
D11*
G04 #@! TO.C,J1*
X107340000Y-98730000D02*
X107340000Y-97780000D01*
X107340000Y-97780000D02*
X106580000Y-97780000D01*
X105945000Y-97780000D02*
X100805000Y-97780000D01*
X107275000Y-100950000D02*
X107275000Y-100307530D01*
X107275000Y-99692470D02*
X107275000Y-99490000D01*
X100805000Y-98422470D02*
X100805000Y-97780000D01*
X105945000Y-97970000D02*
X105945000Y-97780000D01*
X107275000Y-100950000D02*
X100805000Y-100950000D01*
X100805000Y-99692470D02*
X100805000Y-99037530D01*
X100805000Y-100950000D02*
X100805000Y-100307530D01*
G04 #@! TD*
%LPC*%
D12*
G04 #@! TO.C,J12*
X109500000Y-136830000D03*
D13*
X109500000Y-139370000D03*
X106960000Y-136830000D03*
X106960000Y-139370000D03*
X104420000Y-136830000D03*
X104420000Y-139370000D03*
X101880000Y-139370000D03*
X99340000Y-136830000D03*
X99340000Y-139370000D03*
G04 #@! TD*
D14*
G04 #@! TO.C,J1*
X106580000Y-98730000D03*
D15*
X106580000Y-100000000D03*
X105310000Y-98730000D03*
X105310000Y-100000000D03*
X104040000Y-98730000D03*
X104040000Y-100000000D03*
X102770000Y-98730000D03*
X102770000Y-100000000D03*
X101500000Y-98730000D03*
X101500000Y-100000000D03*
G04 #@! TD*
M02*
