M48
; DRILL file {KiCad (6.0.10-0)} date Monday, 09 January 2023 at 15:38:07
; FORMAT={-:-/ absolute / metric / decimal}
; #@! TF.CreationDate,2023-01-09T15:38:07+01:00
; #@! TF.GenerationSoftware,Kicad,Pcbnew,(6.0.10-0)
; #@! TF.FileFunction,MixedPlating,1,2
FMAT,2
METRIC
; #@! TA.AperFunction,Plated,PTH,ViaDrill
T1C0.400
; #@! TA.AperFunction,Plated,PTH,ComponentDrill
T2C0.700
; #@! TA.AperFunction,Plated,PTH,ComponentDrill
T3C0.800
; #@! TA.AperFunction,Plated,PTH,ComponentDrill
T4C1.000
; #@! TA.AperFunction,NonPlated,NPTH,ComponentDrill
T5C0.500
; #@! TA.AperFunction,NonPlated,NPTH,ComponentDrill
T6C2.500
%
G90
G05
T1
X101.577Y-95.593
X102.661Y-113.438
X103.9Y-113.9
X104.0Y-88.9
X104.174Y-96.773
X104.4Y-102.6
X104.7Y-91.025
X104.949Y-113.874
X106.4Y-95.225
X106.6Y-116.474
X107.29Y-115.57
X107.6Y-113.6
X107.9Y-98.5
X108.1Y-89.8
X108.189Y-95.125
X108.4Y-92.525
X108.454Y-97.457
X108.6Y-102.8
X108.905Y-113.848
X109.238Y-95.173
X109.259Y-119.959
X109.8Y-111.0
X109.8Y-115.674
X110.126Y-90.636
X110.8Y-96.683
X111.1Y-117.5
X112.6Y-100.0
X114.6Y-91.7
X114.649Y-96.7
X115.607Y-101.5
X116.665Y-90.2
X118.8Y-116.2
X121.631Y-119.382
X122.05Y-101.65
X123.252Y-120.274
X124.2Y-103.6
X124.5Y-88.9
X126.1Y-96.279
X126.6Y-115.2
X127.0Y-100.8
X127.7Y-108.1
X128.5Y-90.05
X128.659Y-108.526
X129.5Y-96.7
X130.6Y-95.8
X131.955Y-120.455
X132.361Y-90.826
X132.9Y-93.0
X135.6Y-114.274
X139.31Y-89.094
X139.752Y-105.852
X140.1Y-85.9
X142.3Y-98.6
X142.8Y-105.9
X143.4Y-96.344
X143.55Y-87.25
X146.935Y-82.37
X149.0Y-108.4
X152.6Y-80.6
X153.9Y-89.8
X155.6Y-79.6
X158.8Y-82.0
X161.2Y-81.4
X161.4Y-88.894
X162.826Y-83.8
X163.6Y-84.8
X165.5Y-86.0
X166.0Y-92.715
X168.6Y-84.0
X170.8Y-102.8
X171.215Y-107.79
X172.2Y-94.3
X173.4Y-91.0
X173.428Y-105.577
X174.225Y-102.341
X174.299Y-96.101
X174.425Y-97.6
X175.2Y-113.8
X175.4Y-88.3
X175.498Y-94.402
X176.025Y-102.6
X176.3Y-84.6
X176.3Y-85.8
X176.3Y-88.3
X176.3Y-91.3
X176.3Y-108.5
X176.5Y-111.9
X176.5Y-114.3
X176.5Y-115.35
X184.8Y-102.621
X184.824Y-94.872
X185.087Y-96.787
X185.951Y-108.555
X185.952Y-114.3
X186.0Y-84.6
X186.0Y-85.8
X186.0Y-88.3
X186.0Y-91.3
X186.0Y-111.9
X186.0Y-115.4
X186.595Y-103.605
X186.84Y-88.305
X186.84Y-95.73
X188.249Y-102.849
X188.629Y-114.3
X189.0Y-115.3
X189.129Y-112.929
X189.467Y-97.733
X189.701Y-96.7
X189.805Y-104.2
X190.7Y-103.5
T2
X188.73Y-88.96
X188.73Y-90.23
X188.73Y-91.5
X188.73Y-92.77
X188.73Y-94.04
X188.73Y-105.96
X188.73Y-107.23
X188.73Y-108.5
X188.73Y-109.77
X188.73Y-111.04
X190.0Y-88.96
X190.0Y-90.23
X190.0Y-91.5
X190.0Y-92.77
X190.0Y-94.04
X190.0Y-105.96
X190.0Y-107.23
X190.0Y-108.5
X190.0Y-109.77
X190.0Y-111.04
T3
X175.0Y-99.0
X175.0Y-101.0
X177.0Y-80.0
X177.0Y-82.0
X177.0Y-99.0
X177.0Y-101.0
X177.0Y-118.0
X177.0Y-120.0
X186.5Y-80.0
X186.5Y-82.0
X186.5Y-99.0
X186.5Y-101.0
X186.5Y-118.0
X186.5Y-120.0
X188.5Y-99.0
X188.5Y-101.0
T4
X117.56Y-91.62
X117.56Y-94.16
X117.56Y-96.7
X117.56Y-107.3
X117.56Y-109.84
X117.56Y-112.38
X117.56Y-114.92
X117.56Y-117.46
X117.56Y-120.0
X120.1Y-91.62
X120.1Y-94.16
X120.1Y-96.7
X120.1Y-107.3
X120.1Y-109.84
X120.1Y-112.38
X120.1Y-114.92
X120.1Y-117.46
X120.1Y-120.0
X133.5Y-107.18
X133.5Y-109.72
X133.5Y-112.26
X134.6Y-79.96
X134.6Y-82.5
X134.6Y-86.125
X134.6Y-91.205
X134.6Y-93.745
X134.6Y-96.285
X134.6Y-98.825
X136.04Y-107.18
X136.04Y-109.72
X136.04Y-112.26
X145.0Y-89.4
X145.0Y-91.94
X145.0Y-94.48
X145.0Y-97.02
X145.0Y-99.56
X145.0Y-102.1
X145.0Y-104.64
X145.0Y-107.18
X145.0Y-109.72
X145.0Y-112.26
X147.54Y-89.4
X147.54Y-91.94
X147.54Y-94.48
X147.54Y-97.02
X147.54Y-99.56
X147.54Y-102.1
X147.54Y-104.64
X147.54Y-107.18
X147.54Y-109.72
X147.54Y-112.26
X156.5Y-89.4
X156.5Y-91.94
X156.5Y-94.48
X156.5Y-99.56
X159.04Y-89.4
X159.04Y-91.94
X159.04Y-94.48
X159.04Y-97.02
X159.04Y-99.56
X167.4Y-80.6
X168.0Y-89.4
X168.0Y-91.94
X168.0Y-94.48
X168.0Y-99.56
X169.9Y-109.6
X169.9Y-112.14
X170.54Y-89.4
X170.54Y-91.94
X170.54Y-94.48
X170.54Y-97.02
X170.54Y-99.56
X172.44Y-109.6
X172.44Y-112.14
X174.98Y-109.6
X174.98Y-112.14
T5
X177.9Y-86.19
X177.9Y-86.95
X177.9Y-88.12
X177.9Y-88.88
X177.9Y-90.05
X177.9Y-90.81
X177.9Y-109.19
X177.9Y-109.95
X177.9Y-111.12
X177.9Y-111.88
X177.9Y-113.05
X177.9Y-113.81
X184.6Y-86.19
X184.6Y-86.95
X184.6Y-88.12
X184.6Y-88.88
X184.6Y-90.05
X184.6Y-90.81
X184.6Y-109.19
X184.6Y-109.95
X184.6Y-111.12
X184.6Y-111.88
X184.6Y-113.05
X184.6Y-113.81
T6
X103.0Y-81.0
X172.0Y-81.0
X172.0Y-119.0
T0
M30
