G04 #@! TF.GenerationSoftware,KiCad,Pcbnew,(6.0.10-0)*
G04 #@! TF.CreationDate,2023-01-09T15:38:06+01:00*
G04 #@! TF.ProjectId,ATMEL-ICE-Octopus,41544d45-4c2d-4494-9345-2d4f63746f70,B6*
G04 #@! TF.SameCoordinates,Original*
G04 #@! TF.FileFunction,Profile,NP*
%FSLAX46Y46*%
G04 Gerber Fmt 4.6, Leading zero omitted, Abs format (unit mm)*
G04 Created by KiCad (PCBNEW (6.0.10-0)) date 2023-01-09 15:38:06*
%MOMM*%
%LPD*%
G01*
G04 APERTURE LIST*
G04 #@! TA.AperFunction,Profile*
%ADD10C,0.100000*%
G04 #@! TD*
G04 APERTURE END LIST*
D10*
X184000000Y-93700000D02*
X184000000Y-106300000D01*
X184320707Y-92711150D02*
G75*
G03*
X184500000Y-92000000I-1320707J711150D01*
G01*
X168000000Y-107000000D02*
G75*
G03*
X167000000Y-106000000I-1000000J0D01*
G01*
X184320707Y-115711150D02*
G75*
G03*
X184500000Y-115000000I-1320707J711150D01*
G01*
X184500000Y-108000000D02*
G75*
G03*
X184320707Y-107288850I-1500000J0D01*
G01*
X184179293Y-92988850D02*
X184320707Y-92711150D01*
X100000000Y-120900000D02*
X100000000Y-79100000D01*
X168000000Y-120900000D02*
G75*
G03*
X169000000Y-121900000I1000000J0D01*
G01*
X163000000Y-120900000D02*
X163000000Y-107000000D01*
X190500000Y-121900000D02*
G75*
G03*
X191500000Y-120900000I0J1000000D01*
G01*
X178000000Y-108000000D02*
G75*
G03*
X179500000Y-109500000I1500000J0D01*
G01*
X178000000Y-120900000D02*
X178000000Y-115000000D01*
X184000000Y-83300000D02*
G75*
G03*
X184179293Y-84011150I1500000J0D01*
G01*
X184500000Y-85000000D02*
G75*
G03*
X184320707Y-84288850I-1500000J0D01*
G01*
X183000000Y-109500000D02*
G75*
G03*
X184500000Y-108000000I0J1500000D01*
G01*
X164000000Y-106000000D02*
G75*
G03*
X163000000Y-107000000I0J-1000000D01*
G01*
X184500000Y-92000000D02*
G75*
G03*
X183000000Y-90500000I-1500000J0D01*
G01*
X178000000Y-85000000D02*
X178000000Y-79100000D01*
X184000000Y-120900000D02*
G75*
G03*
X185000000Y-121900000I1000000J0D01*
G01*
X177000000Y-121900000D02*
X169000000Y-121900000D01*
X177000000Y-121900000D02*
G75*
G03*
X178000000Y-120900000I0J1000000D01*
G01*
X177000000Y-78100000D02*
X101000000Y-78100000D01*
X162000000Y-121900000D02*
X101000000Y-121900000D01*
X184000000Y-79100000D02*
X184000000Y-83300000D01*
X190500000Y-121900000D02*
X185000000Y-121900000D01*
X183000000Y-109500000D02*
X179500000Y-109500000D01*
X184179293Y-115988850D02*
G75*
G03*
X184000000Y-116700000I1320707J-711150D01*
G01*
X178000000Y-79100000D02*
G75*
G03*
X177000000Y-78100000I-1000000J0D01*
G01*
X178000000Y-108000000D02*
X178000000Y-92000000D01*
X162000000Y-121900000D02*
G75*
G03*
X163000000Y-120900000I0J1000000D01*
G01*
X167000000Y-106000000D02*
X164000000Y-106000000D01*
X184179293Y-107011150D02*
X184320707Y-107288850D01*
X101000000Y-78100000D02*
G75*
G03*
X100000000Y-79100000I0J-1000000D01*
G01*
X184000000Y-116700000D02*
X184000000Y-120900000D01*
X185000000Y-78100000D02*
G75*
G03*
X184000000Y-79100000I0J-1000000D01*
G01*
X100000000Y-120900000D02*
G75*
G03*
X101000000Y-121900000I1000000J0D01*
G01*
X183000000Y-113500000D02*
X179500000Y-113500000D01*
X179500000Y-90500000D02*
G75*
G03*
X178000000Y-92000000I0J-1500000D01*
G01*
X184179293Y-92988850D02*
G75*
G03*
X184000000Y-93700000I1320707J-711150D01*
G01*
X184500000Y-115000000D02*
G75*
G03*
X183000000Y-113500000I-1500000J0D01*
G01*
X183000000Y-86500000D02*
G75*
G03*
X184500000Y-85000000I0J1500000D01*
G01*
X183000000Y-90500000D02*
X179500000Y-90500000D01*
X184179293Y-84011150D02*
X184320707Y-84288850D01*
X190500000Y-78100000D02*
X185000000Y-78100000D01*
X184179293Y-115988850D02*
X184320707Y-115711150D01*
X168000000Y-120900000D02*
X168000000Y-107000000D01*
X179500000Y-113500000D02*
G75*
G03*
X178000000Y-115000000I0J-1500000D01*
G01*
X191500000Y-79100000D02*
G75*
G03*
X190500000Y-78100000I-1000000J0D01*
G01*
X183000000Y-86500000D02*
X179500000Y-86500000D01*
X191500000Y-79100000D02*
X191500000Y-120900000D01*
X178000000Y-85000000D02*
G75*
G03*
X179500000Y-86500000I1500000J0D01*
G01*
X184000000Y-106300000D02*
G75*
G03*
X184179293Y-107011150I1500000J0D01*
G01*
M02*
