G04 #@! TF.GenerationSoftware,KiCad,Pcbnew,(6.0.0-0)*
G04 #@! TF.CreationDate,2022-01-14T20:36:58+01:00*
G04 #@! TF.ProjectId,ATMEL-ICE-Octopus,41544d45-4c2d-4494-9345-2d4f63746f70,rev?*
G04 #@! TF.SameCoordinates,Original*
G04 #@! TF.FileFunction,Soldermask,Bot*
G04 #@! TF.FilePolarity,Negative*
%FSLAX46Y46*%
G04 Gerber Fmt 4.6, Leading zero omitted, Abs format (unit mm)*
G04 Created by KiCad (PCBNEW (6.0.0-0)) date 2022-01-14 20:36:58*
%MOMM*%
%LPD*%
G01*
G04 APERTURE LIST*
G04 Aperture macros list*
%AMRoundRect*
0 Rectangle with rounded corners*
0 $1 Rounding radius*
0 $2 $3 $4 $5 $6 $7 $8 $9 X,Y pos of 4 corners*
0 Add a 4 corners polygon primitive as box body*
4,1,4,$2,$3,$4,$5,$6,$7,$8,$9,$2,$3,0*
0 Add four circle primitives for the rounded corners*
1,1,$1+$1,$2,$3*
1,1,$1+$1,$4,$5*
1,1,$1+$1,$6,$7*
1,1,$1+$1,$8,$9*
0 Add four rect primitives between the rounded corners*
20,1,$1+$1,$2,$3,$4,$5,0*
20,1,$1+$1,$4,$5,$6,$7,0*
20,1,$1+$1,$6,$7,$8,$9,0*
20,1,$1+$1,$8,$9,$2,$3,0*%
G04 Aperture macros list end*
%ADD10R,1.700000X1.700000*%
%ADD11O,1.700000X1.700000*%
%ADD12R,1.000000X1.000000*%
%ADD13O,1.000000X1.000000*%
%ADD14RoundRect,0.250000X-0.600000X-0.600000X0.600000X-0.600000X0.600000X0.600000X-0.600000X0.600000X0*%
%ADD15C,1.700000*%
%ADD16RoundRect,0.250000X-0.350000X-0.450000X0.350000X-0.450000X0.350000X0.450000X-0.350000X0.450000X0*%
%ADD17RoundRect,0.150000X-0.975000X-0.150000X0.975000X-0.150000X0.975000X0.150000X-0.975000X0.150000X0*%
%ADD18RoundRect,0.150000X-0.587500X-0.150000X0.587500X-0.150000X0.587500X0.150000X-0.587500X0.150000X0*%
%ADD19RoundRect,0.250000X-0.450000X0.350000X-0.450000X-0.350000X0.450000X-0.350000X0.450000X0.350000X0*%
%ADD20R,2.300000X1.700000*%
%ADD21RoundRect,0.250000X0.350000X0.450000X-0.350000X0.450000X-0.350000X-0.450000X0.350000X-0.450000X0*%
G04 APERTURE END LIST*
D10*
G04 #@! TO.C,JP1*
X92300000Y-105600000D03*
D11*
X94840000Y-105600000D03*
G04 #@! TD*
D12*
G04 #@! TO.C,J1*
X101000000Y-111040000D03*
D13*
X102270000Y-111040000D03*
X101000000Y-109770000D03*
X102270000Y-109770000D03*
X101000000Y-108500000D03*
X102270000Y-108500000D03*
X101000000Y-107230000D03*
X102270000Y-107230000D03*
X101000000Y-105960000D03*
X102270000Y-105960000D03*
G04 #@! TD*
D14*
G04 #@! TO.C,J12*
X122000000Y-91500000D03*
D15*
X124540000Y-91500000D03*
X122000000Y-94040000D03*
X124540000Y-94040000D03*
X122000000Y-96580000D03*
X124540000Y-96580000D03*
X124540000Y-99120000D03*
X122000000Y-101660000D03*
X124540000Y-101660000D03*
G04 #@! TD*
D10*
G04 #@! TO.C,J8*
X94300000Y-90100000D03*
D11*
X94300000Y-92640000D03*
G04 #@! TD*
D10*
G04 #@! TO.C,J3*
X94325000Y-101270000D03*
D11*
X91785000Y-101270000D03*
X94325000Y-98730000D03*
X91785000Y-98730000D03*
G04 #@! TD*
D10*
G04 #@! TO.C,J16*
X158000000Y-117800000D03*
D11*
X158000000Y-115260000D03*
G04 #@! TD*
D10*
G04 #@! TO.C,J21*
X113810000Y-84000000D03*
D11*
X111270000Y-84000000D03*
X108730000Y-84000000D03*
G04 #@! TD*
D12*
G04 #@! TO.C,J2*
X101000000Y-94040000D03*
D13*
X102270000Y-94040000D03*
X101000000Y-92770000D03*
X102270000Y-92770000D03*
X101000000Y-91500000D03*
X102270000Y-91500000D03*
X101000000Y-90230000D03*
X102270000Y-90230000D03*
X101000000Y-88960000D03*
X102270000Y-88960000D03*
G04 #@! TD*
D10*
G04 #@! TO.C,J5*
X94325000Y-84760000D03*
D11*
X91785000Y-84760000D03*
X94325000Y-82220000D03*
X91785000Y-82220000D03*
G04 #@! TD*
D10*
G04 #@! TO.C,J4*
X94325000Y-117780000D03*
D11*
X91785000Y-117780000D03*
X94325000Y-115240000D03*
X91785000Y-115240000D03*
G04 #@! TD*
D14*
G04 #@! TO.C,J14*
X146000000Y-91500000D03*
D15*
X148540000Y-91500000D03*
X146000000Y-94040000D03*
X148540000Y-94040000D03*
X146000000Y-96580000D03*
X148540000Y-96580000D03*
G04 #@! TD*
D14*
G04 #@! TO.C,J11*
X110000000Y-91500000D03*
D15*
X112540000Y-91500000D03*
X110000000Y-94040000D03*
X112540000Y-94040000D03*
X110000000Y-96580000D03*
X112540000Y-96580000D03*
X110000000Y-99120000D03*
X112540000Y-99120000D03*
X110000000Y-101660000D03*
X112540000Y-101660000D03*
X110000000Y-104200000D03*
X112540000Y-104200000D03*
X110000000Y-106740000D03*
X112540000Y-106740000D03*
X110000000Y-109280000D03*
X112540000Y-109280000D03*
X110000000Y-111820000D03*
X112540000Y-111820000D03*
X110000000Y-114360000D03*
X112540000Y-114360000D03*
G04 #@! TD*
D10*
G04 #@! TO.C,J23*
X137810000Y-84000000D03*
D11*
X135270000Y-84000000D03*
X132730000Y-84000000D03*
G04 #@! TD*
D10*
G04 #@! TO.C,JP2*
X92300000Y-109400000D03*
D11*
X94840000Y-109400000D03*
G04 #@! TD*
D14*
G04 #@! TO.C,J13*
X134000000Y-91500000D03*
D15*
X136540000Y-91500000D03*
X134000000Y-94040000D03*
X136540000Y-94040000D03*
X134000000Y-96580000D03*
X136540000Y-96580000D03*
X136540000Y-99120000D03*
X134000000Y-101660000D03*
X136540000Y-101660000D03*
G04 #@! TD*
D10*
G04 #@! TO.C,J15*
X158000000Y-91500000D03*
D11*
X158000000Y-94040000D03*
X158000000Y-96580000D03*
X158000000Y-99120000D03*
G04 #@! TD*
D10*
G04 #@! TO.C,J24*
X149810000Y-84000000D03*
D11*
X147270000Y-84000000D03*
X144730000Y-84000000D03*
G04 #@! TD*
D10*
G04 #@! TO.C,J9*
X138000000Y-117800000D03*
D11*
X138000000Y-115260000D03*
X138000000Y-112720000D03*
G04 #@! TD*
D10*
G04 #@! TO.C,J22*
X125810000Y-84000000D03*
D11*
X123270000Y-84000000D03*
X120730000Y-84000000D03*
G04 #@! TD*
D16*
G04 #@! TO.C,R48*
X115200000Y-88800000D03*
X117200000Y-88800000D03*
G04 #@! TD*
D17*
G04 #@! TO.C,U12*
X146600000Y-105905000D03*
X146600000Y-104635000D03*
X146600000Y-103365000D03*
X146600000Y-102095000D03*
X152250000Y-102095000D03*
X152250000Y-103365000D03*
X152250000Y-104635000D03*
X152250000Y-105905000D03*
G04 #@! TD*
D16*
G04 #@! TO.C,R18*
X154900000Y-102065000D03*
X156900000Y-102065000D03*
G04 #@! TD*
G04 #@! TO.C,R21*
X130900000Y-116800000D03*
X132900000Y-116800000D03*
G04 #@! TD*
G04 #@! TO.C,R17*
X154900000Y-107465000D03*
X156900000Y-107465000D03*
G04 #@! TD*
D18*
G04 #@! TO.C,Q13*
X142287500Y-111450000D03*
X142287500Y-109550000D03*
X144162500Y-110500000D03*
G04 #@! TD*
D19*
G04 #@! TO.C,R24*
X116300000Y-111200000D03*
X116300000Y-113200000D03*
G04 #@! TD*
D16*
G04 #@! TO.C,R37*
X152600000Y-86700000D03*
X154600000Y-86700000D03*
G04 #@! TD*
G04 #@! TO.C,R39*
X152600000Y-82900000D03*
X154600000Y-82900000D03*
G04 #@! TD*
G04 #@! TO.C,R35*
X152600000Y-90500000D03*
X154600000Y-90500000D03*
G04 #@! TD*
D18*
G04 #@! TO.C,Q17*
X154962500Y-105715000D03*
X154962500Y-103815000D03*
X156837500Y-104765000D03*
G04 #@! TD*
D20*
G04 #@! TO.C,D29*
X128050000Y-87500000D03*
X123550000Y-87500000D03*
G04 #@! TD*
D19*
G04 #@! TO.C,R25*
X116300000Y-107500000D03*
X116300000Y-109500000D03*
G04 #@! TD*
D21*
G04 #@! TO.C,R29*
X121000000Y-86900000D03*
X119000000Y-86900000D03*
G04 #@! TD*
D16*
G04 #@! TO.C,R11*
X154900000Y-111300000D03*
X156900000Y-111300000D03*
G04 #@! TD*
G04 #@! TO.C,R38*
X152600000Y-84800000D03*
X154600000Y-84800000D03*
G04 #@! TD*
D18*
G04 #@! TO.C,Q29*
X119062500Y-90550000D03*
X119062500Y-88650000D03*
X120937500Y-89600000D03*
G04 #@! TD*
D21*
G04 #@! TO.C,R26*
X120240000Y-106500000D03*
X118240000Y-106500000D03*
G04 #@! TD*
D18*
G04 #@! TO.C,Q15*
X142287500Y-104650000D03*
X142287500Y-102750000D03*
X144162500Y-103700000D03*
G04 #@! TD*
D16*
G04 #@! TO.C,R47*
X115200000Y-90700000D03*
X117200000Y-90700000D03*
G04 #@! TD*
D19*
G04 #@! TO.C,R13*
X140325000Y-109400000D03*
X140325000Y-111400000D03*
G04 #@! TD*
D21*
G04 #@! TO.C,R19*
X158300000Y-82900000D03*
X156300000Y-82900000D03*
G04 #@! TD*
D16*
G04 #@! TO.C,R27*
X130900000Y-113000000D03*
X132900000Y-113000000D03*
G04 #@! TD*
G04 #@! TO.C,R49*
X115200000Y-86900000D03*
X117200000Y-86900000D03*
G04 #@! TD*
D18*
G04 #@! TO.C,Q23*
X118262500Y-116950000D03*
X118262500Y-115050000D03*
X120137500Y-116000000D03*
G04 #@! TD*
G04 #@! TO.C,Q27*
X130962500Y-111250000D03*
X130962500Y-109350000D03*
X132837500Y-110300000D03*
G04 #@! TD*
D16*
G04 #@! TO.C,R46*
X115200000Y-92600000D03*
X117200000Y-92600000D03*
G04 #@! TD*
D17*
G04 #@! TO.C,U11*
X146600000Y-111405000D03*
X146600000Y-110135000D03*
X146600000Y-108865000D03*
X146600000Y-107595000D03*
X152250000Y-107595000D03*
X152250000Y-108865000D03*
X152250000Y-110135000D03*
X152250000Y-111405000D03*
G04 #@! TD*
D16*
G04 #@! TO.C,R34*
X152600000Y-92400000D03*
X154600000Y-92400000D03*
G04 #@! TD*
G04 #@! TO.C,R42*
X115200000Y-100200000D03*
X117200000Y-100200000D03*
G04 #@! TD*
G04 #@! TO.C,R43*
X115200000Y-98300000D03*
X117200000Y-98300000D03*
G04 #@! TD*
D17*
G04 #@! TO.C,U21*
X122615000Y-116905000D03*
X122615000Y-115635000D03*
X122615000Y-114365000D03*
X122615000Y-113095000D03*
X128265000Y-113095000D03*
X128265000Y-114365000D03*
X128265000Y-115635000D03*
X128265000Y-116905000D03*
G04 #@! TD*
D16*
G04 #@! TO.C,R12*
X154900000Y-109365000D03*
X156900000Y-109365000D03*
G04 #@! TD*
G04 #@! TO.C,R44*
X115200000Y-96400000D03*
X117200000Y-96400000D03*
G04 #@! TD*
G04 #@! TO.C,R28*
X130900000Y-107600000D03*
X132900000Y-107600000D03*
G04 #@! TD*
D19*
G04 #@! TO.C,R23*
X116300000Y-114900000D03*
X116300000Y-116900000D03*
G04 #@! TD*
G04 #@! TO.C,R14*
X140325000Y-105700000D03*
X140325000Y-107700000D03*
G04 #@! TD*
D18*
G04 #@! TO.C,Q25*
X118262500Y-110150000D03*
X118262500Y-108250000D03*
X120137500Y-109200000D03*
G04 #@! TD*
D16*
G04 #@! TO.C,R33*
X152600000Y-94300000D03*
X154600000Y-94300000D03*
G04 #@! TD*
G04 #@! TO.C,R22*
X130900000Y-114900000D03*
X132900000Y-114900000D03*
G04 #@! TD*
D18*
G04 #@! TO.C,Q19*
X156462500Y-86550000D03*
X156462500Y-84650000D03*
X158337500Y-85600000D03*
G04 #@! TD*
D21*
G04 #@! TO.C,R16*
X144225000Y-101000000D03*
X142225000Y-101000000D03*
G04 #@! TD*
D16*
G04 #@! TO.C,R31*
X152600000Y-98100000D03*
X154600000Y-98100000D03*
G04 #@! TD*
G04 #@! TO.C,R32*
X152600000Y-96200000D03*
X154600000Y-96200000D03*
G04 #@! TD*
G04 #@! TO.C,R41*
X115200000Y-102100000D03*
X117200000Y-102100000D03*
G04 #@! TD*
D20*
G04 #@! TO.C,D19*
X144550000Y-87800000D03*
X149050000Y-87800000D03*
G04 #@! TD*
D18*
G04 #@! TO.C,Q14*
X142287500Y-108050000D03*
X142287500Y-106150000D03*
X144162500Y-107100000D03*
G04 #@! TD*
D19*
G04 #@! TO.C,R15*
X140325000Y-102000000D03*
X140325000Y-104000000D03*
G04 #@! TD*
D16*
G04 #@! TO.C,R36*
X152600000Y-88600000D03*
X154600000Y-88600000D03*
G04 #@! TD*
D17*
G04 #@! TO.C,U22*
X122615000Y-111405000D03*
X122615000Y-110135000D03*
X122615000Y-108865000D03*
X122615000Y-107595000D03*
X128265000Y-107595000D03*
X128265000Y-108865000D03*
X128265000Y-110135000D03*
X128265000Y-111405000D03*
G04 #@! TD*
D16*
G04 #@! TO.C,R45*
X115200000Y-94500000D03*
X117200000Y-94500000D03*
G04 #@! TD*
D18*
G04 #@! TO.C,Q24*
X118262500Y-113550000D03*
X118262500Y-111650000D03*
X120137500Y-112600000D03*
G04 #@! TD*
M02*
