G04 #@! TF.GenerationSoftware,KiCad,Pcbnew,(6.0.0-0)*
G04 #@! TF.CreationDate,2022-01-14T20:36:58+01:00*
G04 #@! TF.ProjectId,ATMEL-ICE-Octopus,41544d45-4c2d-4494-9345-2d4f63746f70,rev?*
G04 #@! TF.SameCoordinates,Original*
G04 #@! TF.FileFunction,Soldermask,Top*
G04 #@! TF.FilePolarity,Negative*
%FSLAX46Y46*%
G04 Gerber Fmt 4.6, Leading zero omitted, Abs format (unit mm)*
G04 Created by KiCad (PCBNEW (6.0.0-0)) date 2022-01-14 20:36:58*
%MOMM*%
%LPD*%
G01*
G04 APERTURE LIST*
G04 Aperture macros list*
%AMRoundRect*
0 Rectangle with rounded corners*
0 $1 Rounding radius*
0 $2 $3 $4 $5 $6 $7 $8 $9 X,Y pos of 4 corners*
0 Add a 4 corners polygon primitive as box body*
4,1,4,$2,$3,$4,$5,$6,$7,$8,$9,$2,$3,0*
0 Add four circle primitives for the rounded corners*
1,1,$1+$1,$2,$3*
1,1,$1+$1,$4,$5*
1,1,$1+$1,$6,$7*
1,1,$1+$1,$8,$9*
0 Add four rect primitives between the rounded corners*
20,1,$1+$1,$2,$3,$4,$5,0*
20,1,$1+$1,$4,$5,$6,$7,0*
20,1,$1+$1,$6,$7,$8,$9,0*
20,1,$1+$1,$8,$9,$2,$3,0*%
G04 Aperture macros list end*
%ADD10R,1.700000X1.700000*%
%ADD11O,1.700000X1.700000*%
%ADD12R,1.000000X1.000000*%
%ADD13O,1.000000X1.000000*%
%ADD14RoundRect,0.250000X-0.600000X-0.600000X0.600000X-0.600000X0.600000X0.600000X-0.600000X0.600000X0*%
%ADD15C,1.700000*%
%ADD16RoundRect,0.250000X-0.450000X0.325000X-0.450000X-0.325000X0.450000X-0.325000X0.450000X0.325000X0*%
G04 APERTURE END LIST*
D10*
G04 #@! TO.C,JP1*
X92300000Y-105600000D03*
D11*
X94840000Y-105600000D03*
G04 #@! TD*
D12*
G04 #@! TO.C,J1*
X101000000Y-111040000D03*
D13*
X102270000Y-111040000D03*
X101000000Y-109770000D03*
X102270000Y-109770000D03*
X101000000Y-108500000D03*
X102270000Y-108500000D03*
X101000000Y-107230000D03*
X102270000Y-107230000D03*
X101000000Y-105960000D03*
X102270000Y-105960000D03*
G04 #@! TD*
D14*
G04 #@! TO.C,J12*
X122000000Y-91500000D03*
D15*
X124540000Y-91500000D03*
X122000000Y-94040000D03*
X124540000Y-94040000D03*
X122000000Y-96580000D03*
X124540000Y-96580000D03*
X124540000Y-99120000D03*
X122000000Y-101660000D03*
X124540000Y-101660000D03*
G04 #@! TD*
D10*
G04 #@! TO.C,J8*
X94300000Y-90100000D03*
D11*
X94300000Y-92640000D03*
G04 #@! TD*
D10*
G04 #@! TO.C,J3*
X94325000Y-101270000D03*
D11*
X91785000Y-101270000D03*
X94325000Y-98730000D03*
X91785000Y-98730000D03*
G04 #@! TD*
D10*
G04 #@! TO.C,J16*
X158000000Y-117800000D03*
D11*
X158000000Y-115260000D03*
G04 #@! TD*
D10*
G04 #@! TO.C,J21*
X113810000Y-84000000D03*
D11*
X111270000Y-84000000D03*
X108730000Y-84000000D03*
G04 #@! TD*
D12*
G04 #@! TO.C,J2*
X101000000Y-94040000D03*
D13*
X102270000Y-94040000D03*
X101000000Y-92770000D03*
X102270000Y-92770000D03*
X101000000Y-91500000D03*
X102270000Y-91500000D03*
X101000000Y-90230000D03*
X102270000Y-90230000D03*
X101000000Y-88960000D03*
X102270000Y-88960000D03*
G04 #@! TD*
D16*
G04 #@! TO.C,D12*
X153300000Y-115600000D03*
X153300000Y-117650000D03*
G04 #@! TD*
D10*
G04 #@! TO.C,J5*
X94325000Y-84760000D03*
D11*
X91785000Y-84760000D03*
X94325000Y-82220000D03*
X91785000Y-82220000D03*
G04 #@! TD*
D10*
G04 #@! TO.C,J4*
X94325000Y-117780000D03*
D11*
X91785000Y-117780000D03*
X94325000Y-115240000D03*
X91785000Y-115240000D03*
G04 #@! TD*
D14*
G04 #@! TO.C,J14*
X146000000Y-91500000D03*
D15*
X148540000Y-91500000D03*
X146000000Y-94040000D03*
X148540000Y-94040000D03*
X146000000Y-96580000D03*
X148540000Y-96580000D03*
G04 #@! TD*
D14*
G04 #@! TO.C,J11*
X110000000Y-91500000D03*
D15*
X112540000Y-91500000D03*
X110000000Y-94040000D03*
X112540000Y-94040000D03*
X110000000Y-96580000D03*
X112540000Y-96580000D03*
X110000000Y-99120000D03*
X112540000Y-99120000D03*
X110000000Y-101660000D03*
X112540000Y-101660000D03*
X110000000Y-104200000D03*
X112540000Y-104200000D03*
X110000000Y-106740000D03*
X112540000Y-106740000D03*
X110000000Y-109280000D03*
X112540000Y-109280000D03*
X110000000Y-111820000D03*
X112540000Y-111820000D03*
X110000000Y-114360000D03*
X112540000Y-114360000D03*
G04 #@! TD*
D10*
G04 #@! TO.C,J23*
X137810000Y-84000000D03*
D11*
X135270000Y-84000000D03*
X132730000Y-84000000D03*
G04 #@! TD*
D16*
G04 #@! TO.C,D28*
X146700000Y-115600000D03*
X146700000Y-117650000D03*
G04 #@! TD*
D10*
G04 #@! TO.C,JP2*
X92300000Y-109400000D03*
D11*
X94840000Y-109400000D03*
G04 #@! TD*
D14*
G04 #@! TO.C,J13*
X134000000Y-91500000D03*
D15*
X136540000Y-91500000D03*
X134000000Y-94040000D03*
X136540000Y-94040000D03*
X134000000Y-96580000D03*
X136540000Y-96580000D03*
X136540000Y-99120000D03*
X134000000Y-101660000D03*
X136540000Y-101660000D03*
G04 #@! TD*
D16*
G04 #@! TO.C,D11*
X151200000Y-115575000D03*
X151200000Y-117625000D03*
G04 #@! TD*
G04 #@! TO.C,D26*
X144600000Y-115600000D03*
X144600000Y-117650000D03*
G04 #@! TD*
D10*
G04 #@! TO.C,J15*
X158000000Y-91500000D03*
D11*
X158000000Y-94040000D03*
X158000000Y-96580000D03*
X158000000Y-99120000D03*
G04 #@! TD*
D10*
G04 #@! TO.C,J24*
X149810000Y-84000000D03*
D11*
X147270000Y-84000000D03*
X144730000Y-84000000D03*
G04 #@! TD*
D10*
G04 #@! TO.C,J9*
X138000000Y-117800000D03*
D11*
X138000000Y-115260000D03*
X138000000Y-112720000D03*
G04 #@! TD*
D10*
G04 #@! TO.C,J22*
X125810000Y-84000000D03*
D11*
X123270000Y-84000000D03*
X120730000Y-84000000D03*
G04 #@! TD*
M02*
