G04 #@! TF.GenerationSoftware,KiCad,Pcbnew,(6.0.0-0)*
G04 #@! TF.CreationDate,2022-01-14T23:12:18+01:00*
G04 #@! TF.ProjectId,JTAG-MINI-ADAPTER,4a544147-2d4d-4494-9e49-2d4144415054,rev?*
G04 #@! TF.SameCoordinates,Original*
G04 #@! TF.FileFunction,Copper,L1,Top*
G04 #@! TF.FilePolarity,Positive*
%FSLAX46Y46*%
G04 Gerber Fmt 4.6, Leading zero omitted, Abs format (unit mm)*
G04 Created by KiCad (PCBNEW (6.0.0-0)) date 2022-01-14 23:12:18*
%MOMM*%
%LPD*%
G01*
G04 APERTURE LIST*
G04 Aperture macros list*
%AMRoundRect*
0 Rectangle with rounded corners*
0 $1 Rounding radius*
0 $2 $3 $4 $5 $6 $7 $8 $9 X,Y pos of 4 corners*
0 Add a 4 corners polygon primitive as box body*
4,1,4,$2,$3,$4,$5,$6,$7,$8,$9,$2,$3,0*
0 Add four circle primitives for the rounded corners*
1,1,$1+$1,$2,$3*
1,1,$1+$1,$4,$5*
1,1,$1+$1,$6,$7*
1,1,$1+$1,$8,$9*
0 Add four rect primitives between the rounded corners*
20,1,$1+$1,$2,$3,$4,$5,0*
20,1,$1+$1,$4,$5,$6,$7,0*
20,1,$1+$1,$6,$7,$8,$9,0*
20,1,$1+$1,$8,$9,$2,$3,0*%
G04 Aperture macros list end*
G04 #@! TA.AperFunction,ComponentPad*
%ADD10RoundRect,0.250000X-0.600000X0.600000X-0.600000X-0.600000X0.600000X-0.600000X0.600000X0.600000X0*%
G04 #@! TD*
G04 #@! TA.AperFunction,ComponentPad*
%ADD11C,1.700000*%
G04 #@! TD*
G04 #@! TA.AperFunction,ComponentPad*
%ADD12R,1.000000X1.000000*%
G04 #@! TD*
G04 #@! TA.AperFunction,ComponentPad*
%ADD13O,1.000000X1.000000*%
G04 #@! TD*
G04 #@! TA.AperFunction,ViaPad*
%ADD14C,0.800000*%
G04 #@! TD*
G04 #@! TA.AperFunction,Conductor*
%ADD15C,0.400000*%
G04 #@! TD*
G04 APERTURE END LIST*
D10*
G04 #@! TO.P,J12,1,Pin_1*
G04 #@! TO.N,/S1*
X109500000Y-136830000D03*
D11*
G04 #@! TO.P,J12,2,Pin_2*
G04 #@! TO.N,/S2*
X109500000Y-139370000D03*
G04 #@! TO.P,J12,3,Pin_3*
G04 #@! TO.N,/S3*
X106960000Y-136830000D03*
G04 #@! TO.P,J12,4,Pin_4*
G04 #@! TO.N,/S4*
X106960000Y-139370000D03*
G04 #@! TO.P,J12,5,Pin_5*
G04 #@! TO.N,/S5*
X104420000Y-136830000D03*
G04 #@! TO.P,J12,6,Pin_6*
G04 #@! TO.N,/S6*
X104420000Y-139370000D03*
G04 #@! TO.P,J12,8,Pin_8*
G04 #@! TO.N,/S8*
X101880000Y-139370000D03*
G04 #@! TO.P,J12,9,Pin_9*
G04 #@! TO.N,/S9*
X99340000Y-136830000D03*
G04 #@! TO.P,J12,10,Pin_10*
G04 #@! TO.N,/S10*
X99340000Y-139370000D03*
G04 #@! TD*
D12*
G04 #@! TO.P,J1,1,Pin_1*
G04 #@! TO.N,/S1*
X106580000Y-98730000D03*
D13*
G04 #@! TO.P,J1,2,Pin_2*
G04 #@! TO.N,/S2*
X106580000Y-100000000D03*
G04 #@! TO.P,J1,3,Pin_3*
G04 #@! TO.N,/S3*
X105310000Y-98730000D03*
G04 #@! TO.P,J1,4,Pin_4*
G04 #@! TO.N,/S4*
X105310000Y-100000000D03*
G04 #@! TO.P,J1,5,Pin_5*
G04 #@! TO.N,/S5*
X104040000Y-98730000D03*
G04 #@! TO.P,J1,6,Pin_6*
G04 #@! TO.N,/S6*
X104040000Y-100000000D03*
G04 #@! TO.P,J1,7,Pin_7*
G04 #@! TO.N,unconnected-(J1-Pad7)*
X102770000Y-98730000D03*
G04 #@! TO.P,J1,8,Pin_8*
G04 #@! TO.N,/S8*
X102770000Y-100000000D03*
G04 #@! TO.P,J1,9,Pin_9*
G04 #@! TO.N,/S9*
X101500000Y-98730000D03*
G04 #@! TO.P,J1,10,Pin_10*
G04 #@! TO.N,/S10*
X101500000Y-100000000D03*
G04 #@! TD*
D14*
G04 #@! TO.N,/S3*
X105780500Y-101734187D03*
G04 #@! TO.N,/S5*
X104101940Y-101800000D03*
G04 #@! TO.N,/S9*
X102303380Y-134800000D03*
G04 #@! TO.N,/S10*
X101297964Y-104012836D03*
X101903409Y-102099500D03*
G04 #@! TD*
D15*
G04 #@! TO.N,/S1*
X107479511Y-99627409D02*
X106582102Y-98730000D01*
X109500000Y-136755074D02*
X106700000Y-133955074D01*
X106582102Y-98730000D02*
X106580000Y-98730000D01*
X107479511Y-102120489D02*
X107479511Y-99627409D01*
X106700000Y-102900000D02*
X107479511Y-102120489D01*
X109500000Y-136830000D02*
X109500000Y-136755074D01*
X106700000Y-133955074D02*
X106700000Y-102900000D01*
G04 #@! TO.N,/S2*
X108209511Y-138079511D02*
X109500000Y-139370000D01*
X106100480Y-134203404D02*
X108209511Y-136312435D01*
X106580000Y-100000000D02*
X106580000Y-102119040D01*
X106100480Y-102598560D02*
X106100480Y-134203404D01*
X108209511Y-136312435D02*
X108209511Y-138079511D01*
X106580000Y-102119040D02*
X106100480Y-102598560D01*
G04 #@! TO.N,/S3*
X105500960Y-102013727D02*
X105500960Y-135200960D01*
X106960000Y-136660000D02*
X105500960Y-135200960D01*
X106960000Y-136830000D02*
X106960000Y-136660000D01*
X105780500Y-101734187D02*
X105500960Y-102013727D01*
G04 #@! TO.N,/S4*
X104901440Y-135544364D02*
X105710489Y-136353413D01*
X105710489Y-138120489D02*
X106960000Y-139370000D01*
X104901440Y-101043820D02*
X104901440Y-135544364D01*
X105310000Y-100000000D02*
X105310000Y-100635260D01*
X105310000Y-100635260D02*
X104901440Y-101043820D01*
X105710489Y-136353413D02*
X105710489Y-138120489D01*
G04 #@! TO.N,/S5*
X104101940Y-101800000D02*
X104301920Y-101999980D01*
X104301920Y-136711920D02*
X104420000Y-136830000D01*
X104301920Y-101999980D02*
X104301920Y-136711920D01*
G04 #@! TO.N,/S6*
X104420000Y-139370000D02*
X103276217Y-138226217D01*
X103702400Y-102901440D02*
X103702400Y-135497600D01*
X104040000Y-100000000D02*
X104040000Y-100456260D01*
X103302429Y-102501469D02*
X103702400Y-102901440D01*
X103302429Y-101193831D02*
X103302429Y-102501469D01*
X103170489Y-138120489D02*
X104420000Y-139370000D01*
X103170489Y-136029511D02*
X103170489Y-138120489D01*
X103702400Y-135497600D02*
X103170489Y-136029511D01*
X104040000Y-100456260D02*
X103302429Y-101193831D01*
G04 #@! TO.N,/S8*
X103102880Y-103201440D02*
X103102880Y-135249270D01*
X102770000Y-100000000D02*
X102702909Y-100067091D01*
X102702909Y-102801469D02*
X103102880Y-103201440D01*
X101880000Y-136472150D02*
X101880000Y-139370000D01*
X102702909Y-100067091D02*
X102702909Y-102801469D01*
X103102880Y-135249270D02*
X101880000Y-136472150D01*
G04 #@! TO.N,/S9*
X100600489Y-98922405D02*
X100600489Y-101927260D01*
X102503360Y-103830131D02*
X102503360Y-133696640D01*
X100600489Y-101927260D02*
X102503360Y-103830131D01*
X100792894Y-98730000D02*
X100600489Y-98922405D01*
X102500000Y-134603380D02*
X102303380Y-134800000D01*
X101500000Y-98730000D02*
X100792894Y-98730000D01*
X102500000Y-133700000D02*
X102500000Y-134603380D01*
X102503360Y-133696640D02*
X102500000Y-133700000D01*
G04 #@! TO.N,/S10*
X101297964Y-104012836D02*
X101903840Y-104618712D01*
X101100000Y-137610000D02*
X99340000Y-139370000D01*
X101903840Y-104618712D02*
X101903840Y-133600000D01*
X101903840Y-133600000D02*
X101100000Y-134403840D01*
X101903409Y-102099500D02*
X101500000Y-101696091D01*
X101100000Y-134403840D02*
X101100000Y-137610000D01*
X101500000Y-101696091D02*
X101500000Y-100000000D01*
G04 #@! TD*
M02*
